<?xml version="1.0" encoding="utf-8"?>
<!-- Generator: Adobe Illustrator 16.0.3, SVG Export Plug-In . SVG Version: 6.00 Build 0)  -->
<!DOCTYPE svg PUBLIC "-//W3C//DTD SVG 1.1//EN" "http://www.w3.org/Graphics/SVG/1.1/DTD/svg11.dtd">
<svg version="1.1" id="Capa_1" xmlns="http://www.w3.org/2000/svg" xmlns:xlink="http://www.w3.org/1999/xlink" x="0px" y="0px"
	 width="162.068px" height="100px" viewBox="0 0 162.068 100" enable-background="new 0 0 162.068 100" xml:space="preserve">
<g> 
	<path d="M38.48,10.078C36.301-1.104,22.422-2.78,15.338,4.053c-0.241-0.073-0.495-0.135-0.753-0.177
		C11.07,3.301,7.675,3.044,4.491,4.957C0.782,7.186-0.83,11.782,0.416,15.879c1.087,3.575,3.855,6.241,7.19,7.855
		c0.665,4.648,5.271,8.303,10.258,6.879C27.694,27.806,40.973,22.864,38.48,10.078z"/>
	<path fill="#0F091C" d="M84.132,78c4.104-0.723,9.354-2.834,13.098-6.102c10.396,2.336,22.488-0.946,28.5-9.676
		c4.415-6.416,0.844-14.454-5.396-17.843c-3.251-1.765-6.798-2.548-10.366-3.263c-0.095-0.522-0.19-1.052-0.302-1.589
		c-1.316-6.538-6.846-10.665-13.491-9.339c-5.065,1.01-9.971,4.396-12.497,8.924c-1.267,0.802-2.55,1.678-3.347,1.708
		c-6.48,0.25-9.921,6.97-7.079,12.199c-1.981,0.66-3.901,1.433-5.688,2.228c-5.54,2.464-4.888,9.45-1.203,13.063
		c0.619,2.398,2.339,4.746,3.958,6.521C73.736,78.591,79.513,78.813,84.132,78z M65.813,64.771c-0.222-0.948,0.047-1.14-0.002-0.067
		C65.81,64.727,65.813,64.75,65.813,64.771z"/>
	<path fill="#111219" d="M68.114,38.571c9.501-1.068,19.833-6.88,17.957-16.956c-1.472-7.913-9.108-10.441-16.049-9.505
		c-3.021,0.407-5.89,1.514-8.715,2.721c-1.931-1.853-4.613-2.958-8.096-2.818c-7.935,0.318-13.294,6.976-13.758,14.521
		c-0.021,0.38-0.019,0.743,0.001,1.096c-0.721,0.09-1.443,0.187-2.18,0.29c-4.435,0.624-6.793,6.2-5.728,10.083
		c1.3,4.718,5.662,6.347,10.083,5.725c0.708-0.1,1.419-0.185,2.127-0.247c2.146,3.69,6.546,5.766,11.985,4.956
		C60.81,47.683,65.446,43.395,68.114,38.571z"/>
	<path fill="#0F091C" d="M161.014,96.168c-1.376-2.544-2.987-4.674-4.803-6.409c-0.75-1.185-1.521-2.383-2.454-3.493
		c-3.463-4.129-8.355-5.703-13.536-6.313c-3.146-0.371-6.278-0.092-9.251,0.732c-0.499-0.563-1.051-1.1-1.646-1.601
		c-6.688-5.584-16.556-7.071-24.505-3.655c-2.729,1.172-6.979,4.244-8.86,6.672C83.334,79.3,59.94,84.756,54.984,97.58
		c-0.31,0.793-0.435,1.609-0.409,2.42h107.493C162.04,98.76,161.715,97.463,161.014,96.168z"/>
</g>
</svg>
