<?xml version="1.0" encoding="utf-8"?>
<!-- Generator: Adobe Illustrator 16.0.3, SVG Export Plug-In . SVG Version: 6.00 Build 0)  -->
<!DOCTYPE svg PUBLIC "-//W3C//DTD SVG 1.1//EN" "http://www.w3.org/Graphics/SVG/1.1/DTD/svg11.dtd">
<svg version="1.1"
	 id="svg2" inkscape:version="0.48.4 r" sodipodi:docname="dibujo.svg" xmlns:svg="http://www.w3.org/2000/svg" xmlns:inkscape="http://www.inkscape.org/namespaces/inkscape" xmlns:rdf="http://www.w3.org/1999/02/22-rdf-syntax-ns#" xmlns:dc="http://purl.org/dc/elements/1.1/" xmlns:sodipodi="http://sodipodi.sourceforge.net/DTD/sodipodi-0.dtd" xmlns:cc="http://creativecommons.org/ns#"
	 xmlns="http://www.w3.org/2000/svg" xmlns:xlink="http://www.w3.org/1999/xlink" x="0px" y="0px" width="421.875px" height="90px"
	 viewBox="0 0 421.875 90" enable-background="new 0 0 421.875 90" xml:space="preserve">
<path id="path2997" inkscape:connector-curvature="0" d="M0,85.393l25.335-61.049H4.074V3.919h52.79L31.641,64.466h21.708v20.927H0z
	"/>
<path id="path3001" inkscape:connector-curvature="0" d="M60.156,85.393V3.919h40.458v19.755H83.036v10.379h18.229L83.036,53.139
	v11.216h17.579v21.038H60.156z"/>
<path id="path3134" inkscape:connector-curvature="0" d="M131.925,34.008h-22.778v51.389h22.778V34.008z"/>
<path id="path3005" inkscape:connector-curvature="0" d="M109.147,3.909v25h22.778v-25H109.147z"/>
<path id="path3009" inkscape:connector-curvature="0" d="M175.343,3.858h20.999V90l-35.143-34.287v29.68H140.2V0l35.143,36.964
	V3.858z"/>
<path id="path3013" inkscape:connector-curvature="0" d="M238.616,85.393h-22.823V24.566h-13.504V3.919h49.833v20.647h-13.505
	V85.393L238.616,85.393z"/>
<path id="path3025" inkscape:connector-curvature="0" d="M283.986,23.571c-3.643,0-5.464,1.893-5.464,5.679v30.321
	c0,3.786,1.821,5.679,5.464,5.679h5.464V51.01L282.308,42h27.5v43.393h-25.821c-7.786,0-14.07-2-18.856-6
	c-5.071-4.214-7.608-10.178-7.608-17.893V27.429c0-7.645,2.537-13.574,7.608-17.787c4.716-3.856,11.001-5.784,18.856-5.784h24.108
	v19.713H283.986z"/>
<path id="path3029" inkscape:connector-curvature="0" d="M316.406,85.393V3.919h40.458v19.755h-17.579v10.379h18.23l-18.23,19.085
	v11.216h17.579v21.038H316.406z"/>
<path id="path3033" inkscape:connector-curvature="0" d="M364.732,85.393v-71.65l-4.762-9.823h30.934
	c8.854,0,15.83,2.251,20.927,6.752s7.645,10.622,7.645,18.359c0,4.762-1.144,8.826-3.433,12.193
	c-2.287,3.367-5.72,6.055-10.295,8.063l16.127,36.105h-24.107L387.5,53.863v31.529H364.732z M387.5,20.828v19.42
	c3.088-0.075,5.339-0.884,6.752-2.428c1.414-1.544,2.121-3.972,2.121-7.283c0-3.236-0.67-5.664-2.009-7.282
	c-1.34-1.619-3.329-2.428-5.972-2.428H387.5z"/>
</svg>
