<?xml version="1.0" encoding="UTF-8" standalone="no"?>
<!-- Created with Inkscape (http://www.inkscape.org/) -->

<svg
   xmlns:dc="http://purl.org/dc/elements/1.1/"
   xmlns:cc="http://creativecommons.org/ns#"
   xmlns:rdf="http://www.w3.org/1999/02/22-rdf-syntax-ns#"
   xmlns:svg="http://www.w3.org/2000/svg"
   xmlns="http://www.w3.org/2000/svg"
   xmlns:sodipodi="http://sodipodi.sourceforge.net/DTD/sodipodi-0.dtd"
   xmlns:inkscape="http://www.inkscape.org/namespaces/inkscape"
   width="421.87518"
   height="90"
   id="svg2"
   version="1.1"
   inkscape:version="0.48.4 r"
   sodipodi:docname="dibujo.svg">
  <defs
     id="defs4">
    <clipPath
       id="clipPath3019"
       clipPathUnits="userSpaceOnUse">
      <path
         id="path3021"
         d="m 0,841.89 595.275,0 L 595.275,0 0,0 0,841.89 z"
         inkscape:connector-curvature="0" />
    </clipPath>
  </defs>
  <sodipodi:namedview
     id="base"
     pagecolor="#ffffff"
     bordercolor="#666666"
     borderopacity="1.0"
     inkscape:pageopacity="0.0"
     inkscape:pageshadow="2"
     inkscape:zoom="2.5132538"
     inkscape:cx="201.8247"
     inkscape:cy="17.18866"
     inkscape:document-units="px"
     inkscape:current-layer="layer1"
     showgrid="false"
     showguides="true"
     inkscape:guide-bbox="true"
     inkscape:window-width="1440"
     inkscape:window-height="878"
     inkscape:window-x="-8"
     inkscape:window-y="-8"
     inkscape:window-maximized="1"
     fit-margin-top="0"
     fit-margin-left="0"
     fit-margin-right="0"
     fit-margin-bottom="0"
     inkscape:showpageshadow="false"
     showborder="true" />
  <metadata
     id="metadata7">
    <rdf:RDF>
      <cc:Work
         rdf:about="">
        <dc:format>image/svg+xml</dc:format>
        <dc:type
           rdf:resource="http://purl.org/dc/dcmitype/StillImage" />
        <dc:title />
      </cc:Work>
    </rdf:RDF>
  </metadata>
  <g
     inkscape:label="Capa 1"
     inkscape:groupmode="layer"
     id="layer1"
     transform="translate(-59.202009,-451.75805)">
    <path
       id="path2997"
       style="fill:#f2f2f2;fill-opacity:1;fill-rule:nonzero;stroke:none"
       d="m 59.202009,537.15004 25.334933,-61.04845 -21.261121,0 0,-20.42464 52.789719,0 -25.223044,60.54684 21.707994,0 0,20.92625 -53.348481,0 z"
       inkscape:connector-curvature="0" />
    <path
       id="path3001"
       style="fill:#f2f2f2;fill-opacity:1;fill-rule:nonzero;stroke:none"
       d="m 119.35826,537.15004 0,-81.47309 40.458,0 0,19.75478 -17.57857,0 0,10.37942 18.22934,0 -18.22934,19.0849 0,11.21667 17.57857,0 0,21.03732 -40.458,0 z"
       inkscape:connector-curvature="0" />
    <path
       style="fill:#f2f2f2;fill-opacity:1;fill-rule:nonzero;stroke:none"
       d="m 191.12668,485.76592 -22.77781,0 0,51.38896 22.77781,0 0,-51.38896 z"
       id="path3134"
       inkscape:connector-curvature="0" />
    <path
       style="fill:#f2f2f2;fill-opacity:1;fill-rule:nonzero;stroke:none"
       d="m 168.34887,455.66674 0,25.00002 22.77781,0 0,-25.00002 -22.77781,0 z"
       id="path3005"
       inkscape:connector-curvature="0" />
    <path
       id="path3009"
       style="fill:#f2f2f2;fill-opacity:1;fill-rule:nonzero;stroke:none"
       d="m 234.54469,455.61594 20.99845,0 0,86.14211 -35.14293,-34.28732 0,29.67938 -20.99834,0 0,-85.39206 35.14282,36.96425 0,-33.10636 z"
       inkscape:connector-curvature="0" />
    <path
       id="path3013"
       style="fill:#f2f2f2;fill-opacity:1;fill-rule:nonzero;stroke:none"
       d="m 297.81826,537.15004 -22.82387,0 0,-60.82544 -13.50399,0 0,-20.64765 49.83264,0 0,20.64765 -13.50478,0 0,60.82544 z"
       inkscape:connector-curvature="0" />
    <g
       style="fill:#f2f2f2"
       id="g3023"
       transform="matrix(0.79365127,0,0,-0.79365127,343.18891,475.32934)">
      <path
         inkscape:connector-curvature="0"
         d="m 0,0 c -4.59,0 -6.885,-2.385 -6.885,-7.156 l 0,-38.204 c 0,-4.77 2.295,-7.156 6.885,-7.156 l 6.884,0 0,17.943 -9,11.353 34.65,0 0,-54.674 -32.534,0 c -9.811,0 -17.73,2.519 -23.76,7.56 -6.39,5.309 -9.587,12.823 -9.587,22.543 l 0,42.93 c 0,9.632 3.197,17.103 9.587,22.412 5.942,4.858 13.862,7.288 23.76,7.288 l 30.376,0 L 30.376,0 0,0 z"
         style="fill:#f2f2f2;fill-opacity:1;fill-rule:nonzero;stroke:none"
         id="path3025" />
    </g>
    <g
       style="fill:#f2f2f2"
       id="g3027"
       transform="matrix(0.79365127,0,0,-0.79365127,375.60844,537.15004)">
      <path
         inkscape:connector-curvature="0"
         d="m 0,0 0,102.656 50.977,0 0,-24.891 -22.149,0 0,-13.078 22.969,0 -22.969,-24.047 0,-14.133 22.149,0 L 50.977,0 0,0 z"
         style="fill:#f2f2f2;fill-opacity:1;fill-rule:nonzero;stroke:none"
         id="path3029" />
    </g>
    <g
       style="fill:#f2f2f2"
       id="g3031"
       transform="matrix(0.79365127,0,0,-0.79365127,423.93431,537.15004)">
      <path
         inkscape:connector-curvature="0"
         d="m 0,0 0,90.279 -6,12.377 38.977,0 c 11.156,0 19.945,-2.836 26.367,-8.508 6.422,-5.672 9.633,-13.383 9.633,-23.133 0,-6 -1.442,-11.121 -4.325,-15.363 C 61.77,51.41 57.445,48.023 51.68,45.492 L 72,0 41.625,0 28.687,39.726 28.687,0 0,0 z m 28.687,81.351 0,-24.469 c 3.891,0.094 6.727,1.114 8.508,3.059 1.782,1.945 2.672,5.004 2.672,9.176 0,4.078 -0.844,7.136 -2.531,9.175 -1.688,2.04 -4.195,3.059 -7.524,3.059 l -1.125,0 z"
         style="fill:#f2f2f2;fill-opacity:1;fill-rule:nonzero;stroke:none"
         id="path3033" />
    </g>
  </g>
</svg>
