<?xml version="1.0" encoding="utf-8"?>
<!-- Generator: Adobe Illustrator 16.0.3, SVG Export Plug-In . SVG Version: 6.00 Build 0)  -->
<!DOCTYPE svg PUBLIC "-//W3C//DTD SVG 1.1//EN" "http://www.w3.org/Graphics/SVG/1.1/DTD/svg11.dtd">
<svg version="1.1"
	 id="svg2" xmlns:rdf="http://www.w3.org/1999/02/22-rdf-syntax-ns#" xmlns:cc="http://creativecommons.org/ns#" xmlns:svg="http://www.w3.org/2000/svg" xmlns:dc="http://purl.org/dc/elements/1.1/" xmlns:inkscape="http://www.inkscape.org/namespaces/inkscape" xmlns:sodipodi="http://sodipodi.sourceforge.net/DTD/sodipodi-0.dtd" sodipodi:docname="dibujo.svg" inkscape:version="0.48.4 r"
	 xmlns="http://www.w3.org/2000/svg" xmlns:xlink="http://www.w3.org/1999/xlink" x="0px" y="0px" width="48.066px"
	 height="53.233px" viewBox="215.728 -445.751 48.066 53.233" enable-background="new 215.728 -445.751 48.066 53.233"
	 xml:space="preserve">
<sodipodi:namedview  id="base" showgrid="false" borderopacity="1.0" bordercolor="#666666" inkscape:cy="100.36547" inkscape:cx="471.00049" inkscape:zoom="1.8757812" pagecolor="#ffffff" inkscape:pageopacity="0.0" inkscape:document-units="px" inkscape:pageshadow="2" inkscape:window-y="-8" inkscape:current-layer="layer1" inkscape:window-width="1440" inkscape:window-height="878" inkscape:window-x="-8" inkscape:window-maximized="1">
	</sodipodi:namedview>
<g>
	<path fill="#6093A5" d="M231.478-419.187c-0.13-0.094-4.394-3.805-6.423-5.576c2.029,1.771,4.05,3.551,6.076,5.326
		C231.23-419.349,231.348-419.281,231.478-419.187z"/>
	<path fill="#6093A5" d="M241.221-418.906c-0.05-0.043-0.128-0.081-0.23-0.131c0.103,0.05,0.181,0.089,0.23,0.133
		c0.594,0.521,1.187,1.041,1.78,1.562c-0.002-0.003-0.005-0.005-0.008-0.008C242.402-417.87,241.812-418.388,241.221-418.906z"/>
	<path fill="#6093A5" d="M249.318-420.027c0-2.125,0-4.25,0-6.375c0,0-0.001,0.001-0.002,0.001c0.001,2.125,0,4.248,0.001,6.372
		C249.317-420.028,249.318-420.028,249.318-420.027z"/>
	<path fill="#6093A5" d="M231.243-418.941c-0.18,0.158-0.36,0.316-0.54,0.474C230.893-418.633,231.074-418.792,231.243-418.941z"/>
	<path fill="#6093A5" d="M244.547-424.188c1.174-1.031,2.345-2.061,3.525-3.097c-0.001,0-0.001,0-0.002,0
		C246.891-426.249,245.72-425.22,244.547-424.188C244.547-424.189,244.547-424.188,244.547-424.188z"/>
	<path fill="#6093A5" d="M240.396-420.542L240.396-420.542c-1.392,1.221-2.782,2.442-4.181,3.671
		c-3.952-3.47-7.871-6.911-11.859-10.414c0,0-0.001,0-0.002,0c3.989,3.504,7.908,6.945,11.861,10.416
		C237.614-418.098,239.004-419.319,240.396-420.542z"/>
	<path fill="#6093A5" d="M239.881-418.185c-1.256,1.102-2.457,2.152-3.667,3.215C237.424-416.033,238.625-417.083,239.881-418.185
		L239.881-418.185z"/>
	<path fill="#6093A5" d="M249.318-412.878c0,0.337,0,0.674,0,1.011C249.318-412.204,249.318-412.541,249.318-412.878
		L249.318-412.878z"/>
	<path fill="#6093A5" d="M246.577-414.208c0.817,0.716,1.633,1.433,2.451,2.148c-0.816-0.716-1.633-1.432-2.449-2.147
		C246.578-414.208,246.578-414.208,246.577-414.208z"/>
	<path fill="#6093A5" d="M215.728-445.75c0,13.238,0,26.365,0,39.668c2.729,0,5.396,0,8.221,0c0,4.531,0,8.893,0,13.564
		c0.509-0.547,0.807-0.848,1.088-1.168c3.313-3.787,6.638-7.561,9.923-11.383c0.629-0.732,1.26-1.037,2.146-1.035
		c8.425,0.037,16.849,0.021,25.271,0.021c0.475,0,0.949,0,1.417,0c0-13.369,0-26.531,0-39.668
		C247.714-445.75,231.742-445.75,215.728-445.75z M241.857-442.933c0.177,0.041,0.353,0.08,0.527,0.121
		c0.218,0.281,0.46,0.551,0.649,0.852c1.085,1.719,2.157,3.445,3.231,5.172c0.537,0.863,0.434,1.332-0.438,1.865
		c-0.874,0.535-1.759,1.051-2.591,1.545c-1.54-2.469-3.116-4.998-4.744-7.605C239.573-441.609,240.715-442.271,241.857-442.933z
		 M251.984-412.402c-0.265,0.018-0.528,0.018-0.793,0.025c-0.285-0.066-0.57-0.132-0.855-0.198l-0.02,2.438l-28.207,0.002
		l0.002-18.15h14.085c-0.098-0.245-0.203-0.486-0.296-0.734c-0.688-1.83-1.072-3.729-1.013-5.697
		c0.016-0.465,0.043-0.928,0.064-1.391c0.13-0.561,0.26-1.121,0.39-1.684c0.254-0.449,0.485-0.912,0.771-1.338
		c0.194-0.293,0.466-0.533,0.755-0.854c0.143,0.217,0.241,0.357,0.333,0.506c1.447,2.318,2.893,4.645,4.351,6.957
		c0.191,0.305,0.224,0.535,0.061,0.881c-0.437,0.922-0.514,1.895,0.035,2.797c0.114,0.187,0.233,0.37,0.347,0.557h8.467
		l-0.079,9.957c1.107,1.764,2.214,3.528,3.315,5.297c0.026,0.045,0.039,0.098,0.068,0.178
		C253.229-412.46,252.603-412.441,251.984-412.402z M258.232-415.599c-0.932,0.609-1.89,1.184-2.766,1.73
		c-1.593-2.555-3.175-5.092-4.721-7.57c0.823-0.537,1.732-1.15,2.665-1.73c0.646-0.402,1.162-0.285,1.564,0.355
		c1.202,1.9,2.394,3.809,3.573,5.725C258.925-416.478,258.821-415.984,258.232-415.599z"/>
	<path fill="#6093A5" d="M242.993-417.352c0.002,0.003,0.005,0.005,0.008,0.008c1.192,1.045,2.384,2.09,3.576,3.135
		c0.001,0,0.001,0.001,0.002,0.001C245.384-415.255,244.188-416.303,242.993-417.352z"/>
	<path fill="#6093A5" d="M249.318-412.878L249.318-412.878c0-2.383,0-4.766,0-7.149c0-0.001-0.001-0.001-0.001-0.002
		C249.317-417.645,249.318-415.261,249.318-412.878z"/>
	<path fill="#6093A5" d="M240.396-420.542L240.396-420.542c1.382-1.213,2.769-2.431,4.151-3.646v-0.001
		C243.164-422.975,241.777-421.756,240.396-420.542z"/>
	<path fill="#6093A5" d="M231.243-418.941c0.061-0.053,0.111-0.117,0.234-0.246c-0.13-0.094-0.247-0.162-0.347-0.25
		c-2.026-1.775-4.047-3.555-6.076-5.326c-0.638-0.559-1.296-1.094-1.943-1.639c0,4.846,0,9.689,0,14.535
		c0.079-0.049,4.83-4.18,7.592-6.601C230.883-418.625,231.063-418.783,231.243-418.941z"/>
	<path fill="#6093A5" d="M249.317-420.029c0-2.124,0-4.247-0.001-6.372c-0.111,0.072-0.232,0.134-0.33,0.22
		c-2.576,2.258-5.15,4.52-7.728,6.779c-0.087,0.074-0.198,0.127-0.44,0.277c0.075,0.041,0.121,0.062,0.172,0.087
		c0.102,0.05,0.18,0.088,0.229,0.131c0.591,0.518,1.182,1.036,1.772,1.554c1.195,1.048,2.391,2.096,3.585,3.144
		c0.816,0.716,1.632,1.432,2.449,2.147c0.087,0.076,0.193,0.129,0.291,0.193c0-0.337,0-0.674,0-1.011
		C249.318-415.261,249.317-417.645,249.317-420.029z"/>
	<path fill="#6093A5" d="M240.396-420.542c1.381-1.213,2.769-2.432,4.151-3.646c1.173-1.031,2.344-2.06,3.524-3.096
		c-7.947,0-15.787,0-23.715,0c3.989,3.503,7.907,6.944,11.859,10.414C237.614-418.099,239.004-419.32,240.396-420.542z"/>
	<path fill="#6093A5" d="M236.214-414.97c-1.248-1.094-2.448-2.146-3.669-3.215c-2.744,2.412-5.446,4.785-8.202,7.205
		c7.959,0,15.807,0,23.745,0c-2.773-2.434-5.473-4.805-8.207-7.205C238.625-417.083,237.424-416.033,236.214-414.97z"/>
</g>
</svg>
