<?xml version="1.0" encoding="utf-8"?>
<!-- Generator: Adobe Illustrator 16.0.3, SVG Export Plug-In . SVG Version: 6.00 Build 0)  -->
<!DOCTYPE svg PUBLIC "-//W3C//DTD SVG 1.1//EN" "http://www.w3.org/Graphics/SVG/1.1/DTD/svg11.dtd">
<svg version="1.1"
	 id="svg2" xmlns:rdf="http://www.w3.org/1999/02/22-rdf-syntax-ns#" xmlns:cc="http://creativecommons.org/ns#" xmlns:svg="http://www.w3.org/2000/svg" xmlns:dc="http://purl.org/dc/elements/1.1/" xmlns:inkscape="http://www.inkscape.org/namespaces/inkscape" xmlns:sodipodi="http://sodipodi.sourceforge.net/DTD/sodipodi-0.dtd" sodipodi:docname="dibujo.svg" inkscape:version="0.48.4 r"
	 xmlns="http://www.w3.org/2000/svg" xmlns:xlink="http://www.w3.org/1999/xlink" x="0px" y="0px" width="96.781px"
	 height="76.521px" viewBox="687.291 -112.563 96.781 76.521" enable-background="new 687.291 -112.563 96.781 76.521"
	 xml:space="preserve">
<sodipodi:namedview  id="base" showgrid="false" borderopacity="1.0" bordercolor="#666666" inkscape:cy="100.36547" inkscape:cx="471.00049" inkscape:zoom="1.8757812" pagecolor="#ffffff" inkscape:pageopacity="0.0" inkscape:document-units="px" inkscape:pageshadow="2" inkscape:window-y="-8" inkscape:current-layer="layer1" inkscape:window-width="1440" inkscape:window-height="878" inkscape:window-x="-8" inkscape:window-maximized="1">
	</sodipodi:namedview>
<g>
	<path fill="none" d="M705.278-71.705c-0.004-0.014-0.014-0.025-0.016-0.039c-0.118-0.961-0.627-1.697-1.273-2.391
		c-0.533-0.566-0.99-1.207-1.455-1.834c-0.11-0.148-0.188-0.307-0.231-0.467c0.044,0.163,0.121,0.323,0.232,0.473
		c0.465,0.627,0.922,1.268,1.455,1.834c0.646,0.691,1.154,1.43,1.273,2.391c0.002,0.012,0.012,0.025,0.016,0.039
		c0.182,0.641,0.672,0.947,1.313,0.762c0.145-0.042,0.282-0.103,0.42-0.164c0-0.002,0-0.003,0-0.005
		c-0.139,0.061-0.275,0.123-0.421,0.165C705.949-70.756,705.459-71.063,705.278-71.705z"/>
	<path fill="none" d="M704.306-63.08c0.021,0.1,0.052,0.198,0.077,0.296c-0.024-0.097-0.055-0.193-0.075-0.291
		c-0.313-1.51,0.138-2.6,1.407-3.461c0.415-0.281,0.852-0.516,1.299-0.72c0-0.001,0-0.003,0-0.005
		c-0.448,0.205-0.885,0.438-1.3,0.719C704.443-65.678,703.991-64.588,704.306-63.08z"/>
	<path fill="none" d="M715.403-94.107c0.018,0.092,0.049,0.175,0.075,0.26c-0.025-0.083-0.058-0.164-0.073-0.254
		c-0.084-0.441-0.119-0.893-0.131-1.342c-0.005-0.229-0.026-0.448-0.067-0.656c0.04,0.206,0.061,0.423,0.065,0.65
		C715.285-95,715.319-94.547,715.403-94.107z"/>
	<path fill="none" d="M689.979-70.868c1.259,4.488,3.7,8.311,7.356,11.379c2.945,2.471,6.177,4.058,9.674,4.785
		c0-0.001,0-0.003,0-0.005c-3.497-0.726-6.729-2.313-9.675-4.786C693.68-62.562,691.237-66.381,689.979-70.868z"/>
	<path fill="none" d="M726.349-93.262c-0.123,0.459-0.352,0.834-0.713,1.143c-0.354,0.301-0.709,0.602-0.896,1.051
		c-0.028,0.068-0.157,0.098-0.241,0.141c-0.068,0.035-0.142,0.063-0.218,0.096c0.003,0.061,0.005,0.115,0.009,0.172
		c0.006,0.097,0.011,0.168,0.021,0.221c-0.009-0.052-0.014-0.122-0.02-0.215c-0.004-0.057-0.006-0.111-0.008-0.172
		c0.076-0.033,0.146-0.061,0.217-0.096c0.084-0.043,0.213-0.072,0.242-0.143c0.188-0.449,0.543-0.75,0.896-1.049
		c0.361-0.311,0.59-0.686,0.713-1.143c0.115-0.434,0.266-0.859,0.389-1.293c0.008-0.028,0.003-0.067-0.011-0.104
		c0.012,0.036,0.017,0.073,0.009,0.1C726.612-94.121,726.465-93.695,726.349-93.262z"/>
	<path fill="none" d="M726.989-90.506c0.117-0.002,0.235,0.012,0.353,0.036C727.226-90.493,727.106-90.508,726.989-90.506z"/>
	<path fill="none" d="M694.073-83.844c-0.166,0.748-0.254,1.496-0.113,2.26c0,0.001,0,0.001,0.001,0.002
		c-0.141-0.764-0.053-1.511,0.113-2.258c0.096-0.428,0.104-0.836,0.011-1.215C694.179-84.677,694.169-84.27,694.073-83.844z"/>
	<path fill="none" d="M689.514-72.826c0.11,0.558,0.247,1.102,0.392,1.641c-0.146-0.541-0.281-1.086-0.393-1.646
		C689.514-72.83,689.514-72.828,689.514-72.826z"/>
	<path fill="none" d="M694.075-81.104c0.006,0.021,0.009,0.042,0.015,0.063C694.084-81.061,694.081-81.083,694.075-81.104z"/>
	<path fill="none" d="M699.099-76.311c-0.054,0.201-0.031,0.395,0.023,0.584c-0.054-0.187-0.075-0.379-0.021-0.578
		c0.051-0.185,0.03-0.339-0.026-0.475C699.129-76.645,699.148-76.494,699.099-76.311z"/>
	<path fill="none" d="M697.556-78.031c-0.099-0.221-0.217-0.435-0.299-0.681c0,0-0.001,0-0.001-0.001
		c0.082,0.25,0.201,0.463,0.302,0.688c0.1,0.221,0.178,0.451,0.267,0.684c0,0,0,0,0.001,0
		C697.734-77.574,697.656-77.807,697.556-78.031z"/>
	<path fill="none" d="M699.389-75.088c-0.013-0.029-0.025-0.057-0.04-0.086c-0.013-0.028-0.024-0.058-0.039-0.086
		c0.014,0.027,0.024,0.055,0.037,0.082C699.36-75.148,699.375-75.118,699.389-75.088z"/>
	<path fill="none" d="M713.142-100.33L713.142-100.33c0.033,0.121,0.053,0.245,0.078,0.368
		C713.193-100.084,713.176-100.209,713.142-100.33z"/>
	<path fill="none" d="M717.678-90.326c-0.457-0.25-0.959-0.434-1.457-0.6c-0.707-0.232-1.383-0.502-1.979-0.965
		c-0.488-0.377-0.887-0.338-1.311,0.107c-0.232,0.248-0.436,0.533-0.623,0.82c-0.271,0.412-0.42,0.51-0.891,0.375
		c-0.473-0.133-0.928-0.326-1.394-0.482c-0.45-0.154-0.901-0.314-1.36-0.441c-0.396-0.107-0.754-0.268-1.064-0.535
		c-0.451-0.391-0.906-0.777-1.354-1.176c-0.217-0.193-0.39-0.419-0.46-0.713c0,0,0,0.001,0,0.002
		c0.069,0.295,0.244,0.523,0.461,0.717c0.447,0.396,0.901,0.785,1.354,1.174c0.313,0.268,0.671,0.428,1.064,0.537
		c0.459,0.127,0.91,0.285,1.361,0.439c0.465,0.158,0.92,0.35,1.393,0.484c0.471,0.135,0.619,0.037,0.892-0.377
		c0.188-0.287,0.39-0.57,0.622-0.818c0.423-0.445,0.82-0.486,1.311-0.107c0.598,0.461,1.271,0.732,1.979,0.965
		c0.498,0.164,1,0.348,1.457,0.6c0.644,0.351,0.991,0.862,1.03,1.495C718.672-89.46,718.322-89.974,717.678-90.326z"/>
	<path fill="none" d="M727.97-89.904c0.006,0.095-0.008,0.199-0.044,0.313c-0.188,0.594-0.478,1.122-0.89,1.559h0.004
		c0.41-0.435,0.698-0.96,0.887-1.553C727.964-89.702,727.977-89.808,727.97-89.904z"/>
	<path fill="none" d="M713.537-98.362c-0.034-0.107-0.062-0.219-0.08-0.333c-0.033-0.193-0.055-0.391-0.092-0.582c0,0,0,0,0-0.001
		c0.036,0.192,0.058,0.385,0.091,0.579C713.476-98.583,713.502-98.47,713.537-98.362z"/>
	<path fill="none" d="M710.575-95.811c-0.352-0.402-0.677-0.812-0.781-1.354c0.001,0.002,0.001,0.003,0.001,0.005
		c0.104,0.543,0.433,0.953,0.781,1.354c0.303,0.35,0.623,0.691,0.889,1.07c0.163,0.232,0.251,0.477,0.302,0.726
		c-0.05-0.251-0.139-0.499-0.303-0.732C711.198-95.119,710.878-95.461,710.575-95.811z"/>
	<path fill="none" d="M710.979-100.669c0,0.001,0,0.001-0.003,0.001c0.044,0.049,0.082,0.09,0.14,0.152c0.001,0,0.002,0,0.004,0
		C711.061-100.578,711.021-100.62,710.979-100.669z"/>
	<path fill="#FFFFFF" d="M761.546-112.239c-0.355-0.173-0.753-0.288-1.104-0.29c-4.097-0.022-8.192-0.03-12.289-0.033
		c4.097,0.002,8.191,0.01,12.288,0.033C760.792-112.527,761.189-112.412,761.546-112.239z"/>
	<path fill="#FFFFFF" d="M773.601-100.415C773.601-100.415,773.602-100.415,773.601-100.415c-2.273-2.298-4.559-4.586-6.85-6.868
		C769.042-105,771.326-102.712,773.601-100.415z"/>
	<path fill="#FFFFFF" d="M775.295-63.072c0.001,0.143-0.026,0.287-0.05,0.51C775.269-62.785,775.296-62.93,775.295-63.072
		c0.003-9.372,0.003-18.743-0.012-28.113c-0.001,0-0.001,0.001-0.001,0.001C775.297-81.814,775.297-72.443,775.295-63.072z"/>
	<path fill="#4BBA94" d="M770.54-67.256c0-5.011,0-10.007,0-15.012c-1.455,2.728-2.899,5.429-4.325,8.091
		c0.001,2.307,0.001,4.614,0.002,6.92C767.657-67.256,769.098-67.256,770.54-67.256z"/>
	<g>
		<path d="M704.308-63.074c0.021,0.098,0.051,0.194,0.075,0.291c0.075,0.281,0.161,0.56,0.237,0.84
			c0.125,0.467,0.453,0.672,0.906,0.721c0.564,0.063,0.521,0.078,0.705,0.609c0.299,0.87,0.538,1.755,0.78,2.642
			c0.001-3.106,0.001-6.202,0.001-9.284c-0.447,0.205-0.884,0.439-1.299,0.72C704.444-65.674,703.993-64.584,704.308-63.074z"/>
		<path d="M702.788-77.762c0.426-0.311,0.92-0.531,1.393-0.777c0.201-0.104,0.414-0.066,0.604,0.061
			c0.123,0.082,0.25,0.162,0.36,0.258c0.563,0.487,1.191,0.865,1.868,1.164v-7.669c0-2.07,1.235-3.307,3.303-3.307h8.302
			c0.009-0.041,0.017-0.081,0.025-0.121c0.059-0.236,0.079-0.46,0.066-0.671c-0.039-0.632-0.388-1.144-1.03-1.495
			c-0.457-0.252-0.959-0.436-1.457-0.6c-0.707-0.232-1.382-0.504-1.979-0.965c-0.489-0.379-0.888-0.338-1.311,0.107
			c-0.232,0.248-0.435,0.531-0.622,0.818c-0.271,0.414-0.421,0.512-0.892,0.377c-0.473-0.135-0.928-0.326-1.393-0.484
			c-0.451-0.154-0.902-0.313-1.361-0.439c-0.396-0.109-0.753-0.27-1.064-0.537c-0.452-0.389-0.906-0.777-1.354-1.174
			c-0.217-0.193-0.392-0.422-0.461-0.717c0-0.001,0-0.001,0-0.002s-0.001-0.001-0.001-0.002c-0.105-0.438,0.064-0.77,0.48-0.926
			c0.615-0.232,1.324-0.039,1.752,0.48c0.178,0.211,0.338,0.436,0.518,0.643c0.49,0.568,1.092,0.893,1.865,0.859
			c0.426-0.018,0.854-0.004,1.299-0.004c0.118-0.381,0.142-0.76,0.068-1.125c-0.052-0.25-0.14-0.494-0.303-0.726
			c-0.266-0.379-0.586-0.721-0.889-1.07c-0.349-0.4-0.677-0.811-0.781-1.354c0-0.001,0-0.003-0.001-0.005c0,0,0,0,0-0.001
			c-0.041-0.215-0.049-0.389,0.174-0.545c0.134-0.092,0.205-0.295,0.259-0.463c0.045-0.148,0.039-0.32,0.03-0.48
			c-0.024-0.568-0.063-1.137-0.096-1.705c-0.002-0.047,0-0.098,0-0.156c0.31,0,0.614,0,0.953,0
			c-0.058-0.062-0.096-0.104-0.139-0.152c0.002,0,0.002,0,0.003-0.001c-0.001-0.001-0.003-0.003-0.004-0.004
			c0.032-0.012,0.052-0.025,0.067-0.023c0.619,0.025,1.236,0.041,1.853,0.092c0.093,0.008,0.218,0.164,0.245,0.271
			c0,0.001,0,0.002,0.001,0.003l0,0c0.034,0.121,0.053,0.246,0.078,0.368c0.049,0.227,0.102,0.452,0.146,0.679
			c0,0.001,0,0.003,0.001,0.005c0,0,0,0,0,0.001c0.037,0.191,0.059,0.389,0.092,0.582c0.02,0.115,0.046,0.227,0.08,0.333
			c0.104,0.322,0.284,0.597,0.604,0.774c0.638,0.354,0.944,0.869,1.065,1.489c0.041,0.208,0.063,0.427,0.067,0.656
			c0.012,0.449,0.047,0.9,0.131,1.342c0.017,0.09,0.048,0.171,0.074,0.254c0.146,0.439,0.434,0.772,0.948,0.859
			c0.228,0.039,0.486,0.012,0.705-0.059c0.791-0.256,1.504-0.643,1.949-1.385c0.115-0.191,0.201-0.406,0.262-0.621
			c0.365-1.32,1.109-1.465,2.179-1.357c0.497,0.051,0.991,0.113,1.489,0.148c0.427,0.029,0.82-0.084,1.185-0.316
			c0.058-0.035,0.185-0.031,0.233,0.01c0.752,0.602,1.5,1.211,2.242,1.826c0.023,0.018,0.042,0.053,0.055,0.09
			c0.014,0.037,0.019,0.076,0.011,0.104c-0.123,0.434-0.272,0.859-0.389,1.293c-0.123,0.457-0.352,0.832-0.713,1.143
			c-0.353,0.299-0.708,0.6-0.896,1.049c-0.029,0.07-0.158,0.1-0.242,0.143c-0.069,0.035-0.141,0.063-0.217,0.096
			c0.002,0.061,0.004,0.115,0.008,0.172c0.006,0.093,0.011,0.163,0.02,0.215c0.029,0.154,0.104,0.149,0.397,0.125
			c0.742-0.066,1.482-0.139,2.227-0.197c0.02-0.001,0.037,0.006,0.057,0.005c0.117-0.002,0.235,0.013,0.353,0.036
			c0.019,0.003,0.035,0.001,0.054,0.005c0.352,0.076,0.557,0.274,0.574,0.561c0.008,0.097-0.006,0.203-0.043,0.318
			c-0.188,0.592-0.477,1.118-0.887,1.553h6.589c-0.145-0.313-0.287-0.627-0.446-0.938c-3.014-5.865-7.604-9.971-13.834-12.199
			c-1.804-0.645-3.668-1.025-5.572-1.201c-0.414-0.037-0.828-0.037-1.242-0.059c-0.047-0.002-0.092-0.025-0.139-0.037
			c-0.646,0-1.295,0-1.941,0c-0.242,0.025-0.484,0.053-0.73,0.074c-5.488,0.459-10.269,2.566-14.314,6.285
			c-4.041,3.713-6.553,8.305-7.642,13.678c-0.241,1.193-0.387,2.402-0.44,3.621c-0.002,0.047-0.023,0.092-0.035,0.137
			c0,0.803,0,1.605,0,2.408c0.025,0.264,0.056,0.527,0.076,0.791c0.252,3.328,1.113,6.492,2.623,9.469
			c2.395,4.723,5.914,8.357,10.602,10.834c2.035,1.078,4.181,1.818,6.418,2.25c0-0.595,0.001-1.189,0.001-1.784
			c-3.497-0.727-6.729-2.313-9.674-4.785c-3.656-3.069-6.099-6.892-7.355-11.379c-0.029-0.104-0.049-0.213-0.075-0.317
			c-0.145-0.54-0.28-1.083-0.392-1.641c0-0.002,0-0.003-0.001-0.005l0,0c-1.021-5.18-0.383-10.18,1.881-14.961
			c0.036-0.066,0.077-0.139,0.132-0.242c0.061,0.113,0.109,0.188,0.145,0.271c0.15,0.395,0.441,0.654,0.779,0.889
			c0.35,0.244,0.707,0.488,1.016,0.781c0.326,0.311,0.526,0.661,0.621,1.041c0.095,0.379,0.085,0.787-0.011,1.215
			c-0.166,0.747-0.254,1.494-0.113,2.258c0.029,0.163,0.069,0.322,0.114,0.478c0.006,0.021,0.009,0.042,0.015,0.063
			c0.159,0.529,0.407,1.016,0.782,1.445c0.611,0.703,1.232,1.393,1.977,1.959c0.34,0.257,0.58,0.326,0.976,0.295
			c-0.089-0.232-0.167-0.463-0.267-0.684c-0.101-0.225-0.22-0.438-0.302-0.688c0,0,0.001,0,0.001,0.001
			c0-0.002-0.001-0.003-0.002-0.005c0.086,0.07,0.18,0.135,0.258,0.215c0.439,0.447,0.889,0.887,1.307,1.352
			c0.102,0.114,0.196,0.233,0.255,0.371c0.058,0.136,0.077,0.29,0.026,0.475c-0.054,0.199-0.031,0.391,0.021,0.578
			c0.047,0.159,0.117,0.313,0.188,0.467c0.015,0.028,0.026,0.058,0.039,0.086c0.015,0.029,0.027,0.057,0.04,0.086
			c0.103,0.218,0.2,0.438,0.31,0.654c0.141,0.279,0.463,0.207,0.688,0.338c0.511,0.301,0.918,0.707,1.246,1.186
			c0.849,1.229,1.951,2.172,3.201,2.961c0.209,0.131,0.404,0.283,0.604,0.424c0.496,0.345,1.021,0.463,1.577,0.364
			c0-0.648,0-1.293-0.001-1.939c-0.138,0.061-0.275,0.122-0.42,0.164c-0.642,0.186-1.132-0.121-1.313-0.762
			c-0.004-0.014-0.014-0.027-0.016-0.039c-0.118-0.961-0.627-1.699-1.273-2.391c-0.533-0.566-0.99-1.207-1.455-1.834
			c-0.111-0.15-0.188-0.311-0.232-0.473C702.168-76.922,702.333-77.432,702.788-77.762z"/>
		<path d="M739.376-88.033c0-6.565,0-13.134,0-19.723c6.615,0,13.213,0,19.955,0c0,3.77,0,7.506,0,11.365c3.807,0,7.473,0,11.209,0
			c0,0.264,0,0.524,0,0.788c1.02-1.605,2.038-3.21,3.061-4.812c-2.273-2.297-4.559-4.586-6.85-6.868
			c-1.525-1.519-3.05-3.039-4.586-4.548c-0.164-0.161-0.385-0.295-0.619-0.409c-0.356-0.173-0.754-0.288-1.104-0.29
			c-4.097-0.022-8.191-0.03-12.288-0.033c-4.098-0.002-8.192,0.001-12.288,0.001c-0.395,0-0.784,0-1.176,0l0,0
			c0,8.207,0,16.374,0,24.527h1.963h2.724V-88.033z M761.054-105.74c2.506,2.506,5.127,5.125,7.719,7.713c-2.442,0-5.032,0-7.719,0
			C761.054-100.689,761.054-103.332,761.054-105.74z"/>
		<path d="M770.54-82.268c0,5.004,0,10,0,15.012c-1.442,0-2.883,0-4.323,0c0,1.564,0.001,3.129,0.001,4.693c3.009,0,6.01,0,9.027,0
			c0.022-0.223,0.051-0.367,0.05-0.51c0.002-9.371,0.002-18.742-0.013-28.111C773.693-88.187,772.111-85.212,770.54-82.268z"/>
		<path d="M765.222-50.627c-0.001-7.229-0.002-14.459-0.004-21.688c-0.324,0.605-0.65,1.217-0.974,1.817
			c-0.383,0.715-0.986,1.288-1.427,1.706c-0.152,0.145-0.288,0.272-0.389,0.383l-0.173,0.193L762-68.246
			c-0.271-0.031-0.525-0.073-0.777-0.117c0,9.104,0,18.182,0,27.287c-16.396,0-32.772,0-49.197,0c0-11.402,0-22.813,0-34.264
			c15.238,0,30.479,0,45.762,0c2.283-3.667,4.593-7.346,6.912-11.029c-0.383-0.429-0.961-0.667-1.709-0.667
			c-17.56,0.002-35.117,0.002-52.676,0.002c-1.529,0-2.303,0.775-2.303,2.307c-0.001,15.074,0.012,30.148-0.021,45.223
			c-0.004,1.422,0.751,2.469,2.412,2.469c0.006,0,0.013,0,0.019,0c4.268-0.021,8.53-0.025,12.796-0.025
			c4.46,0,8.922,0.006,13.382,0.006c0-0.002,0-0.004,0-0.006c4.551,0,9.099-0.006,13.646-0.006c4.199,0,8.396,0.006,12.596,0.027
			c0.007,0,0.014,0,0.021,0c1.643,0,2.394-1.117,2.377-2.377C765.188-43.152,765.222-46.891,765.222-50.627z M757.271-82.986
			c0.004,0,0.007,0,0.01,0c1.1,0.006,1.976,0.875,1.98,1.969c0.005,1.119-0.889,2.02-2.006,2.02c-1.077,0-1.973-0.893-1.979-1.975
			C755.267-82.092,756.154-82.986,757.271-82.986z M712.053-81.998c0.017-0.752,0.239-0.986,0.998-0.988
			c2.011-0.012,4.021-0.012,6.032-0.012c0.367,0,0.734,0,1.1,0c9.638,0.002,19.271,0.006,28.908,0.006
			c1.105,0,1.249,0.143,1.252,1.246c0.001,0.445,0.01,0.893,0.003,1.338c-0.012,0.732-0.266,0.998-0.995,1.002
			c-0.709,0.004-1.416,0.004-2.123,0.004c-0.884,0-1.769,0-2.651,0c-4.479,0-8.957,0-13.437,0c-5.941,0-11.887,0-17.827,0
			c-1.072,0-1.266-0.191-1.268-1.258C712.044-81.105,712.043-81.553,712.053-81.998z"/>
		<path d="M782.856-109.829c-0.04-0.178-0.081-0.358-0.117-0.539c-0.177,0.061-0.354,0.119-0.53,0.175
			c-0.713,0.229-1.449,0.466-1.708,0.869c-7.397,11.48-14.792,23.152-21.978,34.691c-0.579,0.93-1.158,2.268-0.63,3.366
			c0.494,1.026,1.867,1.714,3.978,1.997c0.078-0.077,0.165-0.16,0.258-0.248c0.413-0.393,0.927-0.881,1.234-1.454
			c6.313-11.778,13.061-24.411,19.607-36.985C783.186-108.365,783.019-109.109,782.856-109.829z"/>
		<path d="M749.246-55.564c-0.451-0.21-0.891-0.317-1.307-0.317c-1.709,0-2.734,1.766-3.296,3.247
			c-1.07,2.835-2.549,5.86-6.553,5.86c-0.257,0-0.522-0.012-0.798-0.037l0.016,0.293c0.6,0.194,1.193,0.401,1.789,0.608
			c1.517,0.526,3.082,1.071,4.649,1.374c3.623,0.698,6.765-1.004,8.284-4.468C753.376-52.072,752.543-54.034,749.246-55.564z"/>
		<path d="M758.521-63.802c0.418-0.627,0.83-1.25,1.243-1.863l-4.914-3.064c-0.331,0.738-0.667,1.473-1.004,2.208
			c-1.077,2.353-2.189,4.786-3.071,7.239c-0.223,0.616,0.321,2.063,0.97,2.582c0.016,0.009,0.116,0.042,0.321,0.042
			c0.678,0,1.668-0.352,1.926-0.685C755.617-59.432,757.094-61.654,758.521-63.802z"/>
	</g>
	<g>
		<path fill="#4BBA94" d="M761.054-105.74c0,2.408,0,5.051,0,7.713c2.687,0,5.275,0,7.719,0
			C766.181-100.615,763.56-103.234,761.054-105.74z"/>
		<path fill="#4BBA94" d="M713.313-79.402c5.94,0,11.886,0,17.827,0c4.479,0,8.956,0,13.437,0c0.884,0,1.769,0,2.651,0
			c0.707,0,1.414,0,2.123-0.004c0.729-0.004,0.983-0.27,0.995-1.002c0.007-0.445-0.002-0.893-0.003-1.338
			c-0.003-1.104-0.146-1.246-1.252-1.246c-9.637,0-19.271-0.004-28.908-0.006c-0.364,0-0.731,0-1.1,0c-2.011,0-4.021,0-6.032,0.012
			c-0.759,0.002-0.981,0.236-0.998,0.988c-0.01,0.445-0.009,0.893-0.008,1.338C712.047-79.594,712.239-79.402,713.313-79.402z"/>
		<path fill="#4BBA94" d="M757.256-78.998c1.117,0,2.011-0.9,2.006-2.02c-0.006-1.094-0.882-1.963-1.98-1.969
			c-0.003,0-0.006,0-0.011,0c-1.115,0-2.004,0.895-1.993,2.014C755.283-79.891,756.179-78.998,757.256-78.998z"/>
		<path fill="#4BBA94" d="M783.832-110.048c-0.082-0.362-0.164-0.725-0.2-1.063l-0.072-0.689l-0.631,0.286
			c-0.313,0.142-0.67,0.256-1.025,0.37c-0.88,0.284-1.79,0.576-2.242,1.279c-2.021,3.137-4.042,6.291-6.06,9.45h-0.001
			c-1.021,1.602-2.041,3.207-3.061,4.812c0-0.264,0-0.524,0-0.788c-3.736,0-7.402,0-11.209,0c0-3.859,0-7.596,0-11.365
			c-6.742,0-13.34,0-19.955,0c0,6.589,0,13.158,0,19.723h-2.725h-1.964h-1.06h-6.589h-0.004c0.412-0.437,0.701-0.965,0.89-1.559
			c0.036-0.113,0.05-0.218,0.044-0.313c-0.019-0.287-0.224-0.484-0.575-0.561c-0.018-0.004-0.034-0.002-0.053-0.005
			c-0.116-0.024-0.234-0.039-0.353-0.036c-0.02,0-0.037-0.007-0.057-0.005c-0.742,0.059-1.483,0.131-2.227,0.197
			c-0.293,0.025-0.368,0.03-0.397-0.125c-0.01-0.053-0.015-0.124-0.021-0.221c-0.004-0.057-0.006-0.111-0.009-0.172
			c0.075-0.033,0.148-0.061,0.218-0.096c0.084-0.043,0.213-0.072,0.241-0.141c0.188-0.449,0.543-0.75,0.896-1.051
			c0.361-0.309,0.59-0.684,0.713-1.143c0.116-0.434,0.265-0.859,0.388-1.291c0.008-0.027,0.003-0.064-0.009-0.1
			c-0.013-0.037-0.03-0.072-0.055-0.09c-0.742-0.615-1.49-1.225-2.242-1.826c-0.05-0.041-0.177-0.045-0.233-0.01
			c-0.363,0.232-0.758,0.346-1.185,0.316c-0.498-0.035-0.992-0.098-1.489-0.148c-1.068-0.107-1.813,0.037-2.179,1.357
			c-0.061,0.215-0.146,0.43-0.262,0.621c-0.445,0.742-1.158,1.129-1.949,1.385c-0.219,0.07-0.479,0.098-0.705,0.059
			c-0.516-0.087-0.804-0.42-0.948-0.859c-0.027-0.085-0.06-0.167-0.076-0.26c-0.084-0.439-0.118-0.893-0.131-1.342
			c-0.005-0.227-0.025-0.444-0.065-0.65c-0.121-0.62-0.429-1.135-1.064-1.489c-0.32-0.177-0.502-0.452-0.604-0.774
			c-0.035-0.108-0.062-0.221-0.081-0.337c-0.033-0.194-0.055-0.387-0.091-0.579c-0.001-0.001-0.001-0.003-0.001-0.005
			c-0.044-0.227-0.096-0.453-0.146-0.679c-0.025-0.123-0.045-0.247-0.077-0.368c-0.002-0.001-0.002-0.002-0.002-0.003
			c-0.027-0.107-0.152-0.264-0.245-0.271c-0.615-0.051-1.232-0.066-1.853-0.092c-0.017-0.002-0.035,0.012-0.067,0.023
			c0.001,0.001,0.003,0.003,0.004,0.004c0.044,0.049,0.082,0.091,0.14,0.154c-0.002,0-0.003,0-0.004,0c-0.339,0-0.645,0-0.953,0
			c0,0.059-0.002,0.109,0,0.156c0.033,0.568,0.07,1.137,0.096,1.705c0.009,0.16,0.015,0.332-0.03,0.48
			c-0.054,0.168-0.125,0.371-0.259,0.463c-0.223,0.156-0.215,0.33-0.174,0.545c0,0,0,0,0,0.001c0.104,0.542,0.432,0.953,0.781,1.354
			c0.303,0.35,0.623,0.691,0.889,1.068c0.164,0.233,0.253,0.48,0.304,0.732c0.072,0.366,0.05,0.744-0.068,1.125
			c-0.445,0-0.873-0.014-1.299,0.004c-0.773,0.033-1.375-0.291-1.865-0.859c-0.18-0.207-0.34-0.432-0.517-0.643
			c-0.429-0.52-1.138-0.713-1.752-0.48c-0.416,0.156-0.588,0.488-0.481,0.926c0,0,0.001,0.001,0.001,0.002
			c0.07,0.293,0.243,0.52,0.46,0.713c0.447,0.398,0.902,0.785,1.354,1.176c0.311,0.268,0.669,0.428,1.063,0.535
			c0.459,0.127,0.91,0.287,1.36,0.441c0.466,0.156,0.921,0.35,1.394,0.482c0.471,0.135,0.62,0.037,0.892-0.375
			c0.188-0.287,0.39-0.572,0.622-0.82c0.424-0.445,0.821-0.484,1.311-0.107c0.597,0.463,1.271,0.732,1.979,0.965
			c0.498,0.166,1,0.35,1.457,0.6c0.646,0.352,0.994,0.866,1.031,1.5c0.013,0.211-0.009,0.435-0.065,0.671
			c-0.011,0.041-0.019,0.081-0.026,0.121h-8.302c-2.066,0-3.303,1.236-3.303,3.307v7.669c-0.677-0.298-1.307-0.677-1.869-1.164
			c-0.109-0.096-0.236-0.176-0.359-0.258c-0.188-0.127-0.401-0.164-0.604-0.061c-0.473,0.246-0.967,0.467-1.393,0.777
			c-0.455,0.33-0.62,0.84-0.485,1.326c0.044,0.161,0.121,0.319,0.231,0.467c0.465,0.627,0.922,1.268,1.455,1.834
			c0.646,0.693,1.156,1.43,1.273,2.391c0.002,0.014,0.012,0.025,0.016,0.039c0.181,0.643,0.671,0.949,1.313,0.764
			c0.146-0.042,0.282-0.104,0.421-0.165c0,0.002,0,0.003,0,0.005c0.001,0.646,0.001,1.291,0.001,1.939
			c-0.558,0.1-1.081-0.019-1.576-0.364c-0.2-0.141-0.396-0.293-0.604-0.424c-1.25-0.789-2.353-1.732-3.201-2.961
			c-0.328-0.479-0.734-0.885-1.246-1.186c-0.225-0.131-0.547-0.059-0.688-0.338c-0.108-0.216-0.207-0.436-0.31-0.654
			c-0.014-0.03-0.027-0.06-0.042-0.09c-0.013-0.027-0.023-0.055-0.036-0.082c-0.07-0.153-0.142-0.308-0.188-0.467
			c-0.056-0.189-0.077-0.383-0.023-0.584c0.051-0.183,0.03-0.334-0.024-0.469c-0.059-0.137-0.153-0.256-0.255-0.371
			c-0.418-0.465-0.866-0.904-1.307-1.352c-0.078-0.08-0.172-0.145-0.258-0.215c0.001,0.002,0.002,0.003,0.002,0.005
			c0.082,0.246,0.2,0.459,0.299,0.681c0.102,0.225,0.18,0.457,0.27,0.689c-0.001,0-0.001,0-0.001,0
			c-0.396,0.031-0.636-0.038-0.976-0.295c-0.743-0.566-1.364-1.256-1.977-1.959c-0.375-0.429-0.623-0.916-0.782-1.445
			c-0.006-0.021-0.009-0.042-0.015-0.063c-0.045-0.156-0.085-0.315-0.114-0.478c-0.001-0.001-0.001-0.001-0.001-0.002
			c-0.141-0.764-0.053-1.512,0.113-2.26c0.096-0.426,0.104-0.833,0.012-1.211c-0.095-0.38-0.295-0.73-0.621-1.041
			c-0.309-0.293-0.666-0.537-1.016-0.781c-0.338-0.234-0.629-0.494-0.779-0.889c-0.034-0.082-0.084-0.156-0.145-0.27
			c-0.055,0.104-0.096,0.176-0.131,0.242c-2.265,4.781-2.901,9.781-1.882,14.961l0,0c0.11,0.56,0.247,1.105,0.393,1.646
			c0.027,0.104,0.046,0.214,0.075,0.317c1.258,4.487,3.7,8.306,7.354,11.374c2.945,2.473,6.178,4.06,9.675,4.786
			c0,0.001,0,0.003,0,0.005c0,0.594-0.001,1.189-0.001,1.784c-0.004,4.479-0.009,8.96-0.019,13.414
			c-0.003,1.045,0.321,1.928,0.938,2.545c0.422,0.422,1.191,0.926,2.474,0.926c4.288-0.021,8.551-0.025,12.813-0.025l6.69,0.002
			l6.689,0.004h1v-0.006c1.941,0,3.884-0.002,5.824-0.002c2.273-0.002,4.547-0.004,6.821-0.004c5.051,0,8.935,0.01,12.591,0.027
			c1.021,0,1.871-0.324,2.48-0.941c0.604-0.615,0.934-1.484,0.921-2.447c-0.035-2.635-0.028-5.318-0.021-7.914
			c0.003-1.096,0.006-2.189,0.006-3.285v-5.719c0-2.073-0.001-4.145-0.001-6.217c0-1.564-0.001-3.129-0.001-4.693
			c-0.001-2.307-0.001-4.614-0.002-6.92c1.427-2.663,2.87-5.363,4.325-8.091c1.571-2.945,3.153-5.919,4.742-8.916
			c0,0,0-0.001,0.001-0.001c2.861-5.398,5.736-10.856,8.575-16.308C784.242-108.226,784.033-109.152,783.832-110.048z
			 M707.014-67.255c0,3.082,0,6.177-0.001,9.284c-0.241-0.887-0.481-1.772-0.78-2.642c-0.184-0.531-0.141-0.547-0.705-0.609
			c-0.453-0.049-0.781-0.254-0.906-0.721c-0.076-0.28-0.162-0.559-0.237-0.84c-0.025-0.099-0.057-0.196-0.077-0.296
			c-0.313-1.508,0.139-2.598,1.408-3.461c0.415-0.281,0.852-0.515,1.3-0.719C707.014-67.259,707.014-67.257,707.014-67.255z
			 M765.222-50.627c0,3.736-0.034,7.475,0.017,11.211c0.017,1.26-0.734,2.377-2.377,2.377c-0.009,0-0.015,0-0.021,0
			c-4.198-0.021-8.396-0.027-12.596-0.027c-4.549,0-9.098,0.006-13.646,0.006c0,0.002,0,0.004,0,0.006
			c-4.46,0-8.922-0.006-13.382-0.006c-4.266,0-8.529,0.004-12.796,0.025c-0.006,0-0.013,0-0.019,0c-1.661,0-2.416-1.047-2.412-2.469
			c0.032-15.074,0.021-30.148,0.021-45.223c0-1.531,0.772-2.307,2.302-2.307c17.56,0,35.117,0,52.677-0.002
			c0.748,0,1.325,0.237,1.709,0.667c-2.319,3.683-4.629,7.362-6.912,11.029c-15.283,0-30.522,0-45.763,0c0,11.451,0,22.861,0,34.264
			c16.426,0,32.802,0,49.198,0c0-9.105,0-18.183,0-27.287c0.252,0.044,0.507,0.086,0.777,0.117l0.257,0.03l0.173-0.193
			c0.101-0.111,0.235-0.238,0.388-0.383c0.44-0.418,1.045-0.991,1.428-1.706c0.322-0.601,0.648-1.212,0.974-1.817
			C765.22-65.086,765.221-57.856,765.222-50.627z M752.032-49.003c-1.521,3.463-4.661,5.166-8.284,4.468
			c-1.567-0.303-3.134-0.848-4.649-1.374c-0.596-0.207-1.189-0.414-1.789-0.608l-0.016-0.293c0.274,0.025,0.541,0.037,0.798,0.037
			c4.004,0,5.481-3.025,6.553-5.86c0.562-1.481,1.588-3.247,3.297-3.247c0.414,0,0.854,0.106,1.306,0.317
			C752.543-54.034,753.376-52.072,752.032-49.003z M758.521-63.802c-1.429,2.148-2.904,4.37-4.529,6.459
			c-0.258,0.333-1.248,0.685-1.926,0.685c-0.205,0-0.307-0.034-0.321-0.042c-0.647-0.519-1.191-1.966-0.97-2.582
			c0.882-2.453,1.994-4.886,3.071-7.239c0.337-0.734,0.673-1.469,1.005-2.208l4.913,3.064
			C759.354-65.052,758.939-64.43,758.521-63.802z M782.972-107.956c-6.548,12.574-13.294,25.207-19.607,36.985
			c-0.309,0.573-0.821,1.061-1.234,1.454c-0.093,0.088-0.18,0.17-0.258,0.248c-2.109-0.283-3.482-0.971-3.978-1.997
			c-0.528-1.098,0.051-2.436,0.63-3.366c7.186-11.539,14.58-23.21,21.978-34.691c0.259-0.402,0.995-0.639,1.708-0.869
			c0.176-0.057,0.354-0.114,0.53-0.175c0.036,0.18,0.077,0.361,0.117,0.539C783.019-109.109,783.186-108.365,782.972-107.956z"/>
	</g>
</g>
</svg>
