<?xml version="1.0" encoding="utf-8"?>
<!-- Generator: Adobe Illustrator 16.0.3, SVG Export Plug-In . SVG Version: 6.00 Build 0)  -->
<!DOCTYPE svg PUBLIC "-//W3C//DTD SVG 1.1//EN" "http://www.w3.org/Graphics/SVG/1.1/DTD/svg11.dtd">
<svg version="1.1"
	 id="svg2" xmlns:rdf="http://www.w3.org/1999/02/22-rdf-syntax-ns#" xmlns:cc="http://creativecommons.org/ns#" xmlns:svg="http://www.w3.org/2000/svg" xmlns:dc="http://purl.org/dc/elements/1.1/" xmlns:inkscape="http://www.inkscape.org/namespaces/inkscape" xmlns:sodipodi="http://sodipodi.sourceforge.net/DTD/sodipodi-0.dtd" sodipodi:docname="dibujo.svg" inkscape:version="0.48.4 r"
	 xmlns="http://www.w3.org/2000/svg" xmlns:xlink="http://www.w3.org/1999/xlink" x="0px" y="0px" width="52px" height="52px"
	 viewBox="893.665 -39.894 52 52" enable-background="new 893.665 -39.894 52 52" xml:space="preserve">
<sodipodi:namedview  id="base" showgrid="false" borderopacity="1.0" bordercolor="#666666" inkscape:cy="100.36547" inkscape:cx="471.00049" inkscape:zoom="1.8757812" pagecolor="#ffffff" inkscape:pageopacity="0.0" inkscape:document-units="px" inkscape:pageshadow="2" inkscape:window-y="-8" inkscape:current-layer="layer1" inkscape:window-width="1440" inkscape:window-height="878" inkscape:window-x="-8" inkscape:window-maximized="1">
	</sodipodi:namedview>
<g>
	<path fill="none" d="M919.082-13.307l0.198,0.137c0.353,0.238,0.718,0.359,1.091,0.359c0.549,0,1.109-0.279,1.428-0.713
		c0.523-0.709,0.455-1.709-0.157-2.328c-0.338-0.344-0.792-0.531-1.275-0.531c-0.38,0-0.744,0.117-1.054,0.338
		c-0.545,0.391-1.127,1.426-0.366,2.537L919.082-13.307z"/>
	<path fill="#4BBA94" d="M939.681-28.057c-1.446-1.947-3.214-3.582-5.047-5.152c-1.267-1.082-2.622-2.033-4.124-2.764
		c-0.055-0.025-0.1-0.045-0.143-0.045c-0.051,0-0.1,0.025-0.156,0.094c-0.67,0.762-1.328,1.533-2.03,2.264
		c-2.705,2.816-5.668,5.328-8.996,7.377c-2.017,1.24-4.074,2.41-6.138,3.572c-2.609,1.471-5.243,2.91-7.997,4.107
		c-0.06,0.027-0.117,0.129-0.12,0.197c-0.008,0.193,0.017,0.387,0.021,0.582c0.083,3.1-0.37,6.133-1.146,9.123
		c-1.018,3.922-2.519,7.66-4.381,11.25c-0.767,1.477-1.632,2.902-2.449,4.354c-0.053,0.094-0.104,0.141-0.198,0.141
		c-0.023,0-0.05-0.002-0.078-0.008c-0.172-0.031-0.35-0.047-0.525-0.047c-0.047,0-0.093,0.002-0.138,0.004
		c-0.682,0.027-1.107,0.359-1.329,1.004c-0.009,0.023-0.025,0.047-0.039,0.068c0,0.166,0,0.334,0,0.5
		c0.179,0.365,0.354,0.732,0.538,1.094c0.035,0.072,0.099,0.129,0.138,0.18c7.6-7.6,15.188-15.188,22.777-22.779
		c-1.05-1.537-0.408-3.184,0.611-3.914c0.489-0.352,1.063-0.523,1.635-0.523c0.723,0,1.444,0.279,1.987,0.828
		c0.967,0.975,1.066,2.52,0.252,3.625c-0.47,0.639-1.301,1.117-2.232,1.117c-0.534,0-1.101-0.156-1.652-0.531
		c-7.591,7.59-15.18,15.178-22.774,22.775c0.354,0.318,0.793,0.525,1.265,0.672c0.166,0,0.334,0,0.5,0
		c0.036-0.018,0.072-0.037,0.111-0.051c0.532-0.174,0.854-0.541,0.932-1.092c0.037-0.264,0.035-0.541-0.002-0.805
		c-0.029-0.203,0.016-0.305,0.189-0.41c4.609-2.83,9.479-5.08,14.688-6.555c3-0.85,6.045-1.383,9.155-1.383
		c0.457,0,0.915,0.014,1.374,0.035c0.008,0,0.019,0,0.025,0c0.104,0,0.159-0.035,0.208-0.143c0.342-0.758,0.678-1.523,1.048-2.268
		c1.832-3.689,3.875-7.264,5.972-10.807c2.729-4.611,6.19-8.6,10.27-12.063c0.114-0.098,0.138-0.17,0.068-0.309
		C941.17-25.914,940.459-27.006,939.681-28.057z"/>
	<path d="M941.938-25.609c-0.438-0.926-1.01-1.863-1.797-2.951c-1.32-1.826-2.991-3.381-4.451-4.658
		c-1.547-1.354-2.915-2.289-4.311-2.947c-0.401-0.189-0.699-0.481-0.891-0.833c-0.042-0.005-0.075-0.018-0.121-0.018
		c-0.241,0-0.595,0.076-0.906,0.432l-0.38,0.434c-0.523,0.602-1.066,1.221-1.62,1.797c-2.85,2.965-5.728,5.326-8.8,7.217
		c-2.006,1.234-4.03,2.385-6.104,3.553c-2.338,1.318-5.068,2.828-7.905,4.063c-0.406,0.182-0.7,0.619-0.721,1.07
		c-0.008,0.156,0.001,0.313,0.012,0.471c0.004,0.061,0.008,0.119,0.009,0.18c0.074,2.777-0.29,5.672-1.113,8.848
		c-0.961,3.703-2.366,7.313-4.302,11.041c-0.51,0.98-1.078,1.965-1.628,2.918c-0.188,0.328-0.379,0.656-0.566,0.986
		c-0.057-0.004-0.111-0.004-0.17-0.004c-0.062,0-0.121,0-0.182,0.004c-1.052,0.045-1.829,0.607-2.199,1.59l-0.005,0.008
		l-0.121,0.223v0.252v0.5v0.232l0.103,0.207l0.096,0.197c0.147,0.303,0.296,0.607,0.449,0.908c0.07,0.145,0.161,0.254,0.221,0.322
		l-0.042,0.041l0.26,0.234l0.497,0.633l0.1-0.098c0.414,0.352,0.927,0.619,1.563,0.818l0.146,0.045h0.151h0.5h0.22l0.198-0.09
		l0.013-0.006l0.034-0.016c0.871-0.305,1.44-0.988,1.568-1.889c0.031-0.227,0.043-0.461,0.033-0.695
		c4.688-2.846,9.313-4.893,14.127-6.254c3.194-0.902,6.102-1.344,8.883-1.344c0.442,0,0.887,0.012,1.322,0.035h0.024h0.053
		c0.5,0,0.906-0.266,1.118-0.729l0.163-0.367c0.278-0.621,0.565-1.26,0.868-1.869c1.933-3.891,4.085-7.613,5.938-10.742
		c2.584-4.365,5.967-8.338,10.055-11.809c0.34-0.287,0.489-0.663,0.448-1.055C942.422-24.915,942.129-25.208,941.938-25.609z
		 M941.68-24.432c-4.078,3.463-7.539,7.451-10.269,12.063c-2.097,3.543-4.14,7.117-5.972,10.807c-0.37,0.744-0.706,1.51-1.049,2.268
		c-0.049,0.107-0.104,0.143-0.208,0.143c-0.008,0-0.018,0-0.024,0c-0.459-0.021-0.917-0.035-1.374-0.035
		c-3.11,0-6.155,0.533-9.155,1.383C908.418,3.67,903.55,5.92,898.939,8.75c-0.176,0.105-0.22,0.207-0.189,0.41
		c0.037,0.264,0.039,0.541,0.002,0.805c-0.077,0.551-0.398,0.918-0.932,1.092c-0.039,0.014-0.075,0.033-0.111,0.051
		c-0.166,0-0.334,0-0.5,0c-0.472-0.146-0.91-0.354-1.265-0.672C903.54,2.838,911.129-4.75,918.72-12.34
		c0.552,0.375,1.118,0.531,1.652,0.531c0.933,0,1.764-0.479,2.231-1.117c0.815-1.105,0.716-2.65-0.252-3.625
		c-0.543-0.549-1.265-0.828-1.986-0.828c-0.57,0-1.146,0.172-1.636,0.523c-1.02,0.73-1.66,2.377-0.61,3.914
		c-7.591,7.592-15.18,15.18-22.777,22.779c-0.039-0.051-0.103-0.107-0.138-0.18c-0.185-0.361-0.359-0.729-0.538-1.094
		c0-0.166,0-0.334,0-0.5c0.014-0.021,0.03-0.045,0.039-0.068c0.222-0.645,0.646-0.977,1.329-1.004
		c0.045-0.002,0.091-0.004,0.138-0.004c0.177,0,0.354,0.016,0.525,0.047c0.028,0.006,0.055,0.008,0.078,0.008
		c0.095,0,0.146-0.047,0.198-0.141c0.817-1.451,1.684-2.877,2.449-4.354c1.862-3.59,3.363-7.328,4.381-11.25
		c0.775-2.99,1.229-6.023,1.146-9.123c-0.005-0.195-0.028-0.389-0.021-0.582c0.003-0.068,0.062-0.17,0.12-0.197
		c2.754-1.197,5.387-2.637,7.997-4.107c2.063-1.162,4.121-2.332,6.138-3.572c3.328-2.049,6.291-4.561,8.996-7.377
		c0.702-0.73,1.36-1.502,2.03-2.264c0.058-0.068,0.104-0.094,0.156-0.094c0.043,0,0.088,0.02,0.143,0.045
		c1.502,0.73,2.857,1.682,4.124,2.764c1.833,1.57,3.6,3.205,5.047,5.152c0.778,1.051,1.489,2.143,2.068,3.316
		C941.817-24.602,941.795-24.529,941.68-24.432z M919.313-16.045c0.31-0.221,0.674-0.338,1.054-0.338
		c0.483,0,0.938,0.188,1.275,0.531c0.612,0.619,0.682,1.619,0.157,2.328c-0.318,0.434-0.879,0.713-1.428,0.713
		c-0.373,0-0.738-0.121-1.091-0.359l-0.198-0.137l-0.137-0.201C918.186-14.619,918.768-15.654,919.313-16.045z"/>
	<path fill="#4BBA94" d="M944.604-26.102c0.019-0.043,0.043-0.084,0.063-0.127c0-0.139,0-0.277,0-0.416
		c-0.373-0.695-0.714-1.408-1.124-2.082c-1.361-2.234-3.105-4.145-5.042-5.895c-1.854-1.676-3.779-3.242-6.084-4.273
		c-0.139,0-0.276,0-0.417-0.002c-0.036,0.02-0.069,0.041-0.106,0.057c-0.387,0.15-0.612,0.432-0.639,0.846
		c-0.024,0.422,0.168,0.744,0.551,0.924c1.68,0.793,3.151,1.883,4.542,3.1c1.68,1.471,3.289,3.008,4.604,4.824
		c0.713,0.986,1.368,2.006,1.89,3.109c0.171,0.359,0.464,0.553,0.854,0.553c0.017,0,0.03,0,0.048,0
		C944.154-25.5,944.442-25.719,944.604-26.102z"/>
	<path d="M945.547-27.119c-0.114-0.215-0.228-0.432-0.34-0.65c-0.252-0.484-0.513-0.988-0.813-1.479
		c-1.271-2.088-2.98-4.088-5.226-6.115c-1.823-1.648-3.854-3.33-6.346-4.445l-0.193-0.086h-0.215h-0.417h-0.241l-0.216,0.109
		l-0.012,0.006l-0.04,0.021c-0.734,0.299-1.188,0.918-1.234,1.701c-0.024,0.388,0.063,0.746,0.232,1.057
		c0.19,0.353,0.488,0.645,0.891,0.833c1.395,0.658,2.764,1.594,4.31,2.947c1.46,1.277,3.131,2.832,4.452,4.658
		c0.787,1.088,1.357,2.025,1.797,2.951c0.191,0.402,0.484,0.694,0.837,0.885c0.273,0.148,0.58,0.24,0.922,0.24h0.02l0.068-0.002
		c0.79-0.031,1.428-0.477,1.742-1.227l0.002-0.006l0.029-0.055l0.108-0.215v-0.242v-0.416v-0.252L945.547-27.119z M943.694-25.484
		c-0.392,0-0.685-0.193-0.854-0.553c-0.521-1.104-1.177-2.123-1.89-3.109c-1.314-1.816-2.925-3.354-4.604-4.824
		c-1.391-1.217-2.862-2.307-4.542-3.1c-0.383-0.18-0.576-0.502-0.551-0.924c0.025-0.414,0.252-0.695,0.639-0.846
		c0.037-0.016,0.07-0.037,0.106-0.057c0.141,0.002,0.278,0.002,0.417,0.002c2.305,1.031,4.229,2.598,6.084,4.273
		c1.937,1.75,3.681,3.66,5.042,5.895c0.41,0.674,0.751,1.387,1.124,2.082c0,0.139,0,0.277,0,0.416
		c-0.021,0.043-0.045,0.084-0.063,0.127c-0.16,0.383-0.448,0.602-0.86,0.617C943.727-25.484,943.711-25.484,943.694-25.484z"/>
</g>
</svg>
