<?xml version="1.0" encoding="utf-8"?>
<!-- Generator: Adobe Illustrator 16.0.3, SVG Export Plug-In . SVG Version: 6.00 Build 0)  -->
<!DOCTYPE svg PUBLIC "-//W3C//DTD SVG 1.1//EN" "http://www.w3.org/Graphics/SVG/1.1/DTD/svg11.dtd">
<svg version="1.1"
	 id="svg2" xmlns:rdf="http://www.w3.org/1999/02/22-rdf-syntax-ns#" xmlns:cc="http://creativecommons.org/ns#" xmlns:svg="http://www.w3.org/2000/svg" xmlns:dc="http://purl.org/dc/elements/1.1/" xmlns:inkscape="http://www.inkscape.org/namespaces/inkscape" xmlns:sodipodi="http://sodipodi.sourceforge.net/DTD/sodipodi-0.dtd" sodipodi:docname="dibujo.svg" inkscape:version="0.48.4 r"
	 xmlns="http://www.w3.org/2000/svg" xmlns:xlink="http://www.w3.org/1999/xlink" x="0px" y="0px" width="49.996px"
	 height="50.002px" viewBox="405.596 -74.299 49.996 50.002" enable-background="new 405.596 -74.299 49.996 50.002"
	 xml:space="preserve">
<sodipodi:namedview  id="base" showgrid="false" borderopacity="1.0" bordercolor="#666666" inkscape:cy="100.36547" inkscape:cx="471.00049" inkscape:zoom="1.8757812" pagecolor="#ffffff" inkscape:pageopacity="0.0" inkscape:document-units="px" inkscape:pageshadow="2" inkscape:window-y="-8" inkscape:current-layer="layer1" inkscape:window-width="1440" inkscape:window-height="878" inkscape:window-x="-8" inkscape:window-maximized="1">
	</sodipodi:namedview>
<g id="g3004" transform="translate(561.98666,863.72109)">
	<path id="path3006" inkscape:connector-curvature="0" fill="#6093A5" d="M-156.391-896.42c0-11.066,0-22.135,0-33.201
		c0.032-0.088,0.079-0.176,0.092-0.268c0.574-3.914,3.247-6.881,7.084-7.854c0.404-0.105,0.814-0.188,1.221-0.277
		c11.067,0,22.136,0,33.201,0c0.089,0.031,0.176,0.08,0.269,0.092c3.913,0.574,6.88,3.246,7.854,7.084
		c0.104,0.404,0.187,0.814,0.276,1.223c0,11.066,0,22.135,0,33.201c-0.034,0.121-0.083,0.24-0.104,0.363
		c-0.563,3.975-3.64,7.225-7.611,7.846c-1.497,0.232-3.046,0.18-4.572,0.182c-9.385,0.014-18.771,0.014-28.157,0.006
		c-4.547-0.004-8.17-2.83-9.29-7.221C-156.227-895.635-156.304-896.03-156.391-896.42z M-117.041-911.088
		c0.215-1.977,0.424-3.877,0.639-5.85c-1.803,0-3.547,0-5.243,0c0-1.441-0.027-2.824,0.011-4.203
		c0.021-0.77,0.454-1.248,1.238-1.334c0.899-0.1,1.813-0.092,2.724-0.113c0.563-0.018,1.126-0.006,1.698-0.006
		c0-1.961,0-3.857,0-5.766c-0.082-0.018-0.146-0.043-0.206-0.043c-2.293,0.018-4.588-0.008-6.879,0.07
		c-1.36,0.047-2.668,0.408-3.814,1.195c-1.709,1.178-2.394,2.926-2.547,4.887c-0.124,1.586-0.081,3.186-0.109,4.775
		c-0.003,0.172,0,0.346,0,0.57c-1.049,0-2.03,0-2.989,0c0,1.965,0,3.875,0,5.828c1.007,0,1.976,0,2.992,0c0,5.775,0,11.512,0,17.262
		c2.624,0,5.198,0,7.821,0c0-5.766,0-11.498,0-17.273C-120.138-911.088-118.615-911.088-117.041-911.088z"/>
</g>
</svg>
