<?xml version="1.0" encoding="utf-8"?>
<!-- Generator: Adobe Illustrator 16.0.3, SVG Export Plug-In . SVG Version: 6.00 Build 0)  -->
<!DOCTYPE svg PUBLIC "-//W3C//DTD SVG 1.1//EN" "http://www.w3.org/Graphics/SVG/1.1/DTD/svg11.dtd">
<svg version="1.1"
	 id="svg2" xmlns:rdf="http://www.w3.org/1999/02/22-rdf-syntax-ns#" xmlns:cc="http://creativecommons.org/ns#" xmlns:svg="http://www.w3.org/2000/svg" xmlns:dc="http://purl.org/dc/elements/1.1/" xmlns:inkscape="http://www.inkscape.org/namespaces/inkscape" xmlns:sodipodi="http://sodipodi.sourceforge.net/DTD/sodipodi-0.dtd" sodipodi:docname="dibujo.svg" inkscape:version="0.48.4 r"
	 xmlns="http://www.w3.org/2000/svg" xmlns:xlink="http://www.w3.org/1999/xlink" x="0px" y="0px" width="65.356px"
	 height="52.002px" viewBox="637.355 -189.829 65.356 52.002" enable-background="new 637.355 -189.829 65.356 52.002"
	 xml:space="preserve">
<sodipodi:namedview  id="base" showgrid="false" borderopacity="1.0" bordercolor="#666666" inkscape:cy="100.36547" inkscape:cx="471.00049" inkscape:zoom="1.8757812" pagecolor="#ffffff" inkscape:pageopacity="0.0" inkscape:document-units="px" inkscape:pageshadow="2" inkscape:window-y="-8" inkscape:current-layer="layer1" inkscape:window-width="1440" inkscape:window-height="878" inkscape:window-x="-8" inkscape:window-maximized="1">
	</sodipodi:namedview>
<g>
	<path fill="none" d="M673.448-177.592c-0.007-0.002-0.013-0.003-0.02-0.006C673.435-177.595,673.441-177.594,673.448-177.592
		C673.448-177.591,673.448-177.591,673.448-177.592z"/>
	<path fill="none" d="M672.88-173.476c0.013-0.008,0.021-0.02,0.034-0.028c-0.01,0.006-0.019,0.015-0.027,0.022
		C672.885-173.48,672.883-173.478,672.88-173.476z"/>
	<path fill="none" d="M675.935-170.532c-0.097,0.145-0.209,0.277-0.337,0.395C675.726-170.255,675.839-170.388,675.935-170.532z"/>
	<path fill="none" d="M647.112-169.768L647.112-169.768c0.041,0.007,0.082,0.009,0.122,0.013c-0.025,0.03-0.053,0.06-0.075,0.092
		c0.022-0.032,0.05-0.061,0.076-0.092C647.194-169.759,647.153-169.762,647.112-169.768z"/>
	<path fill="none" d="M672.487-173.46c-1.162-0.01-2.147-1.004-2.154-2.174C670.34-174.464,671.325-173.469,672.487-173.46z"/>
	<path fill="none" d="M647.804-173.593L647.804-173.593c-0.117-0.025-0.238-0.039-0.362-0.041
		C647.565-173.632,647.688-173.618,647.804-173.593z"/>
	<path fill="none" d="M647.41-172.635c-0.13,0-0.255,0.027-0.368,0.075c-0.25,0.105-0.444,0.317-0.53,0.576
		c0.086-0.258,0.28-0.468,0.529-0.574c0.113-0.049,0.238-0.075,0.368-0.075c0.006,0,0.012,0,0.018,0
		c0.51,0.007,0.926,0.431,0.926,0.943c0,0.126-0.026,0.248-0.074,0.36c0.048-0.112,0.075-0.234,0.075-0.362
		c0-0.511-0.416-0.935-0.927-0.943C647.422-172.635,647.416-172.635,647.41-172.635z"/>
	<path fill="none" d="M648.168-171.164c-0.031,0.044-0.052,0.094-0.089,0.133C648.116-171.069,648.137-171.12,648.168-171.164z"/>
	<path fill="none" d="M665.28-165.25c-0.213-0.26-0.406-0.536-0.6-0.812c0.193,0.276,0.387,0.552,0.6,0.813
		c0.509,0.62,1.101,1.168,1.676,1.772h0.001C666.382-164.079,665.789-164.628,665.28-165.25z"/>
	<polygon fill="none" points="675.957,-168.093 675.956,-168.093 675.962,-167.593 675.962,-167.677 	"/>
	<path fill="none" d="M672.971-171.732c-0.002,0.49,0.291,0.906,0.712,1.083c-0.42-0.178-0.712-0.593-0.71-1.082
		c0.004-0.645,0.517-1.154,1.163-1.154c0.324,0,0.613,0.126,0.822,0.333c-0.209-0.208-0.498-0.334-0.822-0.334
		C673.488-172.886,672.976-172.376,672.971-171.732z"/>
	<path fill="none" d="M650.502-174.613c0.029,0.064,0.035,0.139,0.049,0.211C650.537-174.474,650.531-174.548,650.502-174.613z"/>
	<path fill="none" d="M674.384-176.795c-0.002-0.001-0.004-0.002-0.005-0.003c-0.021-0.007-0.045-0.012-0.064-0.022
		C674.337-176.809,674.362-176.805,674.384-176.795z"/>
	<path fill="none" d="M674.314-176.82c-0.005-0.007-0.012-0.014-0.018-0.021c0,0-0.001-0.001-0.001-0.001
		C674.302-176.835,674.31-176.828,674.314-176.82z"/>
	<path fill="none" d="M648.749-169.46c-0.006,0-0.013,0-0.02,0c-0.267,0-0.501,0.102-0.669,0.27
		c0.168-0.167,0.402-0.269,0.668-0.269C648.735-169.459,648.742-169.459,648.749-169.46c0.518,0.01,0.921,0.424,0.919,0.942
		c-0.001,0.258-0.109,0.496-0.279,0.668c0.171-0.173,0.278-0.41,0.28-0.669C649.671-169.036,649.268-169.45,648.749-169.46z"/>
	<path fill="none" d="M673.425-177.64c0.012,0.019,0.021,0.04,0.032,0.058c0,0,0,0,0.001,0.001
		C673.446-177.599,673.438-177.621,673.425-177.64z"/>
	<path fill="none" d="M673.715-173.843L673.715-173.843c0.041-0.028,0.076-0.062,0.114-0.092
		C673.791-173.905,673.756-173.87,673.715-173.843z"/>
	<path fill="none" d="M672.501-176.817L672.501-176.817c0.013,0,0.021,0,0.032,0C672.522-176.817,672.514-176.817,672.501-176.817
		L672.501-176.817c-0.621-0.001-1.169,0.55-1.168,1.179c0.002,0.314,0.137,0.607,0.35,0.822c-0.212-0.215-0.346-0.507-0.349-0.821
		C671.333-176.266,671.882-176.817,672.501-176.817z"/>
	<path fill="none" d="M649.247-167.753c-0.15,0.106-0.322,0.184-0.516,0.184C648.925-167.569,649.097-167.646,649.247-167.753z"/>
	<path fill="none" d="M651.286-169.11c-0.003,0.404,0.227,0.738,0.566,0.88C651.514-168.372,651.283-168.706,651.286-169.11z"/>
	<path fill="none" d="M650.562-172.518c-0.003,0.001-0.006,0.003-0.008,0.004c0.021-0.012,0.049-0.017,0.069-0.03c0,0,0,0,0-0.001
		C650.604-172.533,650.581-172.527,650.562-172.518z"/>
	<path fill="none" d="M653.961-173.792C653.962-173.792,653.962-173.792,653.961-173.792c0.057,0.058,0.101,0.123,0.148,0.186
		c0.03,0.04,0.066,0.076,0.094,0.119c0.106,0.166,0.179,0.348,0.231,0.537c0.051,0.182,0.084,0.369,0.08,0.559
		c0,0.006-0.002,0.012-0.003,0.018c-0.001,0-0.001,0.001-0.001,0.001c0.002-0.007,0.005-0.012,0.005-0.02
		c0.012-0.515-0.189-1.025-0.553-1.4c-0.364-0.375-0.871-0.592-1.389-0.594h-0.002C653.091-174.384,653.599-174.167,653.961-173.792
		L653.961-173.792z"/>
	<path fill="none" d="M651.621-172.423c0.009,0.516,0.425,0.922,0.944,0.922C652.047-171.501,651.631-171.907,651.621-172.423z"/>
	<path fill="none" d="M653.515-172.417c0.014-0.521-0.42-0.967-0.944-0.969C653.095-173.384,653.528-172.938,653.515-172.417z"/>
	<path fill="none" d="M651.853-169.964c0.11-0.046,0.233-0.072,0.363-0.072h-0.001C652.085-170.036,651.962-170.01,651.853-169.964
		c-0.252,0.104-0.442,0.313-0.523,0.575C651.41-169.652,651.602-169.86,651.853-169.964z"/>
	<path fill="none" d="M651.42-170.868c-0.023-0.017-0.042-0.04-0.063-0.058C651.379-170.907,651.396-170.885,651.42-170.868
		c-0.04,0.018-0.074,0.045-0.112,0.066C651.345-170.822,651.38-170.85,651.42-170.868z"/>
	<path fill="none" d="M650.621-172.417c0-0.048,0.009-0.094,0.012-0.141l0,0C650.63-172.511,650.621-172.465,650.621-172.417z"/>
	<path fill="none" d="M650.601-168.033c0.001,0.002,0.001,0.006,0.003,0.007c-0.017,0.063-0.041,0.122-0.064,0.183
		c0.023-0.06,0.048-0.119,0.065-0.183c-0.002-0.003-0.002-0.006-0.004-0.009C650.601-168.034,650.601-168.033,650.601-168.033z"/>
	<polygon fill="none" points="654.511,-172.371 654.511,-172.373 654.512,-172.374 	"/>
	<path fill="none" d="M648.884-170.446c0.038,0.003,0.074,0.008,0.11,0.013c-0.004,0-0.008-0.001-0.012-0.002
		C648.95-170.439,648.918-170.444,648.884-170.446C648.884-170.447,648.884-170.447,648.884-170.446z"/>
	<path fill="none" d="M649.255-172.315c-0.006-0.001-0.011-0.004-0.017-0.005c0,0,0,0,0,0
		C649.244-172.319,649.248-172.316,649.255-172.315L649.255-172.315z"/>
	<path fill="none" d="M650.224-176.907L650.224-176.907c3.196,0.008,5.816,2.645,5.822,5.859c0.007,3.228-2.628,5.876-5.846,5.877
		l0,0c3.219,0,5.852-2.649,5.847-5.877C656.04-174.262,653.42-176.899,650.224-176.907z"/>
	<path fill="none" d="M648.899-170.453c0.001,0,0.002,0,0.003,0c0.024-0.031,0.044-0.066,0.068-0.098
		c-0.004,0.005-0.008,0.009-0.012,0.014C648.939-170.508,648.923-170.479,648.899-170.453z"/>
	<path fill="none" d="M664.623-164.476c-0.039-0.045-0.078-0.092-0.115-0.141c-0.356-0.431-0.665-0.885-0.965-1.324
		c-0.082-0.119-0.164-0.24-0.246-0.359c-0.368,0.069-0.73,0.139-1.084,0.213c-0.204,0.552-0.444,1.088-0.721,1.611H664.623z"/>
	<polygon fill="none" points="651.488,-174.813 651.488,-174.813 651.488,-174.813 	"/>
	<path fill="none" d="M650.769-175.791c-0.119-0.086-0.242-0.168-0.379-0.226c-0.003-0.001-0.006-0.003-0.009-0.005
		c0.141,0.059,0.268,0.143,0.391,0.233C650.771-175.789,650.77-175.79,650.769-175.791z"/>
	<path fill="none" d="M650.384-169.687c0.001-0.004,0.003-0.008,0.004-0.012c-0.011,0.035-0.028,0.065-0.038,0.101
		C650.358-169.63,650.373-169.657,650.384-169.687z"/>
	<path fill="none" d="M649.259-172.252c-0.007-0.02-0.004-0.043-0.01-0.063h-0.001C649.255-172.295,649.252-172.272,649.259-172.252
		z"/>
	<path fill="none" d="M650.584-174.257c0.017,0.526-0.407,0.977-0.928,0.983c-0.005,0-0.01,0-0.014,0
		c-0.509,0-0.951-0.443-0.948-0.956v0c-0.003,0.514,0.439,0.957,0.948,0.957c0.004,0,0.009,0,0.014,0
		C650.177-173.28,650.601-173.731,650.584-174.257L650.584-174.257z"/>
	<path fill="none" d="M678.88-177.729c-0.642,0-1.153,0.505-1.16,1.15C677.727-177.223,678.238-177.729,678.88-177.729z"/>
	<path fill="none" d="M694.79-160.742c-0.037,0.022-0.083,0.034-0.123,0.052C694.707-160.708,694.753-160.719,694.79-160.742
		L694.79-160.742z"/>
	<polygon fill="none" points="677.342,-178.091 677.327,-178.079 677.34,-178.089 	"/>
	<path fill="none" d="M701.708-145.205c0.001,0,0.001,0,0.002,0.001c0-6.596,0-13.143,0-19.729h-0.001c-0.001,0-0.001,0-0.002,0.001
		h0.001C701.708-158.347,701.708-151.801,701.708-145.205z"/>
	<path fill="none" d="M678.884-175.395c-0.652,0-1.174-0.526-1.164-1.184C677.71-175.92,678.231-175.395,678.884-175.395z"/>
	<path fill="none" d="M677.438-178.82c0.004,0.14-0.01,0.277-0.03,0.41C677.429-178.544,677.442-178.68,677.438-178.82
		L677.438-178.82z"/>
	<path fill="none" d="M690.376-175.563c0.323,4.692-1.318,8.625-4.774,11.809c-0.087,0.08-0.17,0.166-0.332,0.324
		c0.001,0,0.003,0,0.004,0c0.161-0.157,0.244-0.243,0.331-0.323c3.456-3.184,5.097-7.118,4.775-11.809
		c-0.426-6.151-4.697-11.256-10.664-12.805c-0.001,0-0.001,0-0.002,0C685.681-186.818,689.95-181.713,690.376-175.563z"/>
	<path fill="none" d="M676.85-177.284c-0.006,0.017-0.011,0.035-0.017,0.052c0.006-0.018,0.011-0.036,0.018-0.054
		c-0.067,0.07-0.144,0.13-0.219,0.191c0.018-0.014,0.033-0.029,0.051-0.043C676.74-177.186,676.799-177.231,676.85-177.284z"/>
	<path fill="none" d="M676.831-177.264c-0.008,0.025-0.006,0.053-0.013,0.078c0,0,0,0,0-0.001
		C676.825-177.212,676.823-177.241,676.831-177.264L676.831-177.264z"/>
	<path fill="none" d="M688.367-138.83c-13.692,0-27.354,0-41.057,0c0,0,0,0,0,0.001c13.705,0,27.366,0,41.063,0.002
		c0-8.184,0-16.377,0-24.602c-0.001,0-0.002,0-0.003,0C688.37-155.206,688.37-147.012,688.367-138.83z"/>
	<path fill="none" d="M675.985-182.079L675.985-182.079c3.973,0.01,7.185,3.26,7.174,7.261c-0.009,4.001-3.22,7.225-7.196,7.225l0,0
		l0,0h-0.001c-0.004,0-0.009,0-0.014,0c0.005,0,0.011,0,0.016,0.001c3.976,0,7.188-3.223,7.197-7.225
		C683.171-178.819,679.959-182.069,675.985-182.079z"/>
	<path fill="none" d="M684.287-141.189c-0.001,0-0.002,0-0.003,0c-0.704,0-1.308-0.619-1.288-1.323l0,0
		c-0.02,0.705,0.584,1.324,1.288,1.324C684.285-141.188,684.286-141.188,684.287-141.189c0.52,0.001,0.981-0.332,1.181-0.793
		C685.268-141.522,684.806-141.189,684.287-141.189z"/>
	<path fill="none" d="M675.249-179.936c-0.633,0.008-1.158,0.541-1.152,1.172C674.093-179.395,674.616-179.928,675.249-179.936z"/>
	<path fill="none" d="M675.304-177.602c0.636-0.02,1.151-0.561,1.135-1.193C676.454-178.163,675.939-177.622,675.304-177.602z"/>
	<path fill="none" d="M650.299-174.902c0.021,0.021,0.031,0.049,0.051,0.072C650.33-174.853,650.319-174.882,650.299-174.902z"/>
	<path fill="none" d="M701.387-164.746c0.07-0.042,0.147-0.086,0.231-0.135C701.534-164.833,701.457-164.788,701.387-164.746z"/>
	<path fill="none" d="M678.909-173.506c0.051,0.021,0.089,0.063,0.137,0.09C678.998-173.444,678.96-173.485,678.909-173.506z"/>
	<path fill="none" d="M678.452-173.596c-0.643,0.002-1.168,0.517-1.172,1.154C677.284-173.078,677.81-173.594,678.452-173.596z"/>
	<path fill="none" d="M680.046-176.567c-0.002-0.641-0.517-1.158-1.158-1.162C679.528-177.725,680.044-177.208,680.046-176.567z"/>
	<path fill="none" d="M677.28-172.442c-0.004,0.631,0.522,1.166,1.156,1.174C677.804-171.276,677.276-171.811,677.28-172.442z"/>
	<path fill="none" d="M646.216-153.625c-0.246,0-0.488-0.002-0.731-0.012c-0.021-0.002-0.043-0.002-0.063-0.002
		c-0.28,0-0.478,0.088-0.591,0.369c-0.222,0.545-0.621,0.832-1.212,0.926c-0.071,0.012-0.134,0.02-0.189,0.02
		c0.002,0,0.003,0.001,0.004,0.001c0.054,0,0.117-0.008,0.188-0.02c0.591-0.094,0.99-0.381,1.212-0.926
		c0.113-0.281,0.311-0.369,0.592-0.369c0.02,0,0.041,0,0.063,0.002c0.243,0.01,0.486,0.012,0.732,0.012
		c0.354,0,0.714-0.006,1.088-0.006c0,0,0,0,0-0.001C646.933-153.631,646.57-153.625,646.216-153.625z"/>
	<path fill="none" d="M675.131-176.616c0.046,0.003,0.089,0.016,0.137,0.016c-0.045,0-0.086-0.012-0.13-0.016
		C675.136-176.616,675.134-176.616,675.131-176.616z"/>
	<polygon fill="none" points="650.198,-165.671 650.199,-165.171 650.199,-165.671 	"/>
	<path fill="none" d="M676.168-176.796c-0.255,0.116-0.537,0.185-0.834,0.194C675.632-176.611,675.913-176.68,676.168-176.796z"/>
	<path fill="none" d="M679.18-171.543c-0.203,0.163-0.451,0.275-0.729,0.275C678.729-171.268,678.977-171.38,679.18-171.543z"/>
	<path fill="none" d="M644.535-157.813c-0.487-0.171-0.957-0.435-1.44-0.622c-0.191-0.073-0.364-0.135-0.527-0.187
		c0.162,0.051,0.334,0.113,0.523,0.186C643.577-158.249,644.048-157.984,644.535-157.813z"/>
	<path fill="none" d="M659.659-177.566c0.249,0.334,0.436,0.844,0.762,0.961c0.001,0,0.002,0,0.003,0
		c-0.325-0.118-0.513-0.626-0.762-0.961c-1.43-1.925-3.329-3.319-5.455-4.093C656.331-180.884,658.229-179.491,659.659-177.566z"/>
	<path fill="none" d="M679.347-175.491c0.413-0.181,0.703-0.597,0.699-1.077C680.049-176.086,679.76-175.671,679.347-175.491z"/>
	<path fill="none" d="M679.667-170.641c0.119-0.08,0.231-0.173,0.335-0.277c0.411-0.416,0.636-0.961,0.63-1.539
		c0.006,0.578-0.219,1.122-0.63,1.538C679.898-170.814,679.786-170.721,679.667-170.641z"/>
	<path fill="none" d="M676.72-176.59L676.72-176.59c-0.008,0.587,0.215,1.139,0.623,1.554c0.209,0.209,0.451,0.37,0.717,0.479
		c0,0,0.001,0,0.002,0c-0.267-0.108-0.51-0.269-0.717-0.479C676.936-175.452,676.714-176.003,676.72-176.59z"/>
	<path fill="none" d="M646.627-159.208c0.115,0.039,0.22,0.088,0.338,0.124c-0.001,0-0.001,0-0.001,0
		C646.847-159.12,646.742-159.169,646.627-159.208z"/>
	<rect x="678.044" y="-174.559" fill="none" width="0.009" height="0.004"/>
	<path d="M691.745-149.584c0.746,0,1.491,0.004,2.236,0.016c0.311,0.006,0.656,0.096,0.922,0.254
		c2.143,1.282,4.273,2.59,6.408,3.887c0.119,0.075,0.244,0.137,0.396,0.222c0-6.596,0-13.142,0-19.727h-0.001
		c-0.032,0.019-0.059,0.034-0.089,0.051c-0.084,0.048-0.161,0.093-0.231,0.135c-0.029,0.017-0.06,0.034-0.087,0.051
		c-2.168,1.32-4.334,2.642-6.509,3.953l-0.001,0l-0.001,0c-0.036,0.022-0.082,0.034-0.122,0.052
		c-0.059,0.026-0.114,0.057-0.178,0.075c-0.108,0.03-0.22,0.048-0.325,0.049c-0.856,0.006-1.717,0.008-2.573,0.008
		c-0.74,0-1.479,0-2.221,0v10.978h0.001v0.001h0.001v-0.002C690.164-149.58,690.955-149.584,691.745-149.584z"/>
	<path fill="#FFFFFF" d="M702.708-166.665l-1.5,0.867l-0.144,0.082c-0.104,0.061-0.196,0.113-0.286,0.168l-1.548,0.941
		c-1.65,1.006-3.302,2.012-4.957,3.008c-0.023,0.014-0.084,0.033-0.119,0.033c-0.854,0.006-1.709,0.008-2.564,0.008h-1.151h-1.067v1
		c0.741,0,1.48,0,2.222,0c0.856,0,1.717-0.002,2.573-0.008c0.104-0.001,0.216-0.018,0.323-0.048
		c0.063-0.018,0.119-0.049,0.178-0.075c0.04-0.019,0.086-0.03,0.123-0.052l0.001,0c2.175-1.311,4.341-2.633,6.509-3.953
		c0.027-0.017,0.058-0.034,0.087-0.051c0.07-0.042,0.147-0.086,0.231-0.135c0.03-0.018,0.057-0.032,0.089-0.051
		c0.001,0,0.001,0,0.002-0.001h0.001c0,6.586,0,13.133,0,19.729c-0.001,0-0.001,0-0.002-0.001c-0.152-0.085-0.277-0.147-0.396-0.222
		c-2.135-1.297-4.266-2.605-6.408-3.887c-0.266-0.158-0.611-0.248-0.922-0.254c-0.745-0.012-1.49-0.016-2.236-0.016
		c-0.79,0-1.581,0.004-2.373,0.004v0.002v0.998l1.172-0.002l1.201-0.002c0.74,0,1.48,0.002,2.221,0.016
		c0.146,0.002,0.318,0.049,0.428,0.111c1.56,0.934,3.111,1.879,4.666,2.826l1.732,1.059c0.098,0.057,0.191,0.109,0.301,0.168
		l0.136,0.072l1.483,0.822v-1.697v-19.727L702.708-166.665z"/>
	<polygon points="650.199,-165.171 650.2,-165.171 650.2,-165.171 	"/>
	<polygon points="675.963,-167.593 675.963,-167.593 675.963,-167.593 	"/>
	<polygon points="675.962,-168.093 675.957,-168.093 675.962,-167.677 	"/>
	<path d="M688.37-163.429c-0.999,0-1.987,0-3.098,0c0,0,0.001,0,0.001-0.001c-0.001,0-0.003,0-0.004,0
		c0.162-0.158,0.245-0.244,0.332-0.324c3.456-3.184,5.098-7.117,4.774-11.809c-0.426-6.15-4.695-11.255-10.662-12.805
		c-0.726-0.189-1.481-0.264-2.221-0.393c-0.103-0.017-0.203-0.045-0.305-0.068c-0.688,0-1.376,0-2.061,0.002
		c-0.869,0.158-1.76,0.238-2.602,0.488c-5.604,1.662-9.047,5.369-10.343,11.066c-0.067,0.297-0.169,0.453-0.488,0.488
		c-0.349,0.039-0.732,0.215-1.052,0.215c-0.076,0-0.152-0.012-0.219-0.035c0,0,0,0-0.001,0c-0.001,0-0.002,0-0.003,0
		c-0.326-0.117-0.513-0.627-0.762-0.961c-1.43-1.924-3.328-3.318-5.452-4.092c-1.274-0.464-2.63-0.706-4.014-0.706
		c-0.964,0-1.941,0.117-2.915,0.357c-4.569,1.127-8.045,4.971-8.782,9.713c-0.044,0.285-0.093,0.57-0.14,0.857
		c0,0.634,0,1.269,0,1.904c0.154,0.764,0.242,1.545,0.467,2.285c1.225,4.041,3.854,6.71,7.804,8.041
		c0.115,0.039,0.22,0.088,0.337,0.124c0,0,0,0,0.001,0c0.001,0,0.002,0.001,0.003,0.001c0.306,0.096,0.398,0.215,0.375,0.514
		c-0.026,0.289-0.006,0.58-0.006,0.92c-0.478,0-0.951,0.037-1.416,0.037c-0.303,0-0.601-0.015-0.891-0.068
		c-0.168-0.03-0.332-0.077-0.495-0.134c-0.487-0.171-0.958-0.436-1.444-0.623c-0.189-0.073-0.361-0.134-0.523-0.186
		c-0.487-0.154-0.887-0.218-1.402-0.218c-0.289,0-0.612,0.02-1.009,0.055c0.039,0.103,0.067,0.199,0.11,0.291
		c0.938,1.966,1.884,3.931,2.813,5.902c0.097,0.203,0.191,0.266,0.35,0.267c0.056,0,0.118-0.008,0.189-0.02
		c0.591-0.094,0.99-0.381,1.212-0.926c0.113-0.281,0.311-0.369,0.591-0.369c0.021,0,0.042,0,0.063,0.002
		c0.243,0.01,0.485,0.012,0.731,0.012c0.354,0,0.717-0.006,1.092-0.006c0,0,0,0,0,0.001c0.001,0,0.002,0,0.003,0
		c0,4.942,0,9.855,0,14.8c13.703,0,27.364,0,41.057,0C688.37-147.012,688.37-155.206,688.37-163.429z M650.2-165.171L650.2-165.171
		h-0.002c-3.223,0-5.832-2.631-5.827-5.879c0.007-3.243,2.61-5.857,5.833-5.857h0.001h0.001c0.005,0,0.011,0,0.017,0h0.001
		c3.196,0.008,5.816,2.645,5.823,5.859C656.052-167.821,653.419-165.172,650.2-165.171z M666.957-163.475c-2.401,0-4.793,0-7.256,0
		c0.745-1.051,1.296-2.127,1.689-3.287c0.034-0.098,0.163-0.206,0.267-0.229c0.632-0.139,1.268-0.262,1.905-0.371
		c0.009-0.002,0.019-0.004,0.028-0.004c0.091,0,0.213,0.057,0.261,0.121c0.283,0.391,0.554,0.79,0.829,1.184
		c0.193,0.276,0.387,0.552,0.6,0.812C665.789-164.628,666.382-164.079,666.957-163.475L666.957-163.475
		C666.956-163.476,666.957-163.476,666.957-163.475z M675.964-167.592c-0.005-0.001-0.011-0.001-0.016-0.001h-0.001
		c-3.987-0.006-7.198-3.236-7.194-7.24c0-4.016,3.219-7.246,7.211-7.246c0.001,0,0.001,0,0.002,0c0.007,0,0.013,0,0.019,0h0.001
		c3.974,0.01,7.186,3.26,7.176,7.262C683.152-170.815,679.939-167.592,675.964-167.592z M684.287-141.188c-0.001,0-0.002,0-0.003,0
		c-0.704,0-1.308-0.619-1.288-1.324l0,0c0,0,0-0.001,0-0.001c0.018-0.692,0.605-1.27,1.283-1.271h0.001c0.006,0,0.014,0,0.021,0
		c0.696,0.014,1.277,0.609,1.272,1.306c-0.001,0.175-0.039,0.342-0.106,0.496C685.269-141.521,684.807-141.188,684.287-141.188z"/>
	<path fill="#FFFFFF" d="M689.37-149.579v-10.978v-0.001v-1v-1.871v-1h-1h-0.713c2.763-3.158,4.013-6.918,3.718-11.203
		c-0.451-6.543-5.037-12.049-11.41-13.703c-0.538-0.141-1.077-0.221-1.599-0.299c-0.233-0.035-0.469-0.07-0.702-0.111
		c-0.054-0.008-0.104-0.021-0.151-0.033l-0.101-0.023l-0.11-0.027h-0.113h-2.064h-0.091l-0.089,0.016
		c-0.265,0.049-0.531,0.09-0.799,0.131c-0.622,0.094-1.266,0.191-1.906,0.383c-5.866,1.742-9.56,5.635-10.979,11.576
		c-0.109,0.025-0.215,0.053-0.311,0.08c-0.04,0.012-0.089,0.023-0.136,0.037c-0.025-0.043-0.052-0.088-0.073-0.125
		c-0.09-0.15-0.181-0.301-0.277-0.432c-2.454-3.307-6.197-5.203-10.271-5.203c-1.055,0-2.116,0.131-3.155,0.389
		c-4.984,1.229-8.728,5.361-9.531,10.529c-0.029,0.201-0.063,0.4-0.097,0.6l-0.041,0.25l-0.014,0.08v0.082v1.906v0.1l0.021,0.096
		c0.047,0.234,0.086,0.469,0.127,0.703c0.096,0.547,0.191,1.111,0.362,1.676c1.198,3.957,3.659,6.738,7.323,8.291
		c-0.31-0.059-0.652-0.219-1.019-0.387c-0.236-0.111-0.477-0.221-0.719-0.314c-0.776-0.299-1.399-0.473-2.288-0.473
		c-0.3,0-0.638,0.02-1.097,0.061l-1.318,0.117l0.476,1.234l0.026,0.08c0.034,0.098,0.069,0.191,0.111,0.281l0.756,1.58
		c0.688,1.439,1.378,2.879,2.059,4.32c0.344,0.732,0.936,0.842,1.257,0.842c0.101,0,0.214-0.01,0.347-0.031
		c1.029-0.164,1.573-0.74,1.858-1.275c0.202,0.006,0.393,0.008,0.582,0.008l0.092-0.002v13.795v1h1h41.06h1v-1v-9.75L689.37-149.579
		L689.37-149.579L689.37-149.579z M688.373-138.827c-13.696-0.002-27.357-0.002-41.063-0.002c0,0,0,0,0-0.001
		c0-4.945,0-9.858,0-14.8c-0.001,0-0.002,0-0.003,0c-0.374,0-0.734,0.006-1.088,0.006c-0.246,0-0.489-0.002-0.732-0.012
		c-0.021-0.002-0.043-0.002-0.063-0.002c-0.281,0-0.479,0.088-0.592,0.369c-0.222,0.545-0.621,0.832-1.212,0.926
		c-0.071,0.012-0.135,0.02-0.188,0.02c-0.001,0-0.002-0.001-0.004-0.001c-0.158-0.001-0.253-0.064-0.35-0.267
		c-0.929-1.971-1.874-3.936-2.813-5.902c-0.043-0.092-0.071-0.188-0.11-0.291c0.396-0.035,0.72-0.055,1.009-0.055
		c0.516,0,0.915,0.063,1.402,0.218c0.163,0.052,0.336,0.113,0.527,0.187c0.483,0.188,0.953,0.451,1.44,0.622
		c0.163,0.057,0.327,0.104,0.495,0.134c0.29,0.053,0.588,0.068,0.891,0.068c0.465,0,0.938-0.037,1.416-0.037
		c0-0.34-0.021-0.631,0.006-0.92c0.023-0.299-0.069-0.418-0.375-0.514c-0.001,0-0.002-0.001-0.003-0.001
		c-0.118-0.036-0.223-0.085-0.338-0.124c-3.95-1.33-6.579-4-7.804-8.041c-0.225-0.74-0.313-1.521-0.467-2.285
		c0-0.635,0-1.27,0-1.904c0.047-0.287,0.096-0.572,0.14-0.857c0.737-4.742,4.213-8.586,8.782-9.713
		c0.974-0.24,1.951-0.357,2.915-0.357c1.384,0,2.739,0.242,4.014,0.706c2.126,0.774,4.025,2.168,5.455,4.093
		c0.249,0.334,0.437,0.843,0.762,0.961c0.001,0,0.001,0,0.001,0c0.066,0.023,0.143,0.035,0.219,0.035
		c0.319,0,0.703-0.176,1.052-0.215c0.319-0.035,0.421-0.191,0.488-0.488c1.296-5.697,4.739-9.404,10.343-11.066
		c0.842-0.25,1.732-0.33,2.602-0.488c0.685-0.002,1.372-0.002,2.061-0.002c0.102,0.023,0.202,0.051,0.305,0.068
		c0.739,0.129,1.495,0.203,2.221,0.393c0.001,0,0.001,0,0.002,0c5.967,1.549,10.238,6.654,10.664,12.805
		c0.321,4.691-1.319,8.625-4.775,11.809c-0.087,0.08-0.17,0.166-0.331,0.323c0,0-0.001,0-0.001,0.001c1.11,0,2.099,0,3.098,0
		c0.001,0,0.002,0,0.003,0C688.373-155.204,688.373-147.011,688.373-138.827z"/>
	<path fill="#FFFFFF" d="M664.681-166.061c-0.275-0.395-0.546-0.793-0.829-1.184c-0.048-0.064-0.17-0.121-0.261-0.121
		c-0.01,0-0.02,0.002-0.028,0.004c-0.638,0.109-1.273,0.232-1.905,0.371c-0.104,0.023-0.232,0.131-0.267,0.229
		c-0.394,1.16-0.944,2.236-1.689,3.287c2.463,0,4.854,0,7.256,0c0,0-0.001,0-0.001-0.001c-0.575-0.604-1.167-1.152-1.676-1.772
		C665.067-165.509,664.874-165.785,664.681-166.061z M662.213-166.087c0.354-0.074,0.716-0.144,1.084-0.213
		c0.082,0.119,0.164,0.24,0.246,0.359c0.3,0.439,0.608,0.893,0.965,1.324c0.037,0.049,0.076,0.096,0.115,0.141h-3.131
		C661.769-164.999,662.009-165.535,662.213-166.087z"/>
	<path fill="#FFFFFF" d="M684.302-143.784c-0.008,0-0.016,0-0.021,0h-0.001c-0.678,0.001-1.266,0.579-1.283,1.271c0,0,0,0,0,0.001
		c-0.02,0.705,0.584,1.323,1.288,1.323c0.001,0,0.002,0,0.003,0c0.519,0,0.98-0.333,1.181-0.793
		c0.067-0.154,0.105-0.321,0.106-0.496C685.579-143.175,684.998-143.77,684.302-143.784z"/>
	<path fill="#FFFFFF" d="M677.327-178.079c0.022-0.065,0.033-0.134,0.05-0.202c-0.019,0.076-0.038,0.151-0.063,0.225
		c0.009-0.011,0.017-0.022,0.026-0.033C677.336-178.086,677.331-178.083,677.327-178.079z"/>
	<path fill="#FFFFFF" d="M676.72-176.59C676.72-176.59,676.72-176.589,676.72-176.59c-0.009,0.589,0.215,1.14,0.623,1.556
		c0.207,0.207,0.445,0.369,0.709,0.476c0,0-0.001,0-0.001,0l0.001,0c-0.002,0-0.004,0.001-0.006,0.001
		c0.005,0,0.009-0.001,0.014-0.001c-0.266-0.109-0.508-0.27-0.717-0.479C676.935-175.452,676.712-176.003,676.72-176.59z"/>
	<path fill="#FFFFFF" d="M678.427-170.268c0,0,0,0-0.002,0c-1.189-0.016-2.15-0.993-2.145-2.18c0,0,0,0.001,0,0.002
		c-0.006,1.186,0.955,2.164,2.145,2.18c0.002,0,0.002,0,0.002,0c0.61,0,1.161-0.233,1.575-0.651
		c-0.104,0.104-0.216,0.197-0.335,0.277C679.309-170.399,678.885-170.268,678.427-170.268z"/>
	<path fill="#FFFFFF" d="M672.487-173.46c0.144,0,0.282-0.014,0.418-0.039c-0.007,0.005-0.013,0.012-0.019,0.017
		c0.009-0.007,0.018-0.016,0.027-0.022c-0.138,0.027-0.28,0.042-0.426,0.042c-1.162-0.01-2.147-1.004-2.154-2.174
		c0-0.283,0.06-0.564,0.169-0.826c-0.11,0.264-0.171,0.545-0.17,0.828C670.34-174.464,671.325-173.47,672.487-173.46z"/>
	<path fill="#FFFFFF" d="M674.14-169.557c-0.582,0-1.127-0.227-1.536-0.637c-0.409-0.412-0.634-0.959-0.631-1.543
		c0-0.021,0.006-0.041,0.007-0.062c-0.001,0.022-0.01,0.043-0.01,0.066c-0.003,0.582,0.223,1.131,0.632,1.541
		c0.409,0.412,0.954,0.637,1.536,0.637c0.567-0.008,1.078-0.229,1.46-0.582c0.128-0.118,0.24-0.25,0.337-0.395
		C675.55-169.955,674.895-169.569,674.14-169.557z"/>
	<path fill="#FFFFFF" d="M679.264-174.437c0.004,0.002,0.01,0.003,0.015,0.005c0.013-0.002,0.022-0.008,0.036-0.01
		C679.298-174.439,679.279-174.44,679.264-174.437z"/>
	<path fill="#FFFFFF" d="M673.449-177.591C673.449-177.591,673.448-177.591,673.449-177.591
		C673.448-177.591,673.448-177.591,673.449-177.591c-0.008-0.003-0.015-0.004-0.021-0.007c0.01,0.005,0.018,0.011,0.028,0.016
		c-0.012-0.018-0.021-0.04-0.032-0.058C673.435-177.625,673.438-177.606,673.449-177.591z"/>
	<path fill="#FFFFFF" d="M673.716-173.843c0.003-0.001,0.006-0.001,0.01-0.001c0.037-0.026,0.066-0.062,0.104-0.091
		C673.791-173.905,673.756-173.872,673.716-173.843z"/>
	<path fill="#FFFFFF" d="M674.379-176.798c-0.027-0.012-0.054-0.029-0.082-0.043c0.006,0.007,0.013,0.014,0.018,0.021
		C674.334-176.81,674.358-176.806,674.379-176.798z"/>
	<path fill="#FFFFFF" d="M676.683-177.139c0.051-0.041,0.104-0.08,0.148-0.126c0,0,0,0.001,0,0.001l0,0
		c-0.008,0.023-0.006,0.052-0.013,0.077c0.005-0.015,0.01-0.03,0.015-0.045c0.006-0.018,0.011-0.035,0.017-0.052
		C676.799-177.231,676.74-177.186,676.683-177.139z"/>
	<path fill="#FFFFFF" d="M675.284-176.602h-0.016c-0.044,0-0.087-0.01-0.131-0.014c0.044,0.004,0.085,0.016,0.13,0.016h0.016h0.05
		c0.298-0.009,0.579-0.079,0.835-0.196c-0.255,0.116-0.536,0.185-0.834,0.194H675.284z"/>
	<path fill="#FFFFFF" d="M650.601-168.033c-0.019,0.065-0.038,0.128-0.062,0.19c0.023-0.061,0.048-0.12,0.064-0.183
		C650.602-168.027,650.602-168.03,650.601-168.033z"/>
	<path fill="#FFFFFF" d="M647.441-173.634c0.127,0.002,0.25,0.018,0.37,0.043c-0.017-0.048-0.032-0.098-0.045-0.148
		c0.013,0.049,0.021,0.099,0.038,0.146h-0.001l0,0C647.688-173.618,647.565-173.632,647.441-173.634z"/>
	<path fill="#FFFFFF" d="M647.113-169.768c0.035,0.005,0.067,0.017,0.103,0.021c-0.021,0.026-0.036,0.057-0.057,0.084
		c0.022-0.032,0.05-0.062,0.075-0.092C647.194-169.759,647.153-169.761,647.113-169.768z"/>
	<path fill="#FFFFFF" d="M650.354-169.591c0.009-0.033,0.02-0.064,0.029-0.096c-0.011,0.03-0.025,0.057-0.034,0.089
		C650.352-169.596,650.354-169.593,650.354-169.591z"/>
	
		<line fill="none" stroke="#FFFFFF" stroke-width="0" stroke-linecap="round" stroke-linejoin="round" x1="654.511" y1="-172.373" x2="654.512" y2="-172.374"/>
	<path fill="#FFFFFF" d="M654.435-172.951c-0.053-0.188-0.125-0.371-0.231-0.537C654.31-173.322,654.382-173.139,654.435-172.951z"
		/>
	<path fill="#FFFFFF" d="M653.961-173.792c0.056,0.057,0.101,0.123,0.148,0.186C654.062-173.669,654.018-173.734,653.961-173.792
		C653.962-173.792,653.962-173.792,653.961-173.792z"/>
	<path fill="#FFFFFF" d="M653.367-170.669c0.025-0.011,0.044-0.031,0.068-0.042c-0.027,0.013-0.054,0.03-0.08,0.042
		c0.09,0.065,0.178,0.134,0.258,0.215c0.274,0.278,0.454,0.625,0.522,1c-0.068-0.376-0.248-0.722-0.522-1.002
		C653.535-170.534,653.454-170.604,653.367-170.669z"/>
	<path fill="#FFFFFF" d="M648.959-170.536c-0.024,0.031-0.05,0.06-0.074,0.089c0.033,0.003,0.065,0.008,0.098,0.012
		c-0.027-0.005-0.053-0.015-0.081-0.016c0,0,0.001-0.001,0.001-0.001c-0.001,0-0.002,0-0.003,0
		C648.923-170.479,648.939-170.508,648.959-170.536z"/>
	<path fill="#FFFFFF" d="M651.583-174.288c0.002,0.063-0.009,0.125-0.014,0.187c0.027-0.017,0.056-0.03,0.083-0.045
		c-0.022,0.013-0.048,0.017-0.07,0.03c0.003-0.057,0.004-0.113,0.003-0.172c-0.005-0.183-0.043-0.356-0.097-0.524l0,0
		C651.542-174.646,651.578-174.471,651.583-174.288z"/>
	<path fill="#FFFFFF" d="M650.688-175.857c-0.096-0.061-0.194-0.115-0.299-0.159c0.137,0.058,0.26,0.139,0.379,0.226
		C650.74-175.812,650.717-175.838,650.688-175.857z"/>
	<path fill="#FFFFFF" d="M651.308-170.802c0.04-0.021,0.078-0.047,0.121-0.065c-0.024-0.018-0.049-0.039-0.071-0.059
		c0.021,0.018,0.039,0.041,0.063,0.058C651.38-170.85,651.345-170.822,651.308-170.802z"/>
	<path fill="#FFFFFF" d="M649.248-172.315L649.248-172.315c0.003,0,0.004,0,0.006,0c-0.006-0.001-0.01-0.003-0.016-0.004
		c0.007,0.022,0.014,0.045,0.021,0.067C649.252-172.272,649.255-172.295,649.248-172.315z"/>
	<path fill="#FFFFFF" d="M650.562-172.518c0.02-0.009,0.043-0.015,0.062-0.027c0,0,0,0,0,0.001l0,0
		c-0.002,0.04-0.003,0.083-0.002,0.126c0-0.047,0.009-0.093,0.012-0.141C650.609-172.544,650.585-172.531,650.562-172.518z"/>
	<path d="M672.502-176.817L672.502-176.817c-0.62,0-1.169,0.551-1.168,1.18c0.003,0.313,0.137,0.606,0.349,0.821
		c0.213,0.214,0.502,0.351,0.814,0.354c0.003,0,0.008,0,0.01,0c0.619,0,1.154-0.531,1.169-1.16c0.011-0.467-0.286-0.896-0.697-1.089
		c-0.138-0.064-0.289-0.102-0.445-0.106C672.522-176.817,672.514-176.817,672.502-176.817z"/>
	<path d="M677.28-172.442c-0.004,0.631,0.523,1.166,1.156,1.174c0.005,0,0.01,0,0.014,0c0.278,0,0.526-0.112,0.729-0.275
		c0.271-0.217,0.455-0.535,0.451-0.903c-0.006-0.42-0.245-0.769-0.585-0.97c-0.048-0.028-0.086-0.069-0.137-0.09
		c-0.141-0.058-0.294-0.09-0.455-0.09c-0.001,0-0.001,0-0.002,0C677.81-173.594,677.284-173.078,677.28-172.442z"/>
	<path d="M675.249-179.936c-0.633,0.008-1.156,0.541-1.152,1.172c0.005,0.639,0.535,1.162,1.172,1.162c0.012,0,0.021,0,0.035,0
		c0.636-0.02,1.15-0.561,1.135-1.193c-0.018-0.627-0.544-1.141-1.172-1.141C675.263-179.936,675.255-179.936,675.249-179.936z"/>
	<path d="M678.884-175.395c0.005,0,0.01,0,0.014,0c0.159-0.001,0.311-0.036,0.449-0.096c0.413-0.181,0.702-0.596,0.699-1.077
		c-0.002-0.641-0.518-1.158-1.158-1.162c-0.002,0-0.005,0-0.008,0c-0.642,0-1.153,0.506-1.16,1.15
		C677.71-175.921,678.231-175.395,678.884-175.395z"/>
	<path d="M672.973-171.731c-0.002,0.488,0.29,0.904,0.71,1.082c0.14,0.059,0.293,0.091,0.455,0.091c0.005,0,0.011,0,0.017,0
		c0.64-0.01,1.146-0.531,1.142-1.176c-0.002-0.323-0.13-0.61-0.338-0.817c-0.209-0.207-0.498-0.333-0.822-0.333
		C673.489-172.885,672.977-172.375,672.973-171.731z"/>
	<path fill="#4BBA94" d="M675.956-168.093L675.956-168.093h0.006v0.417v0.083h0.001l0,0c3.977,0,7.188-3.224,7.196-7.225
		c0.011-4.001-3.201-7.251-7.175-7.261c-0.006,0-0.012,0-0.019,0c-0.001,0-0.001,0-0.002,0c-3.992,0-7.211,3.23-7.211,7.246
		c-0.004,4.004,3.207,7.234,7.194,7.24h0.001c0.005,0,0.01,0,0.014,0L675.956-168.093z M674.138-169.555
		c-0.582,0-1.127-0.225-1.536-0.637c-0.409-0.41-0.635-0.959-0.632-1.541c0-0.023,0.009-0.044,0.01-0.066
		c-0.001,0.021-0.007,0.041-0.007,0.062c-0.003,0.584,0.222,1.131,0.631,1.543c0.409,0.41,0.954,0.637,1.536,0.637
		c0.755-0.012,1.41-0.398,1.795-0.975c-0.096,0.145-0.209,0.277-0.337,0.395C675.216-169.784,674.705-169.563,674.138-169.555z
		 M670.503-176.462c-0.109,0.262-0.169,0.543-0.169,0.826c0.007,1.17,0.992,2.164,2.154,2.174c0.146,0,0.288-0.015,0.426-0.042
		c-0.013,0.008-0.021,0.02-0.034,0.028c0.003-0.002,0.005-0.004,0.007-0.006c0.006-0.005,0.012-0.012,0.019-0.017
		c-0.136,0.025-0.274,0.039-0.418,0.039c-1.162-0.009-2.147-1.004-2.154-2.174C670.332-175.917,670.393-176.198,670.503-176.462z
		 M673.457-177.582c-0.011-0.005-0.019-0.011-0.028-0.016c0.007,0.003,0.013,0.004,0.02,0.006c0,0,0.001,0,0.001,0
		c-0.011-0.015-0.015-0.034-0.024-0.049C673.438-177.621,673.446-177.599,673.457-177.582
		C673.457-177.582,673.457-177.582,673.457-177.582z M673.716-173.843L673.716-173.843c0.04-0.027,0.075-0.062,0.113-0.092
		c-0.037,0.029-0.066,0.065-0.104,0.091C673.722-173.844,673.719-173.844,673.716-173.843z M674.136-172.886
		c0.324,0,0.613,0.127,0.822,0.334c0.208,0.207,0.336,0.495,0.338,0.817c0.004,0.645-0.502,1.166-1.142,1.176
		c-0.006,0-0.012,0-0.017,0c-0.162,0-0.315-0.033-0.455-0.091c-0.421-0.177-0.714-0.593-0.712-1.083
		C672.976-172.376,673.488-172.886,674.136-172.886z M674.297-176.841c0.028,0.014,0.055,0.031,0.082,0.043
		c0.001,0.001,0.003,0.002,0.005,0.003c-0.021-0.01-0.047-0.014-0.069-0.025C674.31-176.828,674.302-176.835,674.297-176.841
		C674.296-176.842,674.297-176.842,674.297-176.841z M673.676-175.622c-0.015,0.629-0.55,1.16-1.169,1.16c-0.002,0-0.007,0-0.01,0
		c-0.313-0.003-0.602-0.14-0.814-0.354c-0.213-0.215-0.348-0.508-0.35-0.822c-0.001-0.629,0.547-1.18,1.167-1.18h0.001
		c0.013,0.001,0.021,0.001,0.032,0.001c0.156,0.004,0.308,0.042,0.445,0.106C673.39-176.518,673.687-176.089,673.676-175.622z
		 M675.333-176.6h-0.05h-0.016c-0.048,0-0.091-0.013-0.137-0.016c0.003,0,0.005,0,0.007,0c0.044,0.004,0.087,0.014,0.131,0.014
		h0.016h0.05c0.297-0.009,0.579-0.078,0.834-0.194C675.912-176.679,675.631-176.609,675.333-176.6z M678.909-173.506
		c0.051,0.021,0.089,0.063,0.137,0.09c0.34,0.201,0.579,0.55,0.585,0.97c0.004,0.368-0.181,0.686-0.451,0.903
		c-0.203,0.163-0.45,0.275-0.729,0.275c-0.004,0-0.009,0-0.014,0c-0.634-0.008-1.16-0.543-1.156-1.174
		c0.004-0.637,0.529-1.152,1.172-1.154c0.001,0,0.001,0,0.002,0C678.615-173.596,678.769-173.564,678.909-173.506z M679.264-174.437
		c0.016-0.003,0.034-0.002,0.051-0.005c-0.014,0.002-0.023,0.008-0.036,0.01C679.273-174.434,679.268-174.435,679.264-174.437z
		 M678.06-174.557c-0.005,0-0.009,0.001-0.014,0.001c-0.001,0-0.003,0-0.004,0c0.003-0.001,0.006-0.002,0.009-0.002
		c0,0,0.001,0,0.001,0c-0.264-0.107-0.502-0.269-0.709-0.476c-0.408-0.416-0.632-0.967-0.623-1.555c0,0,0,0,0-0.001l0,0
		c-0.006,0.587,0.216,1.139,0.625,1.554c0.207,0.21,0.45,0.371,0.717,0.479C678.061-174.557,678.06-174.557,678.06-174.557z
		 M680.002-170.917c-0.414,0.418-0.965,0.651-1.575,0.651c0,0,0,0-0.002,0c-1.189-0.016-2.15-0.994-2.145-2.18
		c0-0.001,0-0.002,0-0.002c-0.006,1.187,0.955,2.164,2.145,2.18c0.002,0,0.002,0,0.002,0c0.458,0,0.882-0.131,1.24-0.373
		C679.786-170.721,679.898-170.814,680.002-170.917c0.411-0.417,0.636-0.961,0.63-1.539
		C680.638-171.878,680.413-171.333,680.002-170.917z M678.88-177.729c0.003,0,0.006,0,0.008,0c0.642,0.004,1.156,0.521,1.158,1.162
		c0.004,0.48-0.286,0.896-0.699,1.077c-0.139,0.06-0.29,0.094-0.449,0.096c-0.004,0-0.009,0-0.014,0
		c-0.652,0-1.174-0.525-1.164-1.184C677.727-177.224,678.238-177.729,678.88-177.729z M677.438-178.82L677.438-178.82
		c0.004,0.14-0.01,0.276-0.03,0.41C677.429-178.543,677.442-178.68,677.438-178.82z M677.377-178.281
		c-0.017,0.068-0.027,0.137-0.05,0.202c0.005-0.004,0.01-0.008,0.015-0.012c-0.001,0-0.001,0.001-0.002,0.002
		c-0.01,0.011-0.018,0.022-0.026,0.033C677.339-178.13,677.358-178.205,677.377-178.281z M676.851-177.286
		c-0.007,0.018-0.012,0.036-0.018,0.054c-0.005,0.015-0.01,0.03-0.015,0.045c0,0,0,0,0,0.001c0.007-0.025,0.005-0.053,0.013-0.078
		c0,0,0,0,0-0.001c-0.045,0.047-0.098,0.086-0.148,0.126c-0.018,0.014-0.033,0.029-0.051,0.043
		C676.707-177.156,676.783-177.216,676.851-177.286z M676.438-178.795c0.017,0.632-0.499,1.173-1.135,1.193
		c-0.014,0-0.023,0-0.035,0c-0.637,0-1.167-0.523-1.172-1.162c-0.006-0.631,0.52-1.164,1.152-1.172c0.006,0,0.014,0,0.018,0
		C675.895-179.936,676.421-179.422,676.438-178.795z"/>
	<path d="M651.621-172.423c0.01,0.516,0.426,0.922,0.944,0.922c0.001,0,0.002,0,0.003,0c0.515,0,0.932-0.402,0.946-0.916
		c0.014-0.521-0.42-0.967-0.944-0.969c-0.001,0-0.002,0-0.003,0C652.045-173.386,651.611-172.946,651.621-172.423z"/>
	<path d="M647.427-172.633c-0.006,0-0.012,0-0.018,0c-0.13,0-0.255,0.026-0.368,0.075c-0.249,0.105-0.443,0.316-0.529,0.574
		c-0.03,0.093-0.05,0.192-0.049,0.295c0.002,0.384,0.248,0.728,0.584,0.875c0.111,0.05,0.233,0.077,0.359,0.077
		c0.006,0,0.014,0,0.022-0.002c0.251-0.007,0.481-0.119,0.65-0.292c0.037-0.039,0.058-0.089,0.089-0.133
		c0.038-0.055,0.084-0.104,0.11-0.167c0.048-0.112,0.074-0.233,0.074-0.36C648.353-172.202,647.937-172.626,647.427-172.633z"/>
	<path d="M649.643-173.273c0.004,0,0.009,0,0.014,0c0.521-0.007,0.944-0.457,0.928-0.983c-0.002-0.052-0.023-0.096-0.033-0.145
		c-0.014-0.072-0.02-0.146-0.049-0.211c-0.037-0.082-0.095-0.15-0.152-0.218c-0.02-0.022-0.03-0.051-0.051-0.072
		c-0.17-0.165-0.401-0.266-0.654-0.266c-0.004,0-0.009,0-0.016,0c-0.508,0.007-0.933,0.435-0.935,0.939
		C648.691-173.716,649.134-173.273,649.643-173.273z"/>
	<path d="M648.748-169.459c-0.006,0-0.013,0-0.02,0c-0.266,0-0.5,0.101-0.668,0.269c-0.168,0.168-0.27,0.402-0.27,0.669
		c0,0.515,0.404,0.937,0.914,0.953c0.009,0,0.019,0,0.026,0c0.193,0,0.365-0.077,0.516-0.184c0.047-0.033,0.101-0.056,0.142-0.097
		c0.17-0.172,0.278-0.41,0.279-0.668C649.67-169.036,649.267-169.45,648.748-169.459z"/>
	<path d="M653.167-169.085c0.009-0.525-0.416-0.951-0.945-0.951c-0.002,0-0.003,0-0.006,0c-0.13,0-0.253,0.026-0.363,0.072
		c-0.251,0.104-0.442,0.313-0.523,0.575c-0.027,0.087-0.042,0.181-0.043,0.279c-0.003,0.404,0.228,0.738,0.566,0.88
		c0.113,0.047,0.238,0.073,0.372,0.073c0.002,0,0.004,0,0.006,0C652.743-168.161,653.159-168.571,653.167-169.085z"/>
	<path fill="#4BBA94" d="M656.046-171.048c-0.006-3.214-2.626-5.851-5.823-5.859c-0.006,0-0.012,0-0.017,0h-0.001h-0.001
		c-3.223,0-5.826,2.614-5.833,5.857c-0.005,3.248,2.604,5.879,5.827,5.879h0.001l-0.001-0.5c0.001,0,0.001,0,0.001,0v0.5h0.001
		C653.418-165.172,656.053-167.821,656.046-171.048z M649.656-173.272c-0.005,0-0.01,0-0.014,0c-0.509,0-0.951-0.443-0.948-0.957v0
		c0.002-0.504,0.427-0.932,0.935-0.939c0.007,0,0.012,0,0.016,0c0.253,0,0.484,0.102,0.654,0.266
		c0.021,0.021,0.031,0.049,0.051,0.072c0.058,0.067,0.115,0.136,0.152,0.218c0.029,0.064,0.035,0.139,0.049,0.211
		c0.01,0.049,0.031,0.093,0.033,0.145v0C650.601-173.731,650.177-173.28,649.656-173.272z M649.389-167.85
		c-0.041,0.041-0.095,0.064-0.142,0.097c-0.15,0.107-0.322,0.184-0.516,0.184c-0.008,0-0.018,0-0.026,0
		c-0.51-0.016-0.914-0.438-0.914-0.953c0-0.267,0.102-0.501,0.27-0.669s0.402-0.27,0.669-0.27c0.007,0,0.014,0,0.02,0
		c0.519,0.01,0.922,0.424,0.92,0.941C649.667-168.26,649.56-168.023,649.389-167.85z M647.216-169.747
		c-0.035-0.004-0.067-0.016-0.103-0.021h-0.001c0.041,0.006,0.082,0.009,0.123,0.013c-0.026,0.031-0.054,0.06-0.076,0.092
		C647.18-169.69,647.195-169.721,647.216-169.747z M647.804-173.593L647.804-173.593c-0.016-0.047-0.024-0.097-0.037-0.146
		c0.013,0.05,0.028,0.1,0.045,0.148c-0.12-0.025-0.243-0.041-0.37-0.043C647.565-173.632,647.687-173.618,647.804-173.593z
		 M648.354-171.692c0,0.127-0.027,0.25-0.075,0.362c-0.026,0.063-0.072,0.112-0.11,0.167c-0.031,0.044-0.052,0.094-0.089,0.133
		c-0.169,0.173-0.399,0.284-0.65,0.292c-0.009,0.002-0.017,0.002-0.022,0.002c-0.126,0-0.248-0.027-0.359-0.077
		c-0.336-0.147-0.582-0.491-0.584-0.875c-0.001-0.104,0.019-0.202,0.049-0.295c0.086-0.259,0.28-0.47,0.53-0.576
		c0.113-0.048,0.238-0.075,0.368-0.075c0.006,0,0.012,0,0.017,0C647.938-172.627,648.354-172.203,648.354-171.692z M648.902-170.453
		c0,0-0.001,0.001-0.001,0.001c0.028,0.001,0.054,0.011,0.081,0.016c0.004,0,0.008,0.001,0.012,0.002
		c-0.036-0.005-0.072-0.01-0.11-0.013c0,0,0,0,0.001-0.001c0.024-0.029,0.05-0.058,0.074-0.089c0.004-0.005,0.008-0.009,0.012-0.014
		C648.946-170.519,648.927-170.483,648.902-170.453z M649.238-172.32c0.006,0.001,0.011,0.004,0.017,0.005h-0.001
		c-0.002,0-0.003,0-0.005,0c0.006,0.02,0.003,0.043,0.01,0.063C649.252-172.274,649.245-172.297,649.238-172.32
		C649.238-172.32,649.238-172.32,649.238-172.32z M650.384-169.687c-0.01,0.032-0.021,0.063-0.029,0.096
		c-0.001-0.002-0.003-0.005-0.005-0.007c0.01-0.036,0.027-0.066,0.038-0.101C650.387-169.695,650.385-169.691,650.384-169.687z
		 M650.539-167.842c0.023-0.063,0.043-0.125,0.062-0.19c0,0,0-0.001,0-0.001c0.002,0.003,0.002,0.006,0.004,0.009
		C650.587-167.961,650.563-167.902,650.539-167.842z M650.621-172.417c-0.001-0.043,0-0.086,0.002-0.126l0,0
		c-0.021,0.013-0.049,0.018-0.069,0.03c0.002-0.001,0.005-0.003,0.008-0.004c0.023-0.013,0.048-0.026,0.071-0.041l0,0
		C650.63-172.511,650.621-172.465,650.621-172.417z M651.357-170.926c0.022,0.02,0.047,0.041,0.071,0.059
		c-0.043,0.018-0.081,0.044-0.121,0.065c0.038-0.021,0.072-0.048,0.111-0.066C651.396-170.885,651.379-170.907,651.357-170.926z
		 M652.225-168.157c-0.134,0-0.259-0.026-0.372-0.073c-0.34-0.142-0.569-0.476-0.566-0.88c0.001-0.098,0.016-0.191,0.043-0.279
		c0.081-0.263,0.271-0.471,0.522-0.575c0.11-0.046,0.233-0.072,0.363-0.072h0.001c0.003,0,0.004,0,0.006,0
		c0.529,0,0.954,0.426,0.945,0.951c-0.008,0.514-0.424,0.924-0.937,0.928C652.229-168.157,652.227-168.157,652.225-168.157z
		 M653.613-170.454c-0.08-0.081-0.168-0.15-0.258-0.215c0.026-0.012,0.053-0.029,0.08-0.042c-0.024,0.011-0.043,0.031-0.068,0.042
		c0.087,0.065,0.168,0.135,0.246,0.213c0.274,0.28,0.454,0.626,0.522,1.002C654.067-169.829,653.888-170.176,653.613-170.454z
		 M652.574-174.386c0.518,0.002,1.024,0.219,1.389,0.594c0.363,0.375,0.564,0.885,0.553,1.4c0,0.007-0.003,0.013-0.005,0.02
		c0,0,0,0.001,0,0.001c0-0.001,0-0.002,0.001-0.003c0.001-0.006,0.003-0.012,0.003-0.018c0.004-0.19-0.029-0.376-0.08-0.559
		c-0.053-0.188-0.125-0.371-0.231-0.537c-0.027-0.042-0.063-0.079-0.094-0.119c-0.048-0.063-0.093-0.129-0.148-0.186v0
		c-0.362-0.375-0.87-0.592-1.389-0.594H652.574z M653.515-172.417c-0.015,0.514-0.432,0.916-0.946,0.916c-0.001,0-0.002,0-0.003,0
		c-0.52,0-0.936-0.406-0.944-0.922c-0.01-0.523,0.424-0.963,0.946-0.963c0.001,0,0.002,0,0.003,0
		C653.095-173.384,653.528-172.939,653.515-172.417z M651.585-174.288c0.001,0.059,0,0.115-0.003,0.172
		c0.022-0.013,0.048-0.017,0.07-0.03c-0.027,0.015-0.056,0.028-0.083,0.045c0.005-0.062,0.016-0.124,0.014-0.187
		c-0.005-0.183-0.041-0.357-0.095-0.524v0v0C651.542-174.645,651.58-174.471,651.585-174.288z M650.39-176.016
		c0.104,0.044,0.203,0.098,0.299,0.159c0.028,0.019,0.052,0.045,0.08,0.067c0.001,0.001,0.002,0.001,0.003,0.002
		c-0.123-0.09-0.25-0.174-0.391-0.233C650.384-176.02,650.387-176.018,650.39-176.016z"/>
</g>
</svg>
