<?xml version="1.0" encoding="utf-8"?>
<!-- Generator: Adobe Illustrator 16.0.3, SVG Export Plug-In . SVG Version: 6.00 Build 0)  -->
<!DOCTYPE svg PUBLIC "-//W3C//DTD SVG 1.1//EN" "http://www.w3.org/Graphics/SVG/1.1/DTD/svg11.dtd">
<svg version="1.1"
	 id="svg2" xmlns:rdf="http://www.w3.org/1999/02/22-rdf-syntax-ns#" xmlns:cc="http://creativecommons.org/ns#" xmlns:svg="http://www.w3.org/2000/svg" xmlns:dc="http://purl.org/dc/elements/1.1/" xmlns:inkscape="http://www.inkscape.org/namespaces/inkscape" xmlns:sodipodi="http://sodipodi.sourceforge.net/DTD/sodipodi-0.dtd" sodipodi:docname="dibujo.svg" inkscape:version="0.48.4 r"
	 xmlns="http://www.w3.org/2000/svg" xmlns:xlink="http://www.w3.org/1999/xlink" x="0px" y="0px" width="64.896px"
	 height="53.002px" viewBox="453.711 0 64.896 53.002" enable-background="new 453.711 0 64.896 53.002" xml:space="preserve">
<sodipodi:namedview  id="base" showgrid="false" borderopacity="1.0" bordercolor="#666666" inkscape:cy="100.36547" inkscape:cx="471.00049" inkscape:zoom="1.8757812" pagecolor="#ffffff" inkscape:pageopacity="0.0" inkscape:document-units="px" inkscape:pageshadow="2" inkscape:window-y="-8" inkscape:current-layer="layer1" inkscape:window-width="1440" inkscape:window-height="878" inkscape:window-x="-8" inkscape:window-maximized="1">
	</sodipodi:namedview>
<g>
	<path d="M513.462,27.303c-0.087-0.084-0.185-0.346-0.192-0.619c-0.035-1.447-0.041-2.896-0.047-4.344
		c-0.013-3.529-0.025-7.18-0.506-10.781c-0.215-1.609-0.769-2.553-1.914-3.258l-0.369-0.232c-0.188-0.119-0.377-0.24-0.567-0.354
		c-1.13-0.668-1.5-1.393-1.237-2.424c0.078-0.313-0.009-0.713-0.211-0.971c-0.405-0.525-1.358-0.809-2.047-0.809
		c-0.448,0-0.815,0.113-1.063,0.326c-0.459,0.4-0.984,0.564-1.818,0.564c-0.115,0-0.555-0.014-0.655-0.014
		c-2.066,0-3.318,0.889-3.832,2.721c-0.034,0.121-0.07,0.17-0.07,0.178c-0.021-0.002-0.115-0.021-0.273-0.156
		c-0.582-0.486-1.16-0.982-1.734-1.482c-2.009-1.74-3.857-3.262-6.159-4.25l-0.164-0.072C490.128,1.123,489.844,1,489.564,1
		c-0.557,0-0.766,0.4-0.986,1.041c-0.46,0.027-0.915,0.102-1.357,0.172c-0.537,0.088-1.046,0.17-1.55,0.17
		c-0.707,0-1.284-0.172-1.817-0.545c-0.187-0.129-0.402-0.197-0.631-0.197c-0.571,0-1.1,0.42-1.345,1.066
		c-0.092,0.238-0.382,0.51-0.54,0.545c-0.992,0.227-1.665,0.758-2.115,1.676c-0.138,0.281-0.313,0.541-0.486,0.803
		c-0.153,0.229-0.307,0.459-0.441,0.701c-0.203,0.363-0.39,0.436-0.626,0.436c-0.072,0-0.149-0.006-0.233-0.021l-0.703-0.129
		c-0.904-0.168-1.841-0.342-2.779-0.342l-0.145,0.002c-1.786,0.033-3.479,0.211-5.031,0.527c-1.527,0.313-3.127,0.688-4.423,1.516
		l-0.262,0.168c-0.939,0.605-1.832,1.18-2.896,1.414c-0.352,0.078-0.717,0.27-1.121,0.582c-0.229,0.176-0.444,0.371-0.66,0.568
		c-0.275,0.252-0.539,0.49-0.823,0.676c-0.286,0.188-0.604,0.34-0.938,0.504c-0.388,0.191-0.789,0.385-1.161,0.645
		c-0.432,0.297-0.79,0.873-0.872,1.395c-0.065,0.426-0.07,0.865-0.075,1.287c-0.005,0.645-0.01,1.254-0.236,1.689
		c-0.603,1.143-0.595,2.23-0.586,3.281l0.003,0.313c0.01,6.676,0.035,13.354,0.074,20.029c0.007,1.184,0.396,1.422,0.524,1.5
		c1.119,0.686,2.297,1.297,3.437,1.887l0.358,0.186c0.28,0.146,0.593,0.154,0.899,0.162c0.206,0.008,0.413,0.021,0.62,0.031
		c0.321,0.018,0.646,0.037,0.965,0.037c0.261,0,0.521-0.014,0.776-0.045c5.632-0.707,11.263-1.436,16.972-2.176l5.216-0.674
		l-0.343-0.979c-0.08-0.23-0.131-0.377-0.188-0.521c-1.006-2.646-1.18-5.412-0.517-8.219c1.48-6.273,7.225-10.826,13.654-10.826
		c2.439,0,4.814,0.686,6.87,1.977c0.111,0.07,0.248,0.137,0.395,0.207c0.151,0.07,0.434,0.207,0.442,0.313
		c-0.063,0.107-0.104,0.107-0.146,0.107c-0.229,0-0.623-0.246-0.909-0.426c-1.478-0.93-3.101-1.383-4.956-1.383
		c-0.118,0-0.234,0.002-0.354,0.006c-3.728,0.115-7.4,1.861-10.08,4.793c-2.671,2.924-4.076,6.729-3.855,10.441
		c0.204,3.451,1.496,6.012,3.949,7.826c2.978,2.203,5.908,4.006,8.962,5.508c0.437,0.215,0.877,0.404,1.319,0.566
		c1.327,0.486,2.68,0.731,4.033,0.731c0.829,0,1.678-0.092,2.512-0.273c5.205-1.121,9.014-4.381,11.017-9.428
		C518.689,36.454,517.711,31.407,513.462,27.303z M491.779,12.696c-0.555,0.154-1.121,0.246-1.67,0.334
		c-0.232,0.039-0.457,0.074-0.623,0.105c-0.89,0-1.581-0.535-1.723-1.332c-0.111-0.619,0.221-1.418,0.95-1.625
		c0.93-0.266,1.84-0.42,2.703-0.453l0.045-0.5v0.5c0.66,0,1.271,0.615,1.364,1.373C492.914,11.807,492.453,12.507,491.779,12.696z
		 M505.318,47.856c-0.83,0.234-1.664,0.354-2.478,0.354c-3.948-0.002-7.041-2.799-7.692-6.963c-0.448-2.869,0.463-5.979,2.504-8.535
		c2.034-2.551,4.856-4.127,7.744-4.326c0.138-0.01,0.475-0.023,0.475-0.023c3.979,0.01,7.165,2.77,7.745,6.715
		C514.433,40.606,510.711,46.339,505.318,47.856z"/>
	<g>
		<path fill="#4BBA94" d="M514.273,26.697c-0.002-0.013-0.004-0.027-0.004-0.042c-0.035-1.39-0.041-2.813-0.046-4.188l-0.001-0.131
			c-0.013-3.559-0.025-7.24-0.515-10.909c-0.256-1.918-0.968-3.108-2.381-3.978l-0.36-0.227l-0.094-0.059
			c-0.165-0.104-0.331-0.209-0.499-0.309c-0.967-0.572-0.875-0.934-0.777-1.316c0.154-0.616,0-1.334-0.393-1.835
			c-0.63-0.816-1.912-1.191-2.834-1.191c-0.689,0-1.282,0.196-1.716,0.567c-0.189,0.166-0.432,0.323-1.168,0.323
			c-0.055,0-0.189-0.003-0.319-0.007c-0.145-0.003-0.282-0.007-0.335-0.007c-2.407,0-3.672,1.087-4.333,2.3
			c-0.312-0.265-0.616-0.529-0.922-0.794c-2.076-1.799-3.991-3.372-6.421-4.415l-0.155-0.068C490.438,0.169,490.045,0,489.562,0
			c-0.929,0-1.414,0.578-1.683,1.104c-0.264,0.033-0.519,0.074-0.77,0.114l-0.051,0.008c-0.497,0.082-0.963,0.158-1.393,0.158
			c-0.508,0-0.879-0.109-1.244-0.364c-0.359-0.249-0.774-0.378-1.204-0.378c-0.979,0-1.863,0.655-2.265,1.673
			c-0.001,0-0.002,0.001-0.002,0.002c-1.213,0.319-2.071,1.03-2.632,2.171c-0.104,0.215-0.253,0.435-0.407,0.668
			c-0.15,0.224-0.299,0.447-0.437,0.683l-0.57-0.104c-0.946-0.176-1.929-0.358-2.96-0.358l-0.156,0.002
			c-1.853,0.035-3.605,0.219-5.22,0.547c-1.618,0.332-3.318,0.732-4.761,1.653l-0.265,0.17c-0.902,0.581-1.682,1.083-2.57,1.278
			c-0.497,0.111-0.992,0.361-1.518,0.768c-0.253,0.194-0.486,0.405-0.725,0.621c-0.243,0.222-0.474,0.432-0.694,0.577
			c-0.22,0.143-0.477,0.269-0.773,0.414l-0.059,0.029l-0.067,0.033c-0.381,0.188-0.813,0.401-1.228,0.689
			c-0.653,0.45-1.161,1.259-1.287,2.059c-0.076,0.49-0.082,0.978-0.088,1.408c-0.004,0.501-0.008,1.039-0.123,1.261
			c-0.718,1.362-0.709,2.632-0.699,3.751l0.003,0.314c0.01,6.435,0.034,12.988,0.075,20.026c0.006,1.171,0.334,1.938,1.003,2.348
			c1.168,0.715,2.405,1.356,3.498,1.921l0.357,0.186c0.482,0.252,0.975,0.265,1.333,0.273c0.189,0.007,0.392,0.019,0.591,0.03
			l0.085,0.004c0.313,0.018,0.626,0.034,0.937,0.034s0.613-0.018,0.897-0.052c5.515-0.692,10.951-1.396,16.979-2.177l5.214-0.674
			l0.375-0.048c0.704,1.229,1.657,2.284,2.867,3.179c3.032,2.244,6.014,4.076,9.115,5.602c1.883,0.928,3.833,1.399,5.795,1.399
			c0.903,0,1.819-0.1,2.725-0.296c5.543-1.194,9.602-4.665,11.732-10.036C519.762,36.463,518.744,31.09,514.273,26.697z
			 M516.368,42.301c-2.003,5.047-5.813,8.307-11.017,9.428c-0.835,0.182-1.683,0.273-2.512,0.273c-1.354,0-2.706-0.245-4.034-0.731
			c-0.441-0.162-0.883-0.351-1.318-0.566c-3.055-1.502-5.984-3.305-8.962-5.508c-2.453-1.814-3.745-4.375-3.949-7.826
			c-0.221-3.713,1.186-7.518,3.855-10.441c2.68-2.932,6.354-4.678,10.08-4.793c0.118-0.004,0.234-0.006,0.354-0.006
			c1.855,0,3.479,0.453,4.956,1.383c0.286,0.18,0.681,0.426,0.909,0.426c0.041,0,0.082,0,0.146-0.107
			c-0.01-0.107-0.291-0.244-0.442-0.314c-0.146-0.07-0.282-0.137-0.395-0.207c-2.056-1.291-4.431-1.977-6.87-1.977
			c-6.431,0-12.174,4.553-13.655,10.826c-0.663,2.807-0.488,5.572,0.518,8.219c0.057,0.145,0.105,0.291,0.188,0.521l0.342,0.979
			l-5.215,0.674c-5.71,0.74-11.34,1.469-16.972,2.176c-0.257,0.031-0.517,0.045-0.777,0.045c-0.318,0-0.643-0.02-0.964-0.037
			c-0.207-0.012-0.414-0.023-0.621-0.031c-0.307-0.008-0.619-0.016-0.898-0.162l-0.358-0.186c-1.14-0.59-2.316-1.201-3.437-1.887
			c-0.128-0.078-0.52-0.316-0.524-1.5c-0.039-6.676-0.064-13.354-0.075-20.029l-0.003-0.313c-0.008-1.051-0.016-2.139,0.586-3.281
			c0.229-0.436,0.232-1.045,0.237-1.689c0.005-0.422,0.009-0.861,0.075-1.287c0.082-0.521,0.439-1.098,0.872-1.395
			c0.372-0.26,0.772-0.453,1.161-0.645c0.335-0.164,0.651-0.316,0.938-0.504c0.284-0.186,0.547-0.424,0.823-0.676
			c0.216-0.197,0.432-0.393,0.66-0.568c0.403-0.313,0.771-0.504,1.121-0.582c1.064-0.234,1.957-0.809,2.896-1.414l0.261-0.168
			c1.297-0.828,2.896-1.203,4.424-1.516c1.552-0.316,3.244-0.494,5.031-0.527l0.145-0.002c0.938,0,1.875,0.174,2.778,0.342
			l0.703,0.129c0.084,0.016,0.162,0.021,0.234,0.021c0.236,0,0.423-0.072,0.626-0.436c0.136-0.242,0.288-0.473,0.441-0.701
			c0.175-0.262,0.35-0.521,0.486-0.803c0.45-0.918,1.123-1.449,2.115-1.676c0.158-0.035,0.448-0.307,0.54-0.545
			c0.245-0.646,0.771-1.066,1.345-1.066c0.229,0,0.444,0.068,0.631,0.197c0.533,0.373,1.11,0.545,1.817,0.545
			c0.504,0,1.013-0.082,1.55-0.17c0.442-0.07,0.896-0.145,1.357-0.172C488.794,1.4,489.003,1,489.559,1
			c0.279,0,0.563,0.123,1.036,0.326l0.164,0.072c2.302,0.988,4.15,2.51,6.159,4.25c0.574,0.5,1.152,0.996,1.734,1.482
			c0.158,0.135,0.252,0.154,0.273,0.156c0-0.008,0.036-0.057,0.07-0.178c0.514-1.832,1.766-2.721,3.832-2.721
			c0.102,0,0.54,0.014,0.654,0.014c0.834,0,1.36-0.164,1.819-0.564c0.248-0.213,0.615-0.326,1.063-0.326
			c0.688,0,1.642,0.283,2.047,0.809c0.202,0.258,0.289,0.658,0.211,0.971c-0.264,1.031,0.106,1.756,1.236,2.424
			c0.191,0.113,0.381,0.234,0.568,0.354l0.369,0.232c1.146,0.705,1.699,1.648,1.914,3.258c0.479,3.602,0.493,7.252,0.506,10.781
			c0.006,1.447,0.011,2.896,0.047,4.344c0.008,0.273,0.105,0.535,0.192,0.619C517.711,31.407,518.689,36.454,516.368,42.301z"/>
		<path fill="#4BBA94" d="M505.871,28.362c0,0-0.337,0.014-0.475,0.023c-2.888,0.199-5.71,1.775-7.744,4.326
			c-2.04,2.557-2.952,5.666-2.504,8.535c0.651,4.164,3.744,6.961,7.692,6.963c0.813,0,1.646-0.119,2.478-0.354
			c5.393-1.518,9.113-7.25,8.298-12.779C513.036,31.132,509.852,28.372,505.871,28.362z M510.307,42.016
			c-1.443,2.225-3.594,3.775-5.896,4.254c-0.502,0.104-1,0.156-1.481,0.156h-0.001c-1.653,0-3.155-0.627-4.23-1.766
			c-1.247-1.32-1.865-3.25-1.741-5.436l0.094-1.641l0.836,1.414c1.35,2.279,2.989,3.387,5.02,3.387c0.436,0,0.896-0.051,1.369-0.154
			c2.177-0.473,3.606-1.916,4.14-4.172c0.687-2.918-0.336-5.166-3.122-6.869l-1.145-0.699l1.322-0.221
			c0.276-0.045,0.562-0.07,0.841-0.07c2.579,0,4.884,1.977,5.479,4.699C512.289,37.196,511.749,39.79,510.307,42.016z"/>
		<path fill="#4BBA94" d="M491.463,9.725v-0.5l-0.045,0.5c-0.863,0.033-1.773,0.188-2.703,0.453
			c-0.729,0.207-1.063,1.006-0.95,1.625c0.142,0.797,0.833,1.332,1.724,1.332c0.166-0.031,0.39-0.066,0.621-0.105
			c0.55-0.088,1.116-0.18,1.671-0.334c0.674-0.189,1.135-0.889,1.048-1.598C492.734,10.341,492.123,9.725,491.463,9.725z"/>
	</g>
	<g>
		<path d="M506.31,30.2c-0.28,0-0.563,0.025-0.841,0.07l-1.322,0.221l1.145,0.699c2.786,1.703,3.809,3.951,3.122,6.869
			c-0.532,2.256-1.963,3.699-4.141,4.172c-0.474,0.104-0.934,0.154-1.368,0.154c-2.029,0-3.67-1.107-5.02-3.387l-0.836-1.414
			l-0.094,1.641c-0.124,2.186,0.494,4.115,1.74,5.436c1.075,1.139,2.578,1.766,4.231,1.766h0.001c0.481,0,0.979-0.053,1.481-0.156
			c2.303-0.479,4.452-2.029,5.896-4.254c1.442-2.227,1.982-4.82,1.48-7.117C511.191,32.176,508.889,30.2,506.31,30.2z"/>
	</g>
</g>
</svg>
