<?xml version="1.0" encoding="utf-8"?>
<!-- Generator: Adobe Illustrator 16.0.3, SVG Export Plug-In . SVG Version: 6.00 Build 0)  -->
<!DOCTYPE svg PUBLIC "-//W3C//DTD SVG 1.1//EN" "http://www.w3.org/Graphics/SVG/1.1/DTD/svg11.dtd">
<svg version="1.1"
	 id="svg2" xmlns:rdf="http://www.w3.org/1999/02/22-rdf-syntax-ns#" xmlns:dc="http://purl.org/dc/elements/1.1/" xmlns:svg="http://www.w3.org/2000/svg" xmlns:cc="http://creativecommons.org/ns#"
	 xmlns="http://www.w3.org/2000/svg" xmlns:xlink="http://www.w3.org/1999/xlink" x="0px" y="0px" width="499.016px"
	 height="220.56px" viewBox="2.5 2.499 499.016 220.56" enable-background="new 2.5 2.499 499.016 220.56" xml:space="preserve">
<path id="rect2830" fill="#4BBA94" d="M18.254,2.5h467.506c8.701,0,15.755,7.053,15.755,15.754v189.051
	c0,8.701-7.054,15.756-15.755,15.756H18.254c-8.701,0-15.754-7.055-15.754-15.756V18.254C2.5,9.552,9.553,2.5,18.254,2.5z"/>
<g>
	<path d="M231.63,141.279h-27.358c-4.214,0-7.624,3.398-7.624,7.594c0,4.197,3.41,7.563,7.624,7.563h27.358
		c4.214,0,7.624-3.365,7.624-7.563C239.254,144.677,235.844,141.279,231.63,141.279z"/>
	<path d="M299.775,141.279h-27.391c-4.213,0-7.592,3.398-7.592,7.594c0,4.197,3.379,7.563,7.592,7.563h27.391
		c4.213,0,7.592-3.365,7.592-7.563C307.367,144.677,303.988,141.279,299.775,141.279z"/>
	<path d="M369.904,125.621c-12.822,0.012-23.205,10.416-23.191,23.236c0,0.016,0,0.031,0,0.047
		c0.012,12.82,10.416,23.205,23.236,23.191c12.821-0.014,23.205-10.416,23.191-23.238c0-0.014,0-0.029,0-0.045
		C393.129,135.99,382.725,125.607,369.904,125.621z"/>
	<path d="M110.772,105.617v-25.5H77.897v25.5c0,1.105-0.896,2-2,2h-25.5v32.875h25.5c1.104,0,2,0.896,2,2v25.531h32.875v-25.531
		c0-1.104,0.896-2,2-2h25.531v-32.875h-25.531C111.668,107.617,110.772,106.722,110.772,105.617z"/>
	<path d="M22.508,24.638V200.92h459V24.638H22.508z M142.304,142.492c0,1.105-0.896,2-2,2h-25.531v25.531c0,1.105-0.896,2-2,2
		H75.897c-1.104,0-2-0.895-2-2v-25.531h-25.5c-1.104,0-2-0.895-2-2v-36.875c0-1.104,0.896-2,2-2h25.5v-25.5c0-1.104,0.896-2,2-2
		h36.875c1.104,0,2,0.896,2,2v25.5h25.531c1.104,0,2,0.896,2,2V142.492z M323.008,164.701c0,4.682-3.771,8.438-8.471,8.438H189.51
		c-4.7,0-8.502-3.756-8.502-8.438v-31.688c0-4.68,3.802-8.438,8.502-8.438h125.027c4.699,0,8.471,3.758,8.471,8.438V164.701z
		 M398.716,172.558c0,3.09-2.504,5.594-5.593,5.594H346.73c-3.089,0-5.594-2.504-5.594-5.594v-47.4c0-3.09,2.505-5.594,5.594-5.594
		h46.393c3.089,0,5.593,2.504,5.593,5.594V172.558z M464.431,172.558c0,3.09-2.505,5.594-5.594,5.594h-46.392
		c-3.09,0-5.594-2.504-5.594-5.594v-47.4c0-3.09,2.504-5.594,5.594-5.594h46.392c3.089,0,5.594,2.504,5.594,5.594V172.558z"/>
	<path d="M435.618,125.621c-12.821,0.012-23.204,10.416-23.191,23.236c0,0.016,0,0.031,0,0.047
		c0.013,12.82,10.416,23.205,23.237,23.191s23.204-10.416,23.191-23.238c0-0.014,0-0.029,0-0.045
		C458.843,135.99,448.438,125.607,435.618,125.621z"/>
</g>
<path id="rect3633" fill="#555753" d="M184.224,185.588c-1.779,0-3.216,1.438-3.216,3.219v2.156v1.781v8.563h142v-8.563v-1.781
	v-2.156c0-1.781-1.438-3.219-3.216-3.219H184.224z"/>
<path id="rect3658" fill="#555753" d="M186.187,89.144h131.642c2.861,0,5.18,2.32,5.18,5.18v14.896c0,2.859-2.318,5.178-5.18,5.178
	H186.187c-2.86,0-5.179-2.318-5.179-5.178V94.324C181.008,91.465,183.326,89.144,186.187,89.144z"/>
<path id="rect3660" fill="#555753" d="M186.187,55.304h131.642c2.861,0,5.18,2.318,5.18,5.18v14.896c0,2.859-2.318,5.178-5.18,5.178
	H186.187c-2.86,0-5.179-2.318-5.179-5.178V60.484C181.008,57.623,183.326,55.304,186.187,55.304z"/>
<path id="path3662" fill="#555753" d="M184.224,46.752c-1.779,0-3.216-1.992-3.216-4.459v-2.988v-2.467V24.972h142v11.865v2.467
	v2.988c0,2.467-1.438,4.459-3.216,4.459H184.224z"/>
<g enable-background="new    ">
	<path fill="#4BBA94" d="M398.716,195.317h-2.605l-2.013-3.678h-7.276l-1.922,3.678h-2.421l6.658-12.107h2.5L398.716,195.317z
		 M393.427,190.355l-3.066-5.604l-2.908,5.604H393.427z"/>
</g>
<g enable-background="new    ">
	<path fill="#4BBA94" d="M464.431,191.795c0,1.144-0.548,2.017-1.645,2.619s-2.711,0.903-4.842,0.903h-6.526V183.21h6.184
		c0.903,0,1.724,0.072,2.461,0.216s1.364,0.348,1.882,0.614c0.518,0.266,0.916,0.59,1.197,0.973c0.28,0.382,0.421,0.812,0.421,1.288
		c0,0.594-0.206,1.101-0.618,1.522c-0.413,0.422-1.04,0.774-1.882,1.056c0.562,0.091,1.053,0.233,1.474,0.426
		c0.421,0.193,0.771,0.418,1.053,0.675c0.28,0.257,0.491,0.539,0.632,0.849C464.36,191.136,464.431,191.459,464.431,191.795z
		 M453.721,188.282h3.868c1.271,0,2.208-0.141,2.81-0.422c0.601-0.281,0.901-0.755,0.901-1.422c0-0.3-0.068-0.561-0.204-0.784
		c-0.137-0.224-0.36-0.409-0.671-0.56c-0.312-0.149-0.718-0.262-1.218-0.335s-1.114-0.109-1.842-0.109h-3.645V188.282z
		 M453.721,193.878h4.21c2.737,0,4.105-0.694,4.105-2.083c0-0.36-0.07-0.672-0.21-0.936c-0.141-0.263-0.382-0.479-0.725-0.651
		c-0.342-0.171-0.798-0.298-1.368-0.38c-0.57-0.083-1.28-0.124-2.132-0.124h-3.881V193.878z"/>
</g>
</svg>
