<?xml version="1.0" encoding="utf-8"?>
<!-- Generator: Adobe Illustrator 16.0.3, SVG Export Plug-In . SVG Version: 6.00 Build 0)  -->
<!DOCTYPE svg PUBLIC "-//W3C//DTD SVG 1.1//EN" "http://www.w3.org/Graphics/SVG/1.1/DTD/svg11.dtd">
<svg version="1.1"
	 id="svg2" xmlns:rdf="http://www.w3.org/1999/02/22-rdf-syntax-ns#" xmlns:cc="http://creativecommons.org/ns#" xmlns:svg="http://www.w3.org/2000/svg" xmlns:dc="http://purl.org/dc/elements/1.1/" xmlns:inkscape="http://www.inkscape.org/namespaces/inkscape" xmlns:sodipodi="http://sodipodi.sourceforge.net/DTD/sodipodi-0.dtd" sodipodi:docname="dibujo.svg" inkscape:version="0.48.4 r"
	 xmlns="http://www.w3.org/2000/svg" xmlns:xlink="http://www.w3.org/1999/xlink" x="0px" y="0px" width="57.589px"
	 height="52.28px" viewBox="481.929 38.67 57.589 52.28" enable-background="new 481.929 38.67 57.589 52.28" xml:space="preserve">
<sodipodi:namedview  id="base" showgrid="false" borderopacity="1.0" bordercolor="#666666" inkscape:cy="100.36547" inkscape:cx="471.00049" inkscape:zoom="1.8757812" pagecolor="#ffffff" inkscape:pageopacity="0.0" inkscape:document-units="px" inkscape:pageshadow="2" inkscape:window-y="-8" inkscape:current-layer="layer1" inkscape:window-width="1440" inkscape:window-height="878" inkscape:window-x="-8" inkscape:window-maximized="1">
	</sodipodi:namedview>
<g>
	<path fill="none" d="M533.902,55.543c0.335,0.538,0.641,1.09,0.913,1.657C534.542,56.633,534.237,56.081,533.902,55.543z"/>
	<path fill="none" d="M534.842,57.254c0.271,0.57,0.514,1.156,0.721,1.758C535.355,58.41,535.114,57.825,534.842,57.254z"/>
	<path fill="none" d="M535.579,59.062c0.205,0.603,0.377,1.221,0.513,1.856C535.956,60.283,535.786,59.664,535.579,59.062z"/>
	<path fill="none" d="M532.777,53.928c0.392,0.505,0.754,1.022,1.088,1.555C533.531,54.951,533.168,54.433,532.777,53.928z"/>
	<path fill="none" d="M495.115,86.117c-0.421,0.154-0.843,0.307-1.268,0.452C494.273,86.425,494.694,86.271,495.115,86.117z"/>
	<path fill="none" d="M489.317,53.134c0.057-0.065,0.107-0.135,0.163-0.2C489.425,53,489.373,53.069,489.317,53.134z"/>
	<path fill="none" d="M498.265,84.552c-0.042,0.028-0.087,0.05-0.129,0.077C498.178,84.602,498.223,84.58,498.265,84.552z"/>
	<path fill="none" d="M527.172,79.759c-1.461,0.951-3.02,1.749-4.662,2.413C524.153,81.509,525.711,80.711,527.172,79.759z"/>
	<path fill="none" d="M534.082,72.72c-0.587,0.994-1.265,1.927-2.022,2.803C532.819,74.648,533.495,73.715,534.082,72.72z"/>
	<path fill="none" d="M499.32,83.745c-0.104,0.089-0.219,0.163-0.325,0.248C499.102,83.908,499.217,83.835,499.32,83.745z"/>
	<path fill="none" d="M495.12,80.413c-0.003-0.129-0.074-0.17-0.161-0.225c-1.466-0.891-2.83-1.908-4.072-3.09
		c-2.224-2.109-3.941-4.557-4.971-7.461c-0.639-1.799-0.948-3.654-0.919-5.563c0.039-2.56,0.66-4.955,1.806-7.199
		c-1.146,2.245-1.769,4.641-1.808,7.201c-0.028,1.906,0.281,3.762,0.918,5.562c1.029,2.906,2.748,5.352,4.973,7.463
		c1.242,1.18,2.607,2.199,4.072,3.088c0.087,0.055,0.158,0.098,0.16,0.227c0.031,1.586-0.245,3.111-0.929,4.549
		c-0.295,0.621-0.662,1.209-0.998,1.816c0.336-0.605,0.703-1.195,0.999-1.816C494.872,83.526,495.15,82.001,495.12,80.413z"/>
	<path fill="none" d="M508.742,84.354c-2.813-0.168-5.558-0.686-8.229-1.59c-0.068-0.022-0.124-0.025-0.182,0.009
		c0.058-0.033,0.112-0.031,0.181-0.007c2.671,0.902,5.416,1.42,8.229,1.59c1.979,0.117,3.953,0.061,5.923-0.178
		c2.138-0.258,4.223-0.729,6.257-1.42c-2.033,0.69-4.118,1.162-6.256,1.418C512.695,84.415,510.722,84.473,508.742,84.354z"/>
	<path fill="none" d="M490.367,51.985L490.367,51.985c-0.227,0.229-0.443,0.466-0.658,0.705
		C489.923,52.451,490.141,52.214,490.367,51.985z"/>
	<path d="M495.043,48.119c0.021,0.007,0.044,0.018,0.065,0.026C495.087,48.137,495.065,48.126,495.043,48.119z"/>
	<path d="M538.312,57.59c-1.162-3.137-3.01-5.824-5.391-8.16c-0.132-0.129-0.274-0.243-0.408-0.369
		c-0.37,0.791-0.733,1.502-1.084,2.103c-0.065,0.114-0.178,0.359-0.341,0.835c0.583,0.594,1.142,1.22,1.663,1.891
		c0.01,0.012,0.017,0.025,0.025,0.037c0.392,0.505,0.754,1.023,1.088,1.555c0.013,0.02,0.025,0.04,0.037,0.06
		c0.335,0.538,0.641,1.09,0.913,1.657c0.009,0.018,0.019,0.036,0.026,0.054c0.271,0.571,0.514,1.156,0.721,1.758
		c0.006,0.017,0.012,0.033,0.019,0.05c0.205,0.603,0.376,1.221,0.512,1.856c0.002,0.01,0.006,0.02,0.008,0.03
		c0.715,3.379,0.362,6.65-1.004,9.816c-0.295,0.681-0.643,1.326-1.014,1.956c-0.586,0.995-1.264,1.927-2.022,2.803
		c-0.26,0.3-0.516,0.601-0.794,0.888c-1.254,1.291-2.627,2.395-4.094,3.349c-1.461,0.952-3.02,1.75-4.662,2.413
		c-0.314,0.127-0.628,0.256-0.949,0.374c-0.212,0.078-0.428,0.14-0.641,0.212c-2.034,0.691-4.119,1.162-6.257,1.42
		c-1.97,0.238-3.942,0.295-5.922,0.178c-2.813-0.17-5.559-0.688-8.229-1.59c-0.067-0.024-0.123-0.026-0.181,0.007
		c-0.018,0.01-0.033,0.008-0.052,0.028c-0.303,0.339-0.624,0.653-0.961,0.944c-0.104,0.089-0.219,0.163-0.324,0.248
		c-0.239,0.192-0.479,0.387-0.73,0.559c-0.042,0.028-0.087,0.05-0.129,0.077c-0.697,0.459-1.439,0.853-2.219,1.186
		c-0.264,0.112-0.533,0.205-0.803,0.302c-0.421,0.154-0.842,0.308-1.268,0.452c-0.18,0.062-0.359,0.121-0.538,0.185
		c-0.047,0.016-0.096,0.021-0.118,0.025c0.336-0.607,0.703-1.195,0.998-1.816c0.684-1.438,0.96-2.963,0.929-4.549
		c-0.002-0.129-0.073-0.172-0.16-0.227c-1.465-0.889-2.83-1.908-4.072-3.088c-2.225-2.111-3.942-4.557-4.972-7.463
		c-0.638-1.799-0.947-3.654-0.919-5.561c0.039-2.56,0.661-4.956,1.808-7.201c0.164-0.321,0.339-0.639,0.522-0.954
		c0.59-1.002,1.259-1.926,1.992-2.788c0.057-0.065,0.107-0.135,0.163-0.2c0.073-0.084,0.152-0.162,0.229-0.245
		c0.215-0.239,0.433-0.476,0.659-0.705l-0.636-0.872l0.478-0.899l0.394-0.191c0.159-0.703,0.514-1.333,1.061-1.878
		c0.702-0.703,1.545-1.082,2.49-1.124c0.07-0.004,0.14-0.006,0.207-0.006c0.718,0,1.362,0.209,1.921,0.623
		c0.002,0.002,0.005,0.004,0.008,0.006c2.507-1.337,5.184-2.261,8-2.833c2.188-0.441,4.397-0.654,6.629-0.637
		c0.373,0.003,0.743,0.021,1.113,0.036c0.3-0.108,0.611-0.19,0.949-0.212c0.069-0.003,0.139-0.005,0.204-0.005
		c0.619,0,1.144,0.155,1.567,0.433c2.031,0.246,4.022,0.681,5.966,1.326c-0.081-0.763-0.134-1.532-0.134-2.301
		c0-0.275,0.001-0.657,0.025-1.081c-1.91-0.566-3.873-0.96-5.884-1.188c-2.716-0.305-5.431-0.301-8.144,0.016
		c-3.082,0.359-6.066,1.111-8.935,2.303c-3.511,1.459-6.663,3.465-9.354,6.168c-1.814,1.822-3.314,3.873-4.422,6.199
		c-1.753,3.684-2.336,7.543-1.679,11.572c0.517,3.146,1.771,5.986,3.625,8.57c1.651,2.301,3.664,4.23,5.972,5.865
		c0.127,0.088,0.168,0.162,0.125,0.32c-0.436,1.568-1.241,2.91-2.424,4.027c-0.768,0.727-1.645,1.285-2.617,1.697
		c-0.643,0.271-1.014,0.883-0.979,1.537c0.041,0.834,0.771,1.6,1.842,1.486c2.212-0.236,4.387-0.633,6.507-1.309
		c2.375-0.756,4.612-1.783,6.61-3.295c0.063-0.047,0.179-0.059,0.254-0.037c3.214,0.92,6.492,1.35,9.832,1.33
		c1.78-0.008,3.547-0.15,5.307-0.426c3.607-0.568,7.039-1.668,10.266-3.387c3.332-1.773,6.236-4.074,8.565-7.064
		c2.576-3.311,4.125-7.031,4.4-11.242C539.655,62.79,539.261,60.147,538.312,57.59z"/>
	<path d="M494.36,48.016c-0.05,0-0.101,0.001-0.15,0.004c0.071-0.004,0.141,0.003,0.211,0.004
		C494.398,48.024,494.381,48.016,494.36,48.016z"/>
	<path fill="#FFFFFF" d="M509.329,71.882c-0.065-0.135-0.129-0.28-0.19-0.435C509.201,71.603,509.264,71.747,509.329,71.882z"/>
	<path fill="#FFFFFF" d="M510.391,73.161c-0.042-0.02-0.083-0.046-0.124-0.072C510.308,73.114,510.349,73.141,510.391,73.161z"/>
	<path fill="#FFFFFF" d="M491.375,74.397c-0.052-0.034-0.097-0.075-0.142-0.115C491.279,74.322,491.324,74.363,491.375,74.397z"/>
	<path fill="#FFFFFF" d="M514.883,47.321c-0.003,0.019-0.006,0.029-0.009,0.049C514.877,47.35,514.879,47.34,514.883,47.321z"/>
	<path fill="#FFFFFF" d="M509.525,72.256c-0.05-0.086-0.1-0.184-0.147-0.281C509.426,72.072,509.476,72.169,509.525,72.256z"/>
	<path fill="#FFFFFF" d="M509.73,72.571c-0.045-0.063-0.09-0.134-0.135-0.205C509.641,72.437,509.686,72.508,509.73,72.571z"/>
	<path fill="#FFFFFF" d="M509.942,72.826c-0.043-0.045-0.085-0.099-0.127-0.151C509.857,72.727,509.899,72.78,509.942,72.826z"/>
	<path fill="#FFFFFF" d="M510.834,73.265c0.022,0,0.048-0.001,0.071-0.002c-0.056,0.004-0.109-0.003-0.165-0.009
		C510.772,73.256,510.803,73.265,510.834,73.265z"/>
	<path fill="#FFFFFF" d="M510.627,73.24c-0.043-0.009-0.085-0.024-0.127-0.039C510.542,73.216,510.584,73.231,510.627,73.24z"/>
	<path fill="#FFFFFF" d="M513.185,44.993c-0.051,0-0.103,0.001-0.155,0.004c0.059-0.003,0.107,0.004,0.162,0.004L513.185,44.993z"/>
	<path fill="#FFFFFF" d="M510.161,73.023c-0.041-0.031-0.081-0.07-0.122-0.108C510.079,72.952,510.12,72.991,510.161,73.023z"/>
	<path fill="#FFFFFF" d="M491.131,74.188c-0.042-0.046-0.076-0.1-0.112-0.153C491.055,74.088,491.089,74.142,491.131,74.188z"/>
	<path fill="#FFFFFF" d="M491.672,74.543c-0.062-0.021-0.115-0.05-0.17-0.078C491.557,74.493,491.611,74.521,491.672,74.543z"/>
	<path fill="#FFFFFF" d="M492.334,74.649c0.051,0,0.102-0.001,0.153-0.004c-0.104,0.005-0.198-0.001-0.295-0.007
		C492.241,74.641,492.284,74.649,492.334,74.649z"/>
	<path fill="#FFFFFF" d="M490.938,73.916c-0.032-0.06-0.058-0.128-0.084-0.195C490.88,73.788,490.905,73.856,490.938,73.916z"/>
	<path fill="#FFFFFF" d="M490.708,73.183c-0.021-0.143-0.034-0.296-0.038-0.46C490.674,72.887,490.687,73.04,490.708,73.183z"/>
	<path fill="#FFFFFF" d="M490.797,73.581c-0.024-0.078-0.041-0.167-0.059-0.253C490.756,73.414,490.772,73.502,490.797,73.581z"/>
	<path fill="#FFFFFF" d="M492.02,74.625c-0.069-0.009-0.134-0.025-0.198-0.042C491.886,74.6,491.95,74.615,492.02,74.625z"/>
	<path d="M491.561,51.301c0.047,0.203,0.125,0.391,0.234,0.563c-0.313,4.656-0.563,9.164-0.75,13.523
		c-0.875,0.563-1.313,1.406-1.313,2.531c0,0.797,0.359,1.328,1.078,1.594l-0.141,1.43v1.781c0.004,0.164,0.017,0.317,0.038,0.46
		c0.007,0.052,0.021,0.095,0.03,0.145c0.018,0.086,0.033,0.175,0.059,0.253c0.016,0.05,0.038,0.093,0.057,0.14
		c0.026,0.066,0.052,0.135,0.084,0.195c0.024,0.043,0.054,0.08,0.081,0.119c0.036,0.053,0.07,0.107,0.112,0.153
		c0.031,0.035,0.067,0.063,0.104,0.094c0.045,0.04,0.09,0.081,0.142,0.115c0.04,0.026,0.084,0.046,0.127,0.068
		c0.055,0.028,0.108,0.056,0.17,0.078c0.047,0.017,0.099,0.028,0.148,0.041c0.064,0.016,0.129,0.032,0.198,0.042
		c0.056,0.007,0.114,0.01,0.174,0.014c0.097,0.005,0.19,0.012,0.295,0.007c1.556-0.094,2.37-1.125,2.447-3.094l0.117-2.602
		c1.75-0.375,3.078-0.656,3.984-0.844c0.155,0.016,0.327,0.031,0.516,0.047c1.438-0.719,4.352-1.156,8.742-1.313h1.266l-0.422,4.607
		c0.063,0.155,0.125,0.299,0.189,0.435c0.017,0.033,0.032,0.061,0.049,0.092c0.049,0.098,0.099,0.195,0.147,0.281
		c0.023,0.04,0.048,0.072,0.07,0.11c0.045,0.071,0.09,0.144,0.135,0.205c0.028,0.038,0.058,0.069,0.085,0.104
		c0.042,0.052,0.084,0.106,0.127,0.151c0.032,0.033,0.064,0.06,0.098,0.089c0.041,0.038,0.082,0.077,0.123,0.108
		c0.034,0.025,0.069,0.045,0.104,0.066c0.041,0.025,0.082,0.052,0.124,0.072c0.036,0.017,0.073,0.028,0.109,0.041
		c0.042,0.015,0.084,0.03,0.127,0.039c0.038,0.008,0.075,0.01,0.113,0.013c0.056,0.005,0.109,0.013,0.165,0.009
		c0.377-0.016,0.817-0.188,1.32-0.516l1.178-2.367c0.328-3.313,0.547-5.531,0.656-6.656c0.094-2.422,0.141-4.047,0.141-4.875
		c0.188-2.766,0.328-4.617,0.423-5.555c0.108-2.734,0.172-4.547,0.188-5.438c0.023-0.193,0.044-0.354,0.063-0.485
		c0.003-0.021,0.006-0.03,0.009-0.049c0.015-0.096,0.027-0.178,0.04-0.236l0.027-0.002c0-1.388-0.591-2.076-1.76-2.082
		c-0.055,0-0.104-0.007-0.162-0.004c-0.719,0.047-1.301,0.367-1.746,0.961c-0.444,0.594-0.676,1.266-0.69,2.016
		c-0.031,2.406-0.078,3.953-0.142,4.641c-0.172,2.094-0.28,3.352-0.327,3.773l-0.328,5.977c-1.188,0.063-2.681,0.195-4.478,0.398
		l-0.586-0.211l-0.656,0.352c-0.969,0.141-1.616,0.234-1.944,0.281c-0.875,0.125-1.609,0.242-2.203,0.352l-0.656-0.117l-0.563,0.349
		c-1.289,0.248-2.423,0.48-3.4,0.696c0.213-4.341,0.381-7.636,0.502-9.885l0.297-0.585l-0.233-0.539
		c0-0.563,0.047-1.351,0.141-2.366c0.203-0.422,0.305-0.874,0.305-1.358c0-0.547-0.211-0.976-0.633-1.288
		c-0.179-0.132-0.372-0.227-0.576-0.297c-0.021-0.008-0.044-0.019-0.065-0.026c-0.196-0.061-0.405-0.089-0.623-0.094
		c-0.07-0.001-0.14-0.008-0.211-0.004c-0.703,0.031-1.316,0.309-1.841,0.832c-0.523,0.523-0.809,1.137-0.854,1.84l-0.867,0.422
		L491.561,51.301z"/>
	<path d="M521.584,43.45c0,0.938,0.063,1.867,0.188,2.789c0.031,0.234,0.047,0.477,0.047,0.727c0,0.094-0.016,0.23-0.047,0.41
		s-0.047,0.316-0.047,0.41c0,1.234,0.113,3.09,0.34,5.566c0.228,2.476,0.34,4.332,0.34,5.566c0,0.328-0.022,0.809-0.069,1.441
		s-0.07,1.113-0.07,1.441c0,1.281,0.688,1.922,2.063,1.922c0.642,0,1.142-0.406,1.5-1.219l0.234,0.07
		c1.203-2.859,2.203-5.438,3-7.734c0.203-0.563,0.398-1.063,0.586-1.5c0.359-1.344,0.664-2.234,0.914-2.672
		c0.594-1.016,1.211-2.305,1.853-3.867c0.766-1.859,1.147-3.195,1.147-4.008c0-0.219-0.039-0.398-0.117-0.539
		c-0.188-0.344-1.03-0.828-2.53-1.453c-0.72-0.297-1.712-0.672-2.978-1.125c-3.063,0.109-4.789,0.18-5.18,0.211
		C521.975,39.95,521.584,41.137,521.584,43.45z"/>
	<path d="M524.584,65.528c-0.423-0.234-1.173-0.352-2.25-0.352c-0.72,0-1.453,0.324-2.203,0.973s-1.125,1.324-1.125,2.027
		c0,0.172,0.03,0.426,0.094,0.762s0.094,0.59,0.094,0.762c0,0.719,0.063,1.219,0.188,1.5c0.594,0.844,1.078,1.438,1.453,1.781
		c0.313,0.453,0.75,0.68,1.313,0.68c0.891,0,1.754-0.297,2.59-0.891c0.836-0.594,1.293-1.32,1.371-2.18
		c0.094-1,0.142-1.617,0.142-1.852c0-0.469-0.095-0.922-0.281-1.359C525.561,66.426,525.1,65.809,524.584,65.528z"/>
	<path fill="#FFFFFF" d="M536.1,60.948c-0.002-0.01-0.006-0.02-0.008-0.03c-0.136-0.635-0.308-1.253-0.513-1.856
		c-0.006-0.017-0.012-0.033-0.018-0.05c-0.207-0.603-0.448-1.188-0.721-1.758c-0.009-0.018-0.019-0.036-0.026-0.054
		c-0.272-0.567-0.578-1.119-0.913-1.657c-0.012-0.02-0.024-0.04-0.037-0.06c-0.334-0.532-0.696-1.05-1.088-1.555
		c-0.01-0.012-0.017-0.025-0.025-0.037c-0.521-0.671-1.08-1.297-1.663-1.891c0.163-0.477,0.274-0.721,0.341-0.835
		c0.351-0.601,0.714-1.312,1.084-2.103c0.271-0.583,0.547-1.203,0.825-1.881c0.821-1.999,1.223-3.434,1.223-4.387
		c0-0.39-0.082-0.734-0.243-1.025c-0.267-0.488-0.884-1-3.021-1.891c-0.733-0.303-1.75-0.687-3.024-1.143l-0.181-0.065l-0.191,0.007
		c-3.105,0.111-4.814,0.181-5.225,0.214c-1.612,0.129-1.98,2.052-2.065,3.478c-0.024,0.424-0.025,0.806-0.025,1.081
		c0,0.769,0.053,1.539,0.134,2.301c-1.942-0.645-3.935-1.08-5.966-1.326c-0.426-0.278-0.948-0.433-1.567-0.433
		c-0.066,0-0.135,0.001-0.204,0.005c-0.338,0.022-0.65,0.104-0.949,0.212c-0.371-0.014-0.74-0.033-1.113-0.036
		c-2.23-0.018-4.44,0.195-6.629,0.637c-2.816,0.572-5.493,1.496-8,2.833c-0.004-0.001-0.006-0.004-0.008-0.006
		c-0.559-0.413-1.204-0.623-1.921-0.623c-0.067,0-0.137,0.002-0.207,0.006c-0.945,0.042-1.788,0.42-2.491,1.124
		c-0.546,0.545-0.899,1.175-1.06,1.878l-0.394,0.191l-0.478,0.899l0.635,0.872c-0.227,0.229-0.443,0.466-0.658,0.705
		c-0.075,0.083-0.154,0.161-0.229,0.245c-0.056,0.065-0.106,0.134-0.163,0.2c-0.734,0.862-1.403,1.786-1.992,2.788
		c-0.185,0.315-0.358,0.633-0.522,0.954c-1.146,2.244-1.767,4.639-1.806,7.199c-0.029,1.908,0.28,3.764,0.918,5.563
		c1.029,2.904,2.748,5.352,4.972,7.461c1.242,1.182,2.606,2.199,4.072,3.09c0.087,0.055,0.158,0.096,0.161,0.225
		c0.03,1.588-0.248,3.113-0.93,4.551c-0.296,0.621-0.663,1.211-0.999,1.816c0.022-0.004,0.071-0.01,0.118-0.025
		c0.179-0.064,0.357-0.124,0.538-0.185c0.425-0.145,0.847-0.298,1.268-0.452c0.27-0.098,0.539-0.189,0.803-0.302
		c0.778-0.333,1.521-0.727,2.219-1.186c0.042-0.027,0.087-0.049,0.129-0.077c0.253-0.172,0.491-0.367,0.729-0.559
		c0.106-0.085,0.223-0.159,0.325-0.248c0.337-0.291,0.658-0.604,0.961-0.944c0.019-0.02,0.034-0.019,0.052-0.028
		c0.058-0.034,0.112-0.031,0.182-0.009c2.671,0.904,5.416,1.422,8.229,1.59c1.979,0.119,3.953,0.061,5.923-0.178
		c2.138-0.256,4.223-0.729,6.256-1.418c0.213-0.073,0.429-0.135,0.641-0.212c0.321-0.118,0.635-0.246,0.949-0.374
		c1.644-0.664,3.201-1.461,4.662-2.413c1.467-0.955,2.84-2.058,4.094-3.349c0.278-0.287,0.534-0.588,0.794-0.888
		c0.759-0.876,1.438-1.809,2.021-2.803c0.371-0.63,0.72-1.275,1.015-1.956C536.462,67.598,536.814,64.327,536.1,60.948z
		 M522.756,39.887c0.391-0.031,2.117-0.102,5.18-0.211c1.266,0.453,2.258,0.828,2.978,1.125c1.5,0.625,2.344,1.109,2.53,1.453
		c0.078,0.141,0.117,0.32,0.117,0.539c0,0.813-0.383,2.148-1.147,4.008c-0.642,1.563-1.259,2.852-1.853,3.867
		c-0.25,0.438-0.555,1.328-0.914,2.672c-0.188,0.438-0.383,0.938-0.586,1.5c-0.797,2.297-1.797,4.875-3,7.734l-0.234-0.07
		c-0.358,0.813-0.858,1.219-1.5,1.219c-1.375,0-2.063-0.641-2.063-1.922c0-0.328,0.022-0.809,0.07-1.441
		c0.047-0.632,0.069-1.113,0.069-1.441c0-1.234-0.112-3.09-0.34-5.566c-0.227-2.476-0.34-4.332-0.34-5.566
		c0-0.094,0.016-0.23,0.047-0.41s0.047-0.316,0.047-0.41c0-0.25-0.016-0.492-0.047-0.727c-0.125-0.922-0.188-1.852-0.188-2.789
		C521.584,41.137,521.975,39.95,522.756,39.887z M524.736,72.77c-0.836,0.594-1.698,0.891-2.59,0.891c-0.563,0-1-0.227-1.313-0.68
		c-0.375-0.344-0.859-0.938-1.453-1.781c-0.125-0.281-0.188-0.781-0.188-1.5c0-0.172-0.031-0.426-0.094-0.762
		s-0.094-0.59-0.094-0.762c0-0.703,0.375-1.379,1.125-2.027s1.483-0.973,2.203-0.973c1.078,0,1.828,0.117,2.25,0.352
		c0.516,0.281,0.977,0.898,1.383,1.852c0.188,0.438,0.281,0.891,0.281,1.359c0,0.234-0.048,0.852-0.142,1.852
		C526.029,71.45,525.572,72.176,524.736,72.77z M491.514,50.692c0.047-0.703,0.332-1.316,0.854-1.84
		c0.523-0.524,1.138-0.801,1.841-0.832c0.051-0.003,0.102-0.004,0.15-0.004c0.021,0,0.038,0.008,0.061,0.009
		c0.218,0.005,0.427,0.034,0.623,0.094c0.021,0.007,0.044,0.018,0.065,0.026c0.204,0.071,0.397,0.165,0.576,0.297
		c0.422,0.313,0.633,0.741,0.633,1.288c0,0.484-0.102,0.937-0.305,1.358c-0.094,1.016-0.141,1.804-0.141,2.366l0.233,0.539
		l-0.297,0.585c-0.121,2.249-0.289,5.544-0.502,9.885c0.979-0.216,2.111-0.448,3.4-0.696l0.563-0.349l0.656,0.117
		c0.594-0.109,1.328-0.227,2.203-0.352c0.328-0.047,0.977-0.141,1.944-0.281l0.656-0.352l0.586,0.211
		c1.797-0.203,3.289-0.336,4.478-0.398l0.327-5.977c0.048-0.422,0.156-1.68,0.328-3.773c0.063-0.688,0.109-2.234,0.142-4.641
		c0.016-0.75,0.246-1.422,0.69-2.016c0.445-0.594,1.027-0.914,1.746-0.961c0.053-0.002,0.104-0.004,0.155-0.004l0.007,0.008
		c1.169,0.005,1.76,0.694,1.76,2.082l-0.027,0.002c-0.013,0.059-0.025,0.14-0.04,0.236c-0.004,0.019-0.006,0.029-0.009,0.049
		c-0.021,0.132-0.04,0.292-0.063,0.485c-0.016,0.891-0.078,2.703-0.188,5.438c-0.095,0.938-0.234,2.789-0.423,5.555
		c0,0.828-0.047,2.453-0.141,4.875c-0.109,1.125-0.328,3.344-0.656,6.656l-1.178,2.367c-0.503,0.328-0.943,0.5-1.32,0.516
		c-0.023,0.001-0.049,0.002-0.071,0.002c-0.031,0-0.063-0.008-0.094-0.011c-0.038-0.003-0.075-0.005-0.113-0.013
		c-0.043-0.009-0.085-0.024-0.127-0.039c-0.036-0.013-0.073-0.023-0.109-0.041c-0.042-0.02-0.083-0.046-0.124-0.072
		c-0.034-0.021-0.069-0.041-0.104-0.066c-0.041-0.031-0.081-0.07-0.122-0.108c-0.032-0.029-0.064-0.056-0.098-0.089
		c-0.043-0.045-0.085-0.099-0.127-0.151c-0.028-0.035-0.057-0.065-0.085-0.104c-0.045-0.063-0.09-0.134-0.135-0.205
		c-0.022-0.038-0.047-0.07-0.07-0.11c-0.05-0.086-0.1-0.184-0.147-0.281c-0.017-0.032-0.032-0.059-0.049-0.092
		c-0.064-0.135-0.128-0.28-0.189-0.435l0.422-4.607h-1.266c-4.392,0.156-7.306,0.594-8.742,1.313
		c-0.188-0.016-0.359-0.031-0.517-0.047c-0.905,0.188-2.233,0.469-3.983,0.844l-0.117,2.602c-0.077,1.969-0.893,3-2.447,3.094
		c-0.053,0.003-0.104,0.004-0.153,0.004c-0.051,0-0.094-0.008-0.142-0.011c-0.06-0.003-0.118-0.006-0.174-0.014
		c-0.069-0.009-0.134-0.025-0.198-0.042c-0.051-0.013-0.103-0.024-0.148-0.041c-0.062-0.021-0.115-0.05-0.17-0.078
		c-0.043-0.022-0.087-0.042-0.127-0.068c-0.052-0.034-0.097-0.075-0.142-0.115c-0.035-0.031-0.072-0.059-0.104-0.094
		c-0.042-0.046-0.076-0.1-0.112-0.153c-0.027-0.04-0.057-0.076-0.081-0.119c-0.032-0.06-0.058-0.128-0.084-0.195
		c-0.019-0.047-0.041-0.09-0.057-0.14c-0.024-0.079-0.041-0.167-0.059-0.253c-0.01-0.049-0.023-0.093-0.03-0.145
		c-0.021-0.143-0.034-0.296-0.038-0.46v-1.781l0.141-1.43c-0.719-0.266-1.078-0.797-1.078-1.594c0-1.125,0.438-1.969,1.313-2.531
		c0.188-4.359,0.438-8.867,0.75-13.523c-0.109-0.172-0.188-0.359-0.234-0.563l-0.914-0.188L491.514,50.692z"/>
</g>
</svg>
