<?xml version="1.0" encoding="UTF-8" standalone="no"?>
<!-- Generator: Adobe Illustrator 16.0.3, SVG Export Plug-In . SVG Version: 6.00 Build 0)  -->

<svg
   xmlns:dc="http://purl.org/dc/elements/1.1/"
   xmlns:cc="http://creativecommons.org/ns#"
   xmlns:rdf="http://www.w3.org/1999/02/22-rdf-syntax-ns#"
   xmlns:svg="http://www.w3.org/2000/svg"
   xmlns="http://www.w3.org/2000/svg"
   xmlns:sodipodi="http://sodipodi.sourceforge.net/DTD/sodipodi-0.dtd"
   xmlns:inkscape="http://www.inkscape.org/namespaces/inkscape"
   version="1.1"
   id="svg2"
   sodipodi:docname="dibujo2.svg"
   inkscape:version="0.48.4 r"
   x="0px"
   y="0px"
   width="53.012001"
   height="49.937"
   viewBox="0 0 53.011999 49.936999"
   enable-background="new 0 0 595.275 841.89"
   xml:space="preserve"><metadata
     id="metadata861"><rdf:RDF><cc:Work
         rdf:about=""><dc:format>image/svg+xml</dc:format><dc:type
           rdf:resource="http://purl.org/dc/dcmitype/StillImage" /></cc:Work></rdf:RDF></metadata><defs
     id="defs859" /><sodipodi:namedview
     id="base"
     showgrid="false"
     borderopacity="1.0"
     bordercolor="#666666"
     inkscape:cy="-176.13585"
     inkscape:cx="478.36983"
     inkscape:zoom="0.88856937"
     pagecolor="#ffffff"
     inkscape:pageopacity="0.0"
     inkscape:document-units="px"
     inkscape:pageshadow="2"
     inkscape:window-y="-8"
     inkscape:current-layer="svg2"
     inkscape:window-width="1440"
     inkscape:window-height="878"
     inkscape:window-x="-8"
     inkscape:window-maximized="1"
     fit-margin-top="0"
     fit-margin-left="0"
     fit-margin-right="0"
     fit-margin-bottom="0" /><g
     id="g416"
     transform="translate(-9.787007,371.384)"><path
       d="m 36.274,-340.954 c -1.795,0 -3.246,1.527 -3.246,3.285 0,-1.756 1.451,-3.283 3.246,-3.283 1.756,0 3.283,1.527 3.283,3.283 10e-4,-1.758 -1.527,-3.285 -3.283,-3.285 z"
       id="path418"
       inkscape:connector-curvature="0"
       style="fill:#6093a5" /><path
       d="m 56.687,-352.183 c -0.577,-0.596 -1.068,-1.559 -1.089,-2.367 -0.107,-4.215 -0.047,-8.432 -0.053,-12.646 -0.001,-0.584 -0.048,-1.166 -0.072,-1.705 -3.282,0 -6.35,0 -9.596,0 0,2.164 0,4.174 0,6.621 -3.446,-3.211 -6.578,-6.129 -9.771,-9.104 -8.864,8.316 -17.591,16.506 -26.319,24.693 0.079,0.135 0.158,0.268 0.236,0.402 1.363,0 2.727,0 4.291,0 0,8.377 0,16.605 0,24.834 l 43.764,0.008 c 0,-8.352 0,-16.582 0,-24.93 1.589,0 2.953,0 4.721,0 -2.274,-2.138 -4.264,-3.901 -6.112,-5.806 z m -4.637,14.891 c -0.256,0.443 -6.392,10.846 -15.757,10.846 -9.365,0 -15.501,-10.403 -15.757,-10.846 l -0.29,-0.5 0.289,-0.501 c 0.257,-0.444 6.393,-10.887 15.759,-10.887 9.366,0 15.5,10.442 15.757,10.887 l 0.289,0.501 -0.29,0.5 z"
       id="path420"
       inkscape:connector-curvature="0"
       style="fill:#6093a5" /><path
       d="m 36.274,-340.952 c -1.795,0 -3.246,1.527 -3.246,3.283 0,1.795 1.451,3.246 3.246,3.246 1.756,0 3.283,-1.451 3.283,-3.246 10e-4,-1.756 -1.527,-3.283 -3.283,-3.283 z"
       id="path422"
       inkscape:connector-curvature="0"
       style="fill:#6093a5" /><path
       d="m 36.274,-348.056 c -8.897,0 -14.893,10.387 -14.893,10.387 0,0 5.995,10.348 14.892,10.348 8.897,0 14.892,-10.348 14.892,-10.348 0,0 -5.995,-10.387 -14.891,-10.387 z m 0,17.68 c -4.01,0 -7.294,-3.283 -7.293,-7.293 0,-4.01 3.283,-7.293 7.293,-7.293 4.009,0 7.293,3.283 7.293,7.293 0,4.01 -3.283,7.293 -7.293,7.293 z"
       id="path424"
       inkscape:connector-curvature="0"
       style="fill:#6093a5" /></g></svg>