<?xml version="1.0" encoding="utf-8"?>
<!-- Generator: Adobe Illustrator 16.0.3, SVG Export Plug-In . SVG Version: 6.00 Build 0)  -->
<!DOCTYPE svg PUBLIC "-//W3C//DTD SVG 1.1//EN" "http://www.w3.org/Graphics/SVG/1.1/DTD/svg11.dtd">
<svg version="1.1"
	 id="svg2" xmlns:rdf="http://www.w3.org/1999/02/22-rdf-syntax-ns#" xmlns:cc="http://creativecommons.org/ns#" xmlns:svg="http://www.w3.org/2000/svg" xmlns:dc="http://purl.org/dc/elements/1.1/" xmlns:inkscape="http://www.inkscape.org/namespaces/inkscape" xmlns:sodipodi="http://sodipodi.sourceforge.net/DTD/sodipodi-0.dtd" sodipodi:docname="dibujo.svg" inkscape:version="0.48.4 r"
	 xmlns="http://www.w3.org/2000/svg" xmlns:xlink="http://www.w3.org/1999/xlink" x="0px" y="0px" width="76.624px"
	 height="81.964px" viewBox="162.784 112.123 76.624 81.964" enable-background="new 162.784 112.123 76.624 81.964"
	 xml:space="preserve">
<sodipodi:namedview  id="base" showgrid="false" borderopacity="1.0" bordercolor="#666666" inkscape:cy="100.36547" inkscape:cx="471.00049" inkscape:zoom="1.8757812" pagecolor="#ffffff" inkscape:pageopacity="0.0" inkscape:document-units="px" inkscape:pageshadow="2" inkscape:window-y="-8" inkscape:current-layer="layer1" inkscape:window-width="1440" inkscape:window-height="878" inkscape:window-x="-8" inkscape:window-maximized="1">
	</sodipodi:namedview>
<g>
	<path fill="none" d="M206.475,169.558l-0.105-0.002c-2.583,0-4.442,1.801-4.522,4.379c-0.035,1.174,0.387,2.283,1.19,3.123
		c0.836,0.875,1.995,1.367,3.264,1.385h0.057c1.176,0,2.324-0.477,3.152-1.309c0.576-0.578,1.264-1.59,1.259-3.125
		C210.76,171.515,208.914,169.601,206.475,169.558z"/>
	<path d="M209.124,148.579c-0.85,1.587-1.713,3.198-2.595,4.844c-0.383,0.716-0.986,1.288-1.427,1.706
		c-0.153,0.145-0.289,0.272-0.39,0.383l-0.173,0.193l-0.257-0.03c-2.532-0.295-4.23-1.152-4.938-2.474
		c-0.695,0.31-1.38,0.605-2.064,0.903l6.183,3.853l-0.292,0.43c-0.505,0.743-1.009,1.501-1.518,2.268
		c-1.442,2.171-2.935,4.416-4.585,6.536c-0.499,0.643-1.811,1.074-2.722,1.074c-0.407,0-0.725-0.087-0.939-0.26
		c-0.896-0.717-1.683-2.604-1.287-3.703c0.9-2.51,2.031-4.978,3.124-7.364c0.369-0.806,0.737-1.614,1.1-2.425
		c-3.562,1.526-7.004,2.888-10.395,4.11c-0.746,0.27-1.19,0.422-1.646,0.422c-0.089,0-0.166-0.015-0.246-0.025
		c-0.308,0.634-0.901,1.049-1.572,1.049c-0.146,0-0.288-0.022-0.426-0.059c-0.006,0.017-0.007,0.034-0.012,0.051
		c-0.888,2.953-3.062,5.061-6.462,6.258c-0.174,0.063-0.362,0.092-0.563,0.092c-0.877,0-1.923-0.613-2.463-1.191
		c-1.113-1.193-1.591-1.42-2.08-1.42c-0.423,0-0.998,0.174-1.865,0.563c-0.313,0.14-0.622,0.303-0.938,0.468
		c-0.214,0.908-0.406,1.821-0.482,2.741c-0.308,3.736,0.159,7.375,1.693,10.842c1.132,2.553,2.67,4.818,4.658,6.775
		c2.317,2.277,5.016,3.963,8.007,5.234c2.45,1.041,4.996,1.717,7.604,2.109c2.06,0.309,4.157,0.357,6.592,0.551
		c2.272-0.225,4.878-0.422,7.467-0.746c1.617-0.201,3.24-0.479,4.807-0.916c3.229-0.902,6.337-2.133,9.131-4.037
		c1.931-1.316,3.671-2.834,4.932-4.836c0.438-0.697,0.897-1.432,0.76-2.283c-0.1-0.621-0.342-1.25-0.651-1.803
		c-1.034-1.85-2.249-3.609-3.165-5.512c-0.938-1.951-0.691-3.951,0.672-5.678c1.362-1.725,2.992-3.105,5.193-3.729
		c0.781-0.223,1.563-0.313,2.34-0.313c0.745,0,1.486,0.084,2.222,0.219c1.469,0.271,2.885,0.82,4.331,1.225
		c0.414,0.115,0.821,0.172,1.207,0.172c1.078,0,1.989-0.449,2.429-1.342c0.464-0.941,0.828-1.998,0.934-3.035
		c0.361-3.572-0.947-6.666-3.012-9.492c-2.163-2.963-5.063-5.063-8.188-6.875c-1.626-0.943-3.292-1.801-5.002-2.568
		c-2.412,1.446-4.884,2.896-7.402,4.201C212.816,146.735,210.955,147.672,209.124,148.579z M195.232,175.319
		c-1.456,3.322-4.223,5.227-7.589,5.227c-0.587,0-1.192-0.06-1.802-0.177c-1.633-0.317-3.228-0.871-4.771-1.406
		c-0.701-0.244-1.403-0.487-2.109-0.709l-0.329-0.104l-0.114-2.19l0.604,0.09c0.439,0.066,0.86,0.099,1.252,0.099
		c3.054,0,4.373-1.912,5.62-5.215c1.217-3.217,2.973-3.893,4.231-3.893c0.562,0,1.144,0.137,1.728,0.409
		C195.714,169.197,196.786,171.77,195.232,175.319z M206.356,179.443c-0.021,0-0.046,0-0.067,0
		c-3.169-0.045-5.534-2.539-5.441-5.539c0.094-2.988,2.254-5.348,5.522-5.348c0.042,0,0.084,0,0.126,0.002
		c2.835,0.051,5.262,2.271,5.271,5.447C211.779,177.232,209.172,179.443,206.356,179.443z"/>
	<path d="M180.352,154.249c0.227-0.17,0.512-0.254,0.849-0.254c0.087,0,0.345,0.01,0.63,0.094c0.311-0.454,0.898-0.869,1.833-1.402
		c6.885-3.924,13.646-7.389,20.386-10.465c0.926-1.478,1.854-2.954,2.786-4.435c-0.651-0.028-1.305-0.045-1.958-0.045
		c-0.909,0-1.818,0.023-2.729,0.059c-1.404,0.055-2.815,0.17-4.204,0.387c-1.72,0.268-3.43,0.621-5.121,1.025
		c-1.464,0.35-2.94,0.713-4.338,1.258c-3.05,1.189-5.821,2.885-8.347,4.975c-3.028,2.506-5.654,5.377-7.813,8.668
		c-0.32,0.489-0.628,0.983-0.929,1.481c0.957-0.46,1.995-0.831,3.141-1.075c0.73-0.152,1.402-0.229,2.05-0.229
		c1.151,0,2.204,0.265,3.151,0.759C179.893,154.708,180.125,154.417,180.352,154.249z"/>
	<path d="M182.649,154.672c0.011,0.017,0.023,0.03,0.034,0.048c0.47,0.863,0.869,1.76,1.257,2.625l0.204,0.455
		c0.033,0.076,0.053,0.15,0.067,0.223c0.031,0.004,0.057,0.021,0.09,0.021c0.289,0,0.684-0.135,1.308-0.361
		c4.547-1.639,9.009-3.473,13.411-5.438c-0.138-0.842,0.011-1.993,0.938-3.484c1.034-1.661,2.083-3.332,3.127-5
		c-6.437,2.988-12.739,6.266-18.927,9.793C183.288,154.051,182.827,154.335,182.649,154.672z"/>
	<path d="M226.1,137.993c0.656-0.391,1.168-1.027,1.586-1.402c0.371-0.955-0.108-1.727-0.957-1.727
		c-0.062,0-0.124,0.004-0.188,0.012c-1.263,0.162-2.539,0.42-3.738,0.842c-2.872,1.01-5.711,2.093-8.528,3.221
		c-1.404,2.637-2.853,5.346-4.336,8.12c1.454-0.729,2.904-1.465,4.35-2.214C218.322,142.751,222.184,140.32,226.1,137.993z"/>
	<path d="M179.631,156.29c-0.021-0.062-0.031-0.126-0.045-0.19c-0.953-0.581-1.968-0.81-3-0.81c-0.611,0-1.229,0.08-1.842,0.209
		c-5.053,1.078-8.058,4.727-10.739,8.738c-0.132,0.197-0.06,0.533-0.103,1.063c0.737-0.246,1.319-0.391,1.858-0.633
		c0.828-0.371,1.612-0.842,2.441-1.215c0.953-0.424,1.66-0.65,2.275-0.65c0.967,0,1.706,0.553,2.812,1.736
		c0.396,0.426,1.193,0.875,1.73,0.875c0.085,0,0.162-0.01,0.231-0.035c2.748-0.969,4.95-2.656,5.835-5.602
		c0.036-0.119,0.055-0.236,0.076-0.354c-0.073-0.087-0.148-0.173-0.208-0.275C180.464,158.304,180.031,157.37,179.631,156.29z"/>
	<path d="M182.483,159.07c0.289,0,0.573-0.188,0.714-0.541c0.012-0.08,0.077-0.225,0.035-0.32c-0.455-1.012-0.896-2.035-1.427-3.01
		c-0.063-0.117-0.368-0.203-0.605-0.203c-0.106,0-0.198,0.014-0.25,0.055c-0.233,0.172-0.466,0.662-0.38,0.898
		c0.344,0.926,0.752,1.842,1.249,2.695C181.986,158.931,182.236,159.07,182.483,159.07z"/>
	<path d="M200.809,149.289c-0.578,0.93-1.157,2.269-0.63,3.367c0.494,1.025,1.867,1.713,3.978,1.996
		c0.079-0.077,0.166-0.16,0.259-0.249c0.413-0.392,0.927-0.878,1.234-1.452c7.334-13.683,13.476-25.208,19.607-36.985
		c0.214-0.409,0.046-1.153-0.116-1.874c-0.039-0.177-0.08-0.356-0.115-0.537c-0.178,0.062-0.356,0.119-0.533,0.176
		c-0.711,0.229-1.447,0.464-1.705,0.866C215.352,126.137,207.958,137.809,200.809,149.289z"/>
	<path d="M191.531,168.357c-0.451-0.21-0.892-0.316-1.307-0.316c-1.71,0-2.735,1.765-3.296,3.246
		c-1.069,2.836-2.549,5.861-6.556,5.861c-0.256,0-0.521-0.012-0.795-0.037l0.016,0.294c0.604,0.195,1.205,0.404,1.807,0.613
		c1.51,0.524,3.069,1.066,4.633,1.369c3.618,0.697,6.766-1.006,8.283-4.47C195.66,171.849,194.827,169.887,191.531,168.357z"/>
	<path d="M196.153,157.356c-1.085,2.367-2.206,4.815-3.092,7.285c-0.223,0.617,0.321,2.065,0.97,2.583
		c0.015,0.008,0.114,0.041,0.315,0.041c0.68,0,1.673-0.354,1.933-0.688c1.628-2.092,3.107-4.32,4.541-6.476
		c0.413-0.622,0.822-1.238,1.23-1.845l-4.914-3.063C196.813,155.917,196.482,156.637,196.153,157.356z"/>
	<g>
		<path fill="#4BBA94" d="M236.143,150.386c-1.95-2.67-4.568-4.875-8.494-7.15c-1.525-0.884-3.002-1.656-4.452-2.333
			c0.221-0.133,0.444-0.267,0.665-0.4c0.915-0.551,1.83-1.102,2.747-1.648c0.574-0.34,1.027-0.801,1.393-1.172
			c0.125-0.129,0.242-0.248,0.354-0.348l0.176-0.158l0.087-0.221c0.311-0.795,0.25-1.604-0.169-2.215
			c-0.38-0.559-1.007-0.877-1.72-0.877c-0.103,0-0.208,0.006-0.314,0.02c-1.5,0.193-2.789,0.484-3.944,0.893
			c-2.499,0.879-4.986,1.822-7.471,2.799c3.879-7.29,7.517-14.18,11.146-21.148c0.383-0.733,0.175-1.66-0.027-2.555
			c-0.081-0.362-0.163-0.723-0.199-1.061l-0.072-0.689l-0.632,0.286c-0.313,0.143-0.67,0.256-1.026,0.371
			c-0.88,0.282-1.789,0.574-2.24,1.277c-4.871,7.562-9.718,15.176-14.498,22.761c-0.819-0.047-1.667-0.076-2.57-0.076
			c-0.844,0-1.75,0.02-2.77,0.061c-1.598,0.063-3.009,0.193-4.318,0.396c-1.611,0.252-3.313,0.592-5.199,1.041
			c-1.604,0.383-3.047,0.744-4.469,1.299c-3.033,1.184-5.935,2.912-8.621,5.137c-3.162,2.615-5.857,5.607-8.014,8.889
			c-0.679,1.035-1.272,2.031-1.804,3.005c-2.817,1.87-4.811,4.568-6.511,7.112c-0.252,0.375-0.253,0.77-0.254,1.113
			c0,0.121,0,0.262-0.013,0.422l-0.124,1.51l1.437-0.479c0.233-0.078,0.45-0.146,0.655-0.209c0.452-0.141,0.879-0.271,1.299-0.461
			c0.12-0.054,0.229-0.115,0.347-0.172c-0.146,0.684-0.269,1.379-0.326,2.086c-0.336,4.096,0.262,7.906,1.777,11.326
			c1.192,2.695,2.832,5.078,4.87,7.084c2.303,2.266,5.022,4.045,8.317,5.443c2.418,1.025,5.058,1.758,7.846,2.176
			c1.443,0.219,2.896,0.311,4.436,0.406c0.714,0.045,1.454,0.092,2.228,0.152l0.088,0.008l0.089-0.01
			c0.664-0.064,1.356-0.127,2.069-0.191c1.758-0.16,3.576-0.326,5.424-0.557c1.941-0.242,3.517-0.543,4.951-0.945
			c3.767-1.053,6.849-2.418,9.424-4.174c2.371-1.615,4.027-3.244,5.214-5.129c0.49-0.779,1.101-1.75,0.901-2.977
			c-0.114-0.701-0.379-1.439-0.768-2.131c-0.399-0.717-0.829-1.422-1.244-2.105c-0.69-1.137-1.345-2.213-1.894-3.352
			c-0.768-1.594-0.574-3.193,0.556-4.623c1.432-1.813,2.919-2.889,4.683-3.389c0.653-0.188,1.329-0.275,2.066-0.275
			c0.629,0,1.297,0.066,2.04,0.203c0.902,0.166,1.79,0.447,2.729,0.742c0.503,0.16,1.006,0.318,1.514,0.461
			c0.501,0.139,0.998,0.209,1.479,0.209c1.519,0,2.729-0.691,3.324-1.9c0.566-1.15,0.923-2.318,1.03-3.377
			C239.688,157.14,238.643,153.808,236.143,150.386z M222.802,135.718c1.199-0.422,2.477-0.68,3.738-0.842
			c0.063-0.008,0.127-0.012,0.188-0.012c0.849,0,1.328,0.771,0.957,1.727c-0.419,0.375-0.93,1.012-1.587,1.402
			c-3.913,2.326-7.775,4.758-11.813,6.852c-1.444,0.749-2.896,1.485-4.35,2.214c1.483-2.774,2.932-5.483,4.336-8.12
			C217.091,137.811,219.93,136.728,222.802,135.718z M222.786,114.598c0.258-0.402,0.994-0.638,1.705-0.866
			c0.177-0.057,0.355-0.115,0.533-0.176c0.036,0.18,0.077,0.36,0.116,0.537c0.161,0.72,0.329,1.464,0.115,1.874
			c-6.133,11.777-12.273,23.303-19.607,36.985c-0.309,0.574-0.821,1.061-1.234,1.452c-0.093,0.088-0.18,0.171-0.259,0.249
			c-2.109-0.283-3.482-0.971-3.978-1.996c-0.527-1.098,0.052-2.437,0.631-3.367C207.958,137.809,215.352,126.137,222.786,114.598z
			 M199.021,152.244c-4.402,1.966-8.864,3.8-13.411,5.438c-0.624,0.227-1.019,0.361-1.308,0.361c-0.034,0-0.059-0.017-0.09-0.021
			c-0.016-0.073-0.034-0.147-0.067-0.223l-0.204-0.455c-0.388-0.865-0.787-1.762-1.258-2.625c-0.01-0.018-0.022-0.031-0.033-0.048
			c0.178-0.337,0.639-0.621,1.51-1.118c6.188-3.527,12.49-6.805,18.927-9.793c-1.044,1.667-2.093,3.339-3.127,5
			C199.031,150.251,198.884,151.403,199.021,152.244z M197.138,155.194l4.914,3.063c-0.408,0.607-0.817,1.224-1.23,1.845
			c-1.434,2.155-2.913,4.384-4.541,6.476c-0.26,0.334-1.253,0.688-1.933,0.688c-0.201,0-0.302-0.033-0.315-0.041
			c-0.647-0.518-1.191-1.967-0.97-2.583c0.886-2.47,2.007-4.918,3.092-7.285C196.482,156.637,196.813,155.917,197.138,155.194z
			 M183.197,158.529c-0.141,0.354-0.425,0.541-0.714,0.541c-0.247,0-0.497-0.139-0.664-0.426c-0.497-0.854-0.905-1.771-1.249-2.695
			c-0.086-0.236,0.146-0.727,0.38-0.898c0.052-0.041,0.144-0.055,0.25-0.055c0.237,0,0.542,0.086,0.605,0.203
			c0.531,0.975,0.972,1.998,1.427,3.01C183.274,158.304,183.209,158.448,183.197,158.529z M172.324,154.113
			c2.159-3.291,4.785-6.162,7.813-8.668c2.524-2.09,5.297-3.785,8.347-4.975c1.396-0.545,2.874-0.908,4.338-1.258
			c1.691-0.404,3.4-0.758,5.121-1.025c1.389-0.217,2.8-0.332,4.204-0.387c0.909-0.035,1.819-0.059,2.729-0.059
			c0.653,0,1.308,0.018,1.958,0.045c-0.932,1.481-1.859,2.958-2.786,4.435c-6.741,3.076-13.501,6.541-20.386,10.465
			c-0.935,0.533-1.521,0.948-1.833,1.402c-0.285-0.083-0.543-0.094-0.63-0.094c-0.337,0-0.622,0.084-0.85,0.254
			c-0.227,0.168-0.457,0.46-0.613,0.8c-0.947-0.494-2-0.759-3.151-0.759c-0.646,0-1.317,0.076-2.05,0.229
			c-1.146,0.244-2.184,0.615-3.141,1.075C171.696,155.096,172.004,154.601,172.324,154.113z M165.762,164.667
			c-0.539,0.242-1.121,0.387-1.858,0.633c0.043-0.529-0.029-0.865,0.103-1.063c2.683-4.012,5.688-7.66,10.739-8.738
			c0.612-0.129,1.229-0.209,1.842-0.209c1.032,0,2.047,0.229,3,0.81c0.013,0.064,0.022,0.128,0.045,0.19
			c0.4,1.08,0.833,2.014,1.325,2.857c0.061,0.103,0.135,0.188,0.208,0.275c-0.021,0.118-0.04,0.235-0.076,0.354
			c-0.885,2.945-3.087,4.633-5.835,5.602c-0.068,0.025-0.146,0.035-0.231,0.035c-0.537,0-1.335-0.449-1.73-0.875
			c-1.104-1.184-1.845-1.736-2.812-1.736c-0.615,0-1.322,0.227-2.275,0.65C167.374,163.825,166.59,164.296,165.762,164.667z
			 M238.35,160.468c-0.104,1.037-0.469,2.094-0.933,3.035c-0.438,0.893-1.351,1.342-2.429,1.342c-0.386,0-0.793-0.057-1.207-0.172
			c-1.446-0.404-2.862-0.953-4.331-1.225c-0.734-0.135-1.478-0.219-2.222-0.219c-0.776,0-1.559,0.092-2.341,0.314
			c-2.2,0.623-3.831,2.004-5.192,3.729c-1.363,1.727-1.61,3.727-0.672,5.678c0.916,1.902,2.131,3.662,3.165,5.512
			c0.311,0.553,0.553,1.182,0.651,1.803c0.139,0.852-0.32,1.586-0.76,2.283c-1.261,2.002-3.001,3.52-4.932,4.836
			c-2.794,1.904-5.9,3.135-9.131,4.037c-1.565,0.438-3.188,0.715-4.807,0.916c-2.589,0.324-5.193,0.521-7.467,0.746
			c-2.436-0.193-4.532-0.242-6.592-0.551c-2.607-0.393-5.153-1.068-7.604-2.109c-2.992-1.271-5.688-2.957-8.007-5.234
			c-1.988-1.957-3.527-4.223-4.658-6.775c-1.535-3.467-2.001-7.105-1.693-10.842c0.075-0.92,0.27-1.833,0.482-2.741
			c0.316-0.165,0.627-0.328,0.938-0.468c0.866-0.389,1.442-0.563,1.864-0.563c0.49,0,0.968,0.227,2.08,1.42
			c0.54,0.578,1.586,1.191,2.463,1.191c0.2,0,0.391-0.029,0.563-0.092c3.4-1.197,5.574-3.305,6.462-6.258
			c0.005-0.017,0.006-0.034,0.011-0.051c0.139,0.037,0.28,0.059,0.427,0.059c0.671,0,1.266-0.415,1.572-1.049
			c0.08,0.011,0.157,0.025,0.246,0.025c0.456,0,0.9-0.152,1.646-0.422c3.391-1.223,6.833-2.584,10.395-4.11
			c-0.361,0.812-0.729,1.62-1.1,2.425c-1.093,2.386-2.225,4.854-3.124,7.364c-0.396,1.099,0.391,2.985,1.287,3.703
			c0.216,0.172,0.531,0.26,0.939,0.26c0.911,0,2.223-0.432,2.722-1.074c1.65-2.121,3.143-4.365,4.585-6.536
			c0.509-0.766,1.013-1.525,1.518-2.268l0.292-0.43l-6.183-3.853c0.686-0.298,1.369-0.593,2.064-0.903
			c0.708,1.322,2.406,2.179,4.938,2.474l0.257,0.03l0.173-0.193c0.1-0.111,0.235-0.238,0.389-0.383
			c0.44-0.418,1.044-0.99,1.428-1.706c0.882-1.646,1.744-3.256,2.595-4.844c1.831-0.908,3.692-1.845,5.622-2.846
			c2.519-1.305,4.99-2.755,7.401-4.201c1.71,0.768,3.376,1.625,5.003,2.568c3.125,1.813,6.023,3.912,8.188,6.875
			C237.402,153.802,238.712,156.896,238.35,160.468z"/>
		<path fill="#4BBA94" d="M206.496,168.558c-0.042-0.002-0.084-0.002-0.126-0.002c-3.271,0-5.43,2.359-5.522,5.348
			c-0.093,3,2.272,5.494,5.441,5.539c0.021,0,0.046,0,0.067,0c2.814,0,5.423-2.211,5.412-5.438
			C211.758,170.829,209.331,168.609,206.496,168.558z M209.51,177.134c-0.828,0.832-1.978,1.309-3.152,1.309h-0.057
			c-1.269-0.018-2.428-0.51-3.264-1.385c-0.805-0.84-1.227-1.949-1.19-3.123c0.08-2.578,1.939-4.379,4.522-4.379l0.105,0.002
			c2.438,0.043,4.284,1.957,4.292,4.451C210.772,175.544,210.086,176.556,209.51,177.134z"/>
		<path fill="#4BBA94" d="M191.953,167.45c-0.584-0.271-1.166-0.409-1.729-0.409c-1.259,0-3.015,0.675-4.23,3.893
			c-1.247,3.303-2.566,5.215-5.62,5.215c-0.392,0-0.813-0.033-1.252-0.099l-0.604-0.09l0.115,2.19l0.329,0.104
			c0.706,0.222,1.408,0.466,2.109,0.709c1.543,0.535,3.138,1.089,4.771,1.406c0.608,0.118,1.214,0.177,1.801,0.177
			c3.367,0,6.134-1.905,7.59-5.227C196.786,171.77,195.714,169.197,191.953,167.45z M194.316,174.918
			c-1.519,3.463-4.665,5.167-8.283,4.47c-1.563-0.303-3.123-0.845-4.633-1.369c-0.602-0.208-1.202-0.417-1.807-0.613l-0.016-0.294
			c0.273,0.025,0.539,0.037,0.795,0.037c4.007,0,5.485-3.025,6.556-5.861c0.561-1.481,1.586-3.246,3.296-3.246
			c0.415,0,0.854,0.106,1.307,0.316C194.827,169.887,195.66,171.849,194.316,174.918z"/>
	</g>
</g>
</svg>
