<?xml version="1.0" encoding="utf-8"?>
<!-- Generator: Adobe Illustrator 16.0.3, SVG Export Plug-In . SVG Version: 6.00 Build 0)  -->
<!DOCTYPE svg PUBLIC "-//W3C//DTD SVG 1.1//EN" "http://www.w3.org/Graphics/SVG/1.1/DTD/svg11.dtd">
<svg version="1.1"
	 id="svg2" xmlns:rdf="http://www.w3.org/1999/02/22-rdf-syntax-ns#" xmlns:cc="http://creativecommons.org/ns#" xmlns:svg="http://www.w3.org/2000/svg" xmlns:dc="http://purl.org/dc/elements/1.1/" xmlns:inkscape="http://www.inkscape.org/namespaces/inkscape" xmlns:sodipodi="http://sodipodi.sourceforge.net/DTD/sodipodi-0.dtd" sodipodi:docname="dibujo.svg" inkscape:version="0.48.4 r"
	 xmlns="http://www.w3.org/2000/svg" xmlns:xlink="http://www.w3.org/1999/xlink" x="0px" y="0px" width="47.187px" height="50px"
	 viewBox="118.038 95.521 47.187 50" enable-background="new 118.038 95.521 47.187 50" xml:space="preserve">
<sodipodi:namedview  id="base" showgrid="false" borderopacity="1.0" bordercolor="#666666" inkscape:cy="100.36547" inkscape:cx="471.00049" inkscape:zoom="1.8757812" pagecolor="#ffffff" inkscape:pageopacity="0.0" inkscape:document-units="px" inkscape:pageshadow="2" inkscape:window-y="-8" inkscape:current-layer="layer1" inkscape:window-width="1440" inkscape:window-height="878" inkscape:window-x="-8" inkscape:window-maximized="1">
	</sodipodi:namedview>
<path id="path3520" inkscape:connector-curvature="0" fill="#6093A5" d="M118.038,108.502c-0.004,3.211,1.234,6.465,3.692,8.92
	l9.039,9.041c2.463,2.465,5.726,3.691,8.925,3.691h0.021c3.22,0,6.447-1.26,8.877-3.691l0.385-0.385l-5.516-5.516l-0.385,0.385
	c-0.949,0.949-2.147,1.404-3.363,1.408c-1.271,0-2.484-0.465-3.434-1.408l-9.037-9.039c-0.947-0.949-1.404-2.158-1.408-3.406
	c0.004-1.236,0.461-2.441,1.406-3.389l0.385-0.385c0.949-0.945,2.154-1.402,3.398-1.408c1.242,0.01,2.448,0.463,3.396,1.408
	l3.717,3.717c1.521,1.521,3.988,1.521,5.516,0c1.521-1.523,1.521-3.992,0-5.516l-3.717-3.717c-2.453-2.455-5.701-3.697-8.912-3.691
	c-3.214-0.006-6.461,1.236-8.913,3.691l-0.385,0.383C119.282,102.045,118.036,105.289,118.038,108.502L118.038,108.502z
	 M139.43,132.418c-1.522,1.523-1.522,3.992,0,5.516l3.896,3.896c2.465,2.467,5.729,3.691,8.926,3.691h0.021
	c3.218,0,6.448-1.258,8.878-3.691l0.383-0.387c2.463-2.455,3.698-5.711,3.692-8.924c0.004-3.213-1.242-6.455-3.692-8.898
	l-9.039-9.041c-2.451-2.453-5.699-3.695-8.91-3.691c-2.519,0-5.061,0.76-7.22,2.271c-0.358,0.182-0.696,0.422-0.993,0.721
	l-0.699,0.697l-0.385,0.387l0,0l0,0l5.516,5.516l0.385-0.387c0.948-0.945,2.152-1.4,3.396-1.406c1.244,0.01,2.449,0.461,3.398,1.406
	l9.04,9.041c0.944,0.947,1.401,2.152,1.406,3.385c-0.005,1.252-0.462,2.463-1.406,3.412l-0.387,0.383
	c-0.947,0.947-2.148,1.404-3.363,1.406c-1.271,0-2.485-0.465-3.435-1.406l-3.895-3.896
	C143.421,130.899,140.952,130.899,139.43,132.418L139.43,132.418z"/>
</svg>
