<?xml version="1.0" encoding="utf-8"?>
<!-- Generator: Adobe Illustrator 16.0.3, SVG Export Plug-In . SVG Version: 6.00 Build 0)  -->
<!DOCTYPE svg PUBLIC "-//W3C//DTD SVG 1.1//EN" "http://www.w3.org/Graphics/SVG/1.1/DTD/svg11.dtd">
<svg version="1.1"
	 id="svg2" xmlns:rdf="http://www.w3.org/1999/02/22-rdf-syntax-ns#" xmlns:cc="http://creativecommons.org/ns#" xmlns:svg="http://www.w3.org/2000/svg" xmlns:dc="http://purl.org/dc/elements/1.1/" xmlns:inkscape="http://www.inkscape.org/namespaces/inkscape" xmlns:sodipodi="http://sodipodi.sourceforge.net/DTD/sodipodi-0.dtd" sodipodi:docname="dibujo.svg" inkscape:version="0.48.4 r"
	 xmlns="http://www.w3.org/2000/svg" xmlns:xlink="http://www.w3.org/1999/xlink" x="0px" y="0px" width="76.593px"
	 height="60.886px" viewBox="119.275 187.757 76.593 60.886" enable-background="new 119.275 187.757 76.593 60.886"
	 xml:space="preserve">
<sodipodi:namedview  id="base" showgrid="false" borderopacity="1.0" bordercolor="#666666" inkscape:cy="100.36547" inkscape:cx="471.00049" inkscape:zoom="1.8757812" pagecolor="#ffffff" inkscape:pageopacity="0.0" inkscape:document-units="px" inkscape:pageshadow="2" inkscape:window-y="-8" inkscape:current-layer="layer1" inkscape:window-width="1440" inkscape:window-height="878" inkscape:window-x="-8" inkscape:window-maximized="1">
	</sodipodi:namedview>
<g>
	<path fill="#6093A5" d="M152.382,229.268c-0.691-0.793-1.33-1.651-1.924-2.463c-0.427-0.585-0.794-1.195-1.097-1.713
		c-0.064-0.109-0.085-0.117-0.174-0.134c-1.122-0.214-2.24-0.435-3.358-0.655l-1.735-0.341c-0.973-0.19-1.949-0.378-2.924-0.565
		l-1.177-0.226l-0.47-0.445l0.291-0.379l0.932-1.077c0.784-0.905,1.565-1.808,2.351-2.709c0.973-1.118,1.951-2.233,2.939-3.342
		c0.022-0.025,0.032-0.036,0.017-0.149c0-0.002,0-0.005,0-0.008c-0.078-0.578-0.121-1.184-0.144-1.812
		c-0.179-0.103-0.208-0.473-0.347-0.664c-0.338-0.467-0.043-0.686,0.317-0.895c0.007-0.004,0.014-0.009,0.021-0.013
		c0.006-0.202,0.018-0.397,0.028-0.595v-0.001c-0.178,0.21-0.376,0.393-0.682,0.354c-0.414-0.053-0.325-0.502-0.439-0.785
		c-0.048-0.121-0.104-0.238-0.16-0.355c-0.107-0.226-0.16-0.448-0.163-0.656c-0.009-0.625,0.428-1.121,1.189-1.174
		c0.463-0.031,0.359,0.396,0.418,0.665c0.091-0.707,0.222-1.466,0.401-2.346c0.02-0.097,0.037-0.188,0.058-0.288
		c0.122-0.585,0.293-1.154,0.506-1.807c-3.506-4.486-8.615-7.04-14.591-5.68c-7.604,1.729-10.604,8.227-10.083,16.467
		c0.137,2.156-0.508,4.588-1.488,6.545c-2.35,4.686-1.957,9.264,0,13.781c0.433,1.004,2.158,1.447,3.29,2.146
		c0.708-1.229,1.676-2.385,2.042-3.707c0.309-1.117-0.081-2.428-0.121-3.039c2.702,4.912,5.392,10.166,8.483,15.17
		c0.764,1.238,2.979,2.471,4.265,2.242c1.272-0.229,2.311-2.238,3.255-3.605c0.395-0.572,0.015-1.838,0.458-2.186
		c0.694-0.539,1.827-0.84,2.698-0.713c0.563,0.082,0.864,1.354,1.497,1.662c1.489,0.73,3.376,1.982,4.599,1.561
		c1.233-0.424,2.569-2.586,2.626-4.033c0.138-3.467,0.108-6.934,0.049-10.36C153.476,230.412,152.903,229.865,152.382,229.268z
		 M145.104,213.43c0.22-0.184,0.264,0.16,0.338,0.258c0.146,0.522-0.117,0.766-0.421,0.959c-0.101,0.064-0.207,0.122-0.303,0.184
		c-0.274,0.176-0.413-0.092-0.445-0.322c-0.034-0.233,0.025-0.403,0.131-0.54c0.006-0.007,0.014-0.014,0.02-0.021
		c0.031-0.037,0.063-0.072,0.1-0.105c0.01-0.009,0.022-0.017,0.033-0.025c0.035-0.029,0.07-0.058,0.107-0.085
		C144.811,213.626,144.973,213.537,145.104,213.43z M144.579,212.793c-0.043,0.309-0.199,0.575-0.479,0.726
		c-0.031,0.017-0.06,0.023-0.089,0.034c-0.397,0.14-0.635-0.265-0.863-0.512c-0.541-0.588-0.825-1.355-1.003-2.092
		c-0.202-0.836,0.747-0.691,1.164-1.004c0.419-0.316,0.48,0.125,0.582,0.355c0.194,0.445,0.349,0.91,0.546,1.441
		c0.04,0.178,0.108,0.43,0.145,0.686c0.016,0.115,0.018,0.227,0.006,0.335C144.586,212.773,144.581,212.783,144.579,212.793z
		 M143.102,214.221c0.014-0.056,0.016-0.117-0.001-0.185c0.11,0.008,0.201,0.036,0.278,0.077c0.23,0.125,0.332,0.379,0.418,0.634
		c0.026,0.076,0.043,0.147,0.052,0.215c0.058,0.476-0.304,0.747-0.698,0.921c-0.134,0.059-0.225,0.066-0.287,0.041
		c-0.003-0.002-0.005-0.005-0.008-0.007c-0.026-0.013-0.049-0.029-0.066-0.053c-0.011-0.014-0.017-0.033-0.024-0.05
		c-0.007-0.014-0.016-0.026-0.021-0.042c-0.007-0.021-0.011-0.043-0.016-0.064c-0.029-0.127-0.039-0.27-0.106-0.331
		c-0.048-0.086-0.075-0.164-0.085-0.234C142.477,214.722,143.018,214.558,143.102,214.221z M140.519,215.71
		c0.157-0.185,0.38-0.327,0.639-0.437c0.535-0.23,0.859,0.01,0.982,0.617c0.019,0.118,0.021,0.221,0.009,0.31
		c-0.085,0.625-0.853,0.588-1.275,0.87c-0.406,0.268-0.464-0.156-0.534-0.414C140.23,216.248,140.321,215.944,140.519,215.71z
		 M141.563,214.643c-0.128,0.041-0.262,0.071-0.403,0.087c-0.475,0.057-0.712-0.203-0.808-0.648
		c-0.075-0.348-0.179-0.691-0.27-1.035c-0.012,0.002-0.022,0.006-0.034,0.008c-0.061-0.184-0.12-0.369-0.182-0.555
		c-0.07-0.219-0.091-0.425-0.069-0.609c0.067-0.554,0.527-0.918,1.224-0.889c0.091,0.002,0.196,0.023,0.268,0.072
		c0.292,0.209,1.149,2.575,1.023,2.902C142.172,214.346,141.895,214.539,141.563,214.643z M134.504,216.827
		c-0.424,0.07-0.675-0.134-0.823-0.443c-0.049-0.103-0.088-0.218-0.117-0.338c-0.117-0.471-0.141-0.971-0.293-1.428
		c-0.102-0.3-0.197-0.588-0.22-0.825c-0.038-0.395,0.125-0.648,0.794-0.579c0.53-0.109,0.85-0.174,1.168-0.242
		c0.421-0.092,0.652,0.039,0.774,0.488c0.188,0.689,0.427,1.367,0.696,2.031c0.048,0.118,0.076,0.225,0.083,0.322
		c0.023,0.291-0.133,0.49-0.462,0.602C135.583,216.59,135.046,216.739,134.504,216.827z M136.427,216.919
		c0.288-0.256,0.587-0.084,0.655,0.361c0.026,0.165,0.057,0.331,0.071,0.486c0.043,0.466-0.055,0.836-0.835,0.807
		c-0.839,0.473-1.141-0.068-1.242-0.732c-0.021-0.138-0.022-0.25-0.008-0.342C135.171,216.858,136.057,217.248,136.427,216.919z
		 M139.711,217.234c0.032,0.609-0.924,0.791-1.364,0.736c-0.805-0.098-0.377-1.051-0.72-1.568
		C138.399,216.669,139.642,215.881,139.711,217.234z M139.562,215.639c-0.292,0.319-0.872,0.386-1.758,0.217
		c-0.379-0.074-0.729-0.26-0.744-0.66c-0.027-0.646-0.347-1.18-0.551-1.756c-0.182-0.512-0.168-0.893,0.48-0.982
		c0.004,0,0.008-0.003,0.013-0.004c0.027-0.005,0.055-0.015,0.081-0.021c1.84-0.592,1.849-0.594,2.487,1.424l0.015,0.051
		C139.854,214.747,139.853,215.319,139.562,215.639z M131.064,216.911c0.001,0,0.002-0.001,0.004-0.001l0,0
		c-0.001-0.001-0.002,0-0.003-0.001c-1.01-0.219-0.626-1.215-0.996-1.791c-0.016-0.064-0.031-0.127-0.046-0.191
		c0.29-0.328-0.671-0.988,0.372-1.164c0.698-0.118,1.137-0.198,1.431-0.198c0.491,0.001,0.578,0.23,0.795,0.895
		c0.226,0.684,0.688,1.408-0.091,2.059c-0.128,0.1-0.256,0.201-0.384,0.305C131.783,216.823,131.443,217.105,131.064,216.911z
		 M127.981,217.544c0.412,0.023,0.974,0.148,1.063,0.766c0.022,0.104,0.066,0.246,0.072,0.362c0.003,0.058-0.003,0.109-0.026,0.146
		c-0.023,0.037-0.063,0.058-0.128,0.057c-0.447-0.01-1.018-0.035-1.135-0.656c-0.022-0.116-0.094-0.291-0.105-0.435
		C127.712,217.642,127.762,217.532,127.981,217.544z M128.665,217.176c-0.205-0.026-0.393-0.194-0.565-0.49
		c-0.146-0.252-0.29-0.51-0.389-0.783c-0.209-0.578-0.654-1.357-0.32-1.742c0.389-0.449,1.24-0.379,1.918-0.238
		c0.269,0.963,0.762,1.926,0.016,2.895C129.089,217.086,128.869,217.203,128.665,217.176z M125.488,215.662
		c-0.095-0.164-0.164-0.349-0.197-0.548c-0.059-0.359-0.549-0.898,0.082-1.146c0.215-0.084,0.404-0.126,0.573-0.124
		c0.505,0.004,0.817,0.399,1.031,1.22c-0.007,0.377,0.541,0.943-0.196,1.254c-0.025,0.011-0.053,0.011-0.079,0.018
		C126.282,216.45,125.771,216.151,125.488,215.662z M124.405,213.871c0.508,0.238,0.402,0.615,0.314,0.977
		C124.467,214.573,124.281,214.286,124.405,213.871z M127.111,217.939c-0.422-0.402-0.778-0.742-1.157-1.105
		C126.855,216.598,127.18,216.977,127.111,217.939z M129.907,218.682c-0.283-0.482-0.386-1.018-0.297-1.582
		c0.097-0.121,0.193-0.24,0.292-0.361c0.338,0.335,0.62,0.785,1.146,0.74c0.075-0.006,0.155-0.022,0.241-0.05
		c0.236,0.162,0.322,0.427,0.333,0.671c0.018,0.357,0.59,0.842,0.001,1.047c-0.218,0.076-0.457,0.129-0.691,0.127
		C130.54,219.271,130.161,219.121,129.907,218.682z M132.98,216.829c0.419-0.112,1.27,0.766,1.468,1.496
		c0.087,0.318,0.396,0.67-0.239,0.801c-0.302,0.063-0.539,0.104-0.73,0.111c-0.575,0.021-0.74-0.271-0.996-1.229
		C132.243,217.51,132.247,217.027,132.98,216.829z M142.855,203.508c0.828,0,1.5,0.672,1.5,1.5c0,0.828-0.672,1.5-1.5,1.5
		c-0.828,0-1.5-0.672-1.5-1.5C141.355,204.18,142.028,203.508,142.855,203.508z M125.952,208.208c0.829,0,1.5,0.672,1.5,1.5
		c0,0.828-0.671,1.5-1.5,1.5c-0.828,0-1.5-0.672-1.5-1.5C124.452,208.881,125.124,208.208,125.952,208.208z"/>
	<path fill="#6093A5" d="M195.863,211.335c-0.007-0.642-0.053-1.26-0.137-1.837c-0.123-0.845-0.286-1.766-0.5-2.816
		c-0.122-0.604-0.262-1.136-0.427-1.626c-0.292-0.855-0.617-1.723-0.965-2.576c-0.22-0.541-0.479-1.084-0.768-1.616
		c-0.354-0.652-0.78-1.414-1.249-2.124c-0.398-0.602-0.86-1.226-1.455-1.963c-0.451-0.559-0.945-1.118-1.511-1.708
		c-0.418-0.436-0.883-0.872-1.42-1.331c-0.45-0.386-0.923-0.743-1.396-1.1l-0.138-0.104c-0.292-0.22-0.598-0.423-0.902-0.627
		l-0.098-0.065c-0.326-0.218-0.65-0.435-0.984-0.636c-0.338-0.207-0.676-0.408-1.027-0.582c-0.705-0.348-1.414-0.691-2.137-1.002
		c-0.425-0.184-0.866-0.333-1.305-0.483l-0.277-0.095c-0.434-0.151-0.831-0.29-1.234-0.392c-0.597-0.155-1.287-0.33-1.964-0.447
		c-0.849-0.151-1.693-0.271-2.511-0.354c-1.021-0.105-2.082-0.122-3.129-0.055l-0.31,0.019c-0.538,0.032-1.094,0.065-1.625,0.142
		c-0.809,0.115-1.602,0.268-2.543,0.461c-0.603,0.122-1.076,0.243-1.491,0.379c-0.781,0.259-1.587,0.553-2.462,0.9
		c-0.55,0.217-1.118,0.476-1.689,0.768c-1.147,0.591-2.241,1.264-3.251,1.998c-0.99,0.725-1.904,1.5-2.715,2.304
		c-1.066,1.051-1.859,1.967-2.497,2.884c-0.503,0.722-0.998,1.45-1.472,2.191c-0.236,0.369-0.46,0.774-0.686,1.241
		c-0.326,0.677-0.595,1.278-0.82,1.84c-0.264,0.652-0.508,1.317-0.724,1.979c-0.22,0.669-0.391,1.231-0.51,1.804
		c-0.216,1.025-0.362,1.869-0.46,2.654c-0.096,0.777-0.156,1.619-0.177,2.5c-0.027,1.122,0.022,2.129,0.151,3.079
		c0.033,0.248,0.041,0.614-0.265,0.95c-0.983,1.102-1.958,2.214-2.928,3.33c-0.786,0.901-1.566,1.803-2.349,2.707l-0.384,0.444
		l0.24,0.046c0.977,0.188,1.953,0.375,2.928,0.566l1.736,0.342c1.117,0.22,2.232,0.44,3.351,0.654
		c0.385,0.072,0.648,0.261,0.853,0.613c0.289,0.496,0.64,1.078,1.04,1.626c0.581,0.793,1.205,1.632,1.871,2.396
		c0.539,0.618,1.155,1.199,1.752,1.762l0.121,0.113c0.372,0.35,0.802,0.709,1.314,1.099c0.513,0.388,1.075,0.783,1.716,1.208
		c0.556,0.366,1.059,0.692,1.583,0.966c0.69,0.36,1.404,0.683,2.116,1.005l0.13,0.059c0.406,0.183,0.823,0.343,1.244,0.489
		c0.625,0.215,1.257,0.427,1.898,0.606c1.214,0.338,2.464,0.576,3.717,0.705c1.43,0.149,2.477,0.191,3.569,0.125
		c0.819-0.048,1.685-0.127,2.574-0.235c1.034-0.124,2.126-0.359,3.44-0.742c0.477-0.14,0.993-0.316,1.622-0.556
		c0.619-0.239,1.23-0.5,1.841-0.766c0.754-0.333,1.538-0.753,2.462-1.323c0.927-0.568,1.825-1.206,2.67-1.895
		c0.941-0.77,1.668-1.447,2.289-2.134l0.068-0.075c0.476-0.528,0.953-1.057,1.398-1.613c0.62-0.776,1.229-1.671,1.863-2.736
		c0.285-0.482,0.55-0.981,0.806-1.481c0.129-0.256,0.245-0.52,0.36-0.783l0.128-0.292c0.058-0.136,0.115-0.282,0.169-0.427
		l0.191-0.498c0.173-0.447,0.346-0.895,0.503-1.347c0.158-0.447,0.293-0.902,0.412-1.359c0.135-0.533,0.265-1.057,0.351-1.589
		l0.049-0.304c0.125-0.77,0.255-1.566,0.312-2.344C195.877,213.277,195.873,212.276,195.863,211.335z M178.189,222.309
		c-0.712,1.482-1.861,2.613-3.058,3.689c-1.997,1.797-4.182,3.32-6.86,3.898c-0.868,0.186-1.818,0.209-2.699,0.084
		c-1.445-0.203-2.301-1.17-2.229-2.633c0.065-1.35,0.234-2.75,0.683-4.014c1.379-3.906,2.911-7.76,4.387-11.633
		c0.289-0.76,0.639-1.504,0.858-2.283c0.095-0.344,0.062-0.904-0.155-1.102c-0.204-0.186-0.823-0.166-1.086,0.016
		c-0.725,0.496-1.396,1.084-2.016,1.709c-0.724,0.732-1.353,1.557-2.056,2.313c-0.302,0.324-0.668,0.711-1.171,0.313
		c-0.458-0.361-0.357-0.824-0.071-1.221c2.486-3.459,5.433-6.275,9.892-6.92c0.306-0.041,0.621-0.031,0.931-0.045
		c2.84,0.012,4.248,1.775,3.504,4.719c-0.55,2.174-1.386,4.277-2.143,6.395c-0.902,2.527-1.865,5.033-2.781,7.555
		c-0.179,0.492-0.311,1.014-0.375,1.531c-0.088,0.693,0.412,1.072,1.038,0.768c0.465-0.229,0.912-0.545,1.275-0.914
		c0.995-1.006,1.932-2.068,2.913-3.088c0.261-0.271,0.533-0.723,1.015-0.369C178.423,221.4,178.405,221.861,178.189,222.309z
		 M174.24,202.258c-1.67-0.689-2.49-2.684-1.896-4.617c0.688-2.24,2.981-3.574,5.261-3.061c1.667,0.375,2.707,1.75,2.715,3.59
		C180.333,201.284,177.118,203.446,174.24,202.258z"/>
</g>
</svg>
