<?xml version="1.0" encoding="utf-8"?>
<!-- Generator: Adobe Illustrator 16.0.3, SVG Export Plug-In . SVG Version: 6.00 Build 0)  -->
<!DOCTYPE svg PUBLIC "-//W3C//DTD SVG 1.1//EN" "http://www.w3.org/Graphics/SVG/1.1/DTD/svg11.dtd">
<svg version="1.1"
	 id="svg2" xmlns:rdf="http://www.w3.org/1999/02/22-rdf-syntax-ns#" xmlns:cc="http://creativecommons.org/ns#" xmlns:svg="http://www.w3.org/2000/svg" xmlns:dc="http://purl.org/dc/elements/1.1/" xmlns:inkscape="http://www.inkscape.org/namespaces/inkscape" xmlns:sodipodi="http://sodipodi.sourceforge.net/DTD/sodipodi-0.dtd" sodipodi:docname="dibujo.svg" inkscape:version="0.48.4 r"
	 xmlns="http://www.w3.org/2000/svg" xmlns:xlink="http://www.w3.org/1999/xlink" x="0px" y="0px" width="54.26px"
	 height="49.999px" viewBox="60.236 54.136 54.26 49.999" enable-background="new 60.236 54.136 54.26 49.999" xml:space="preserve"
	>
<sodipodi:namedview  id="base" showgrid="false" borderopacity="1.0" bordercolor="#666666" inkscape:cy="100.36547" inkscape:cx="471.00049" inkscape:zoom="1.8757812" pagecolor="#ffffff" inkscape:pageopacity="0.0" inkscape:document-units="px" inkscape:pageshadow="2" inkscape:window-y="-8" inkscape:current-layer="layer1" inkscape:window-width="1440" inkscape:window-height="878" inkscape:window-x="-8" inkscape:window-maximized="1">
	</sodipodi:namedview>
<g id="g3544" transform="translate(561.98666,863.72109)">
	<g id="ypddPS_1_">
		<g id="g3547">
			<path id="path3549" inkscape:connector-curvature="0" fill="#6093A5" d="M-495.061-788.536c-0.32-1.896-0.697-3.603-0.854-5.326
				c-0.064-0.721,0.123-1.654,0.563-2.197c1.955-2.42,4.006-4.768,6.105-7.063c0.439-0.479,1.212-0.787,1.878-0.908
				c6.989-1.271,13.991-2.49,20.987-3.727c3.187-0.561,6.369-1.119,9.551-1.697c2.24-0.406,2.986,0.078,3.373,2.285
				c1.966,11.232,3.929,22.465,5.891,33.697c0.521,2.994-1.688,6.199-4.839,6.826c-4.297,0.855-8.61,1.627-12.927,2.396
				c-8.5,1.521-17.01,2.998-25.508,4.533c-3.557,0.643-6.451-1.115-7.123-4.67c-1.321-6.979-2.526-13.984-3.752-20.982
				c-0.219-1.246,0.601-2.133,2.084-2.395C-498.166-788.022-496.699-788.26-495.061-788.536z M-486.52-801.215
				c0.271,1.533,0.526,2.98,0.78,4.43c0.248,1.422,0.043,1.74-1.379,2.004c-1.591,0.297-3.179,0.639-4.78,0.803
				c-1.018,0.104-1.05,0.594-0.91,1.357c1.248,6.949,2.571,13.889,3.688,20.859c0.449,2.795,1.634,5.557,0.714,8.555
				c0.343-0.037,0.593-0.049,0.838-0.092c4.647-0.822,9.3-1.648,13.946-2.473c6.41-1.137,12.826-2.236,19.229-3.422
				c3.491-0.646,4.237-1.869,3.627-5.361c-1.328-7.586-2.627-15.178-3.947-22.766c-0.528-3.047-1.086-6.088-1.646-9.217
				C-466.432-804.76-476.391-803.002-486.52-801.215L-486.52-801.215z M-491.159-762.945c1.256-1.08,1.267-2.273,1.047-3.527
				c-0.741-4.23-1.481-8.461-2.233-12.689c-0.504-2.84-1.027-5.676-1.549-8.561c-0.563,0.105-1.002,0.189-1.576,0.299
				C-494.04-779.296-492.619-771.232-491.159-762.945L-491.159-762.945L-491.159-762.945z M-498.986-786.86
				c0.102,0.52,0.172,0.846,0.229,1.176c1.199,6.824,2.396,13.648,3.594,20.475c0.205,1.182,0.752,2.08,2.105,2.615
				c-1.461-8.271-2.883-16.33-4.32-24.482C-497.957-786.997-498.404-786.938-498.986-786.86z M-491.6-795.967
				c1.512-0.287,2.684-0.508,3.912-0.74c-0.207-1.053-0.379-1.938-0.602-3.059C-489.409-798.477-490.37-797.375-491.6-795.967z"/>
		</g>
	</g>
	<g id="g3551">
		
			<rect id="rect3553" x="-486.825" y="-795.282" transform="matrix(-0.9847 0.174 -0.174 -0.9847 -1076.4924 -1487.7925)" fill="#6093A5" width="27.6" height="8.39"/>
		
			<rect id="rect3555" x="-485.151" y="-782.733" transform="matrix(-0.9847 0.174 -0.174 -0.9847 -1082.3625 -1468.5479)" fill="#6093A5" width="16.698" height="2.019"/>
		<g id="g3557">
			<path id="path3559" inkscape:connector-curvature="0" fill="#6093A5" d="M-458.938-784.803l1.566,8.883l-6.159,1.088
				l-1.569-8.881L-458.938-784.803 M-458.108-785.99l-8.18,1.445l1.927,10.9l8.179-1.445L-458.108-785.99L-458.108-785.99z"/>
		</g>
		
			<rect id="rect3561" x="-484.395" y="-778.319" transform="matrix(-0.9847 0.174 -0.174 -0.9847 -1080.0935 -1459.9205)" fill="#6093A5" width="16.698" height="2.017"/>
		
			<rect id="rect3563" x="-483.582" y="-773.796" transform="matrix(-0.9847 0.174 -0.174 -0.9847 -1077.6863 -1451.0925)" fill="#6093A5" width="16.699" height="2.017"/>
	</g>
</g>
</svg>
