<?xml version="1.0" encoding="utf-8"?>
<!-- Generator: Adobe Illustrator 16.0.3, SVG Export Plug-In . SVG Version: 6.00 Build 0)  -->
<!DOCTYPE svg PUBLIC "-//W3C//DTD SVG 1.1//EN" "http://www.w3.org/Graphics/SVG/1.1/DTD/svg11.dtd">
<svg version="1.1"
	 id="svg2" xmlns:rdf="http://www.w3.org/1999/02/22-rdf-syntax-ns#" xmlns:cc="http://creativecommons.org/ns#" xmlns:svg="http://www.w3.org/2000/svg" xmlns:dc="http://purl.org/dc/elements/1.1/" xmlns:inkscape="http://www.inkscape.org/namespaces/inkscape" xmlns:sodipodi="http://sodipodi.sourceforge.net/DTD/sodipodi-0.dtd" sodipodi:docname="dibujo.svg" inkscape:version="0.48.4 r"
	 xmlns="http://www.w3.org/2000/svg" xmlns:xlink="http://www.w3.org/1999/xlink" x="0px" y="0px" width="111.295px"
	 height="116.119px" viewBox="131.732 304.826 111.295 116.119" enable-background="new 131.732 304.826 111.295 116.119"
	 xml:space="preserve">
<sodipodi:namedview  id="base" showgrid="false" borderopacity="1.0" bordercolor="#666666" inkscape:cy="100.36547" inkscape:cx="471.00049" inkscape:zoom="1.8757812" pagecolor="#ffffff" inkscape:pageopacity="0.0" inkscape:document-units="px" inkscape:pageshadow="2" inkscape:window-y="-8" inkscape:current-layer="layer1" inkscape:window-width="1440" inkscape:window-height="878" inkscape:window-x="-8" inkscape:window-maximized="1">
	</sodipodi:namedview>
<g>
	<path fill="none" d="M177.975,402.182c-0.132-0.033-0.271-0.051-0.409-0.076C177.702,402.13,177.843,402.148,177.975,402.182z"/>
	<path fill="none" d="M177.103,402.028c-0.143-0.016-0.293-0.017-0.438-0.025C176.81,402.011,176.96,402.012,177.103,402.028z"/>
	<path fill="none" d="M178.786,402.446c-0.122-0.05-0.254-0.085-0.38-0.127C178.534,402.361,178.664,402.395,178.786,402.446z"/>
	<path fill="none" d="M180.557,403.653c0.089,0.09,0.186,0.171,0.27,0.269C180.743,403.824,180.646,403.743,180.557,403.653z"/>
	<path fill="none" d="M167.077,402.424c-0.137-0.008-0.271-0.018-0.407-0.028C166.806,402.408,166.941,402.417,167.077,402.424z"/>
	<path fill="none" d="M168.54,402.474c0.021,0,0.044-0.001,0.064-0.001c-0.07,0-0.141-0.003-0.211-0.003
		C168.443,402.469,168.491,402.474,168.54,402.474z"/>
	<path fill="none" d="M179.534,402.822c-0.111-0.067-0.23-0.118-0.347-0.177C179.302,402.704,179.421,402.754,179.534,402.822z"/>
	<path fill="none" d="M180.213,403.313c-0.1-0.084-0.208-0.151-0.313-0.228C180.005,403.163,180.115,403.229,180.213,403.313z"/>
	<path fill="none" d="M181.368,404.647c-0.063-0.099-0.138-0.182-0.203-0.275C181.23,404.465,181.303,404.548,181.368,404.647z"/>
	<path fill="#FFFFFF" d="M207.796,377.192c-0.225,0.045-0.451,0.07-0.677,0.104C207.345,377.263,207.573,377.238,207.796,377.192z"
		/>
	<path fill="#FFFFFF" d="M206.482,377.393c-0.226,0.022-0.453,0.024-0.68,0.035C206.029,377.416,206.256,377.415,206.482,377.393z"
		/>
	<path fill="#FFFFFF" d="M211.559,375.865c-0.202,0.104-0.411,0.189-0.617,0.284C211.148,376.054,211.357,375.968,211.559,375.865z"
		/>
	<path fill="#FFFFFF" d="M210.343,376.421c-0.212,0.085-0.429,0.153-0.645,0.229C209.915,376.575,210.131,376.506,210.343,376.421z"
		/>
	<path fill="#FFFFFF" d="M209.085,376.867c-0.218,0.066-0.44,0.113-0.661,0.169C208.645,376.979,208.868,376.933,209.085,376.867z"
		/>
	<path fill="#FFFFFF" d="M198.387,372.993c-0.1-0.179-0.203-0.347-0.311-0.505C198.184,372.646,198.288,372.813,198.387,372.993z"/>
	<path fill="#FFFFFF" d="M194.188,370.83c-0.098-0.006-0.196-0.011-0.291-0.024C193.993,370.82,194.089,370.825,194.188,370.83z"/>
	<path fill="#FFFFFF" d="M195.757,370.899c-0.103-0.018-0.205-0.033-0.313-0.043C195.552,370.867,195.656,370.881,195.757,370.899z"
		/>
	<path fill="#FFFFFF" d="M196.292,371.037c-0.093-0.032-0.186-0.062-0.282-0.086C196.107,370.975,196.2,371.004,196.292,371.037z"/>
	<path fill="#FFFFFF" d="M197.208,371.538c-0.079-0.062-0.158-0.124-0.241-0.178C197.049,371.414,197.128,371.476,197.208,371.538z"
		/>
	<path fill="#FFFFFF" d="M196.773,371.249c-0.085-0.046-0.17-0.092-0.26-0.13C196.603,371.158,196.688,371.204,196.773,371.249z"/>
	<path fill="#FFFFFF" d="M197.975,372.352c-0.076-0.105-0.152-0.211-0.234-0.306C197.822,372.141,197.899,372.247,197.975,372.352z"
		/>
	<path fill="#FFFFFF" d="M212.726,375.203c-0.188,0.118-0.387,0.22-0.58,0.33C212.339,375.422,212.538,375.321,212.726,375.203z"/>
	<path fill="#FFFFFF" d="M218.854,368.229c-0.056,0.125-0.125,0.245-0.185,0.369C218.729,368.474,218.798,368.354,218.854,368.229z"
		/>
	<path fill="#FFFFFF" d="M218.254,369.426c-0.081,0.145-0.176,0.281-0.262,0.423C218.079,369.707,218.173,369.57,218.254,369.426z"
		/>
	<path fill="#FFFFFF" d="M219.34,366.983c-0.037,0.11-0.087,0.216-0.127,0.326C219.253,367.2,219.303,367.094,219.34,366.983z"/>
	<path fill="#FFFFFF" d="M219.704,365.697c-0.022,0.103-0.06,0.202-0.086,0.304C219.645,365.898,219.681,365.799,219.704,365.697z"
		/>
	<path fill="#FFFFFF" d="M217.549,370.567c-0.1,0.145-0.21,0.28-0.313,0.421C217.339,370.849,217.452,370.712,217.549,370.567z"/>
	<path fill="#FFFFFF" d="M213.837,374.442c-0.175,0.13-0.359,0.246-0.538,0.369C213.478,374.688,213.663,374.573,213.837,374.442z"
		/>
	<path fill="#FFFFFF" d="M214.882,373.591c-0.158,0.14-0.327,0.267-0.49,0.4C214.555,373.858,214.724,373.731,214.882,373.591z"/>
	<path fill="#FFFFFF" d="M216.747,371.647c-0.119,0.147-0.251,0.283-0.375,0.426C216.495,371.931,216.627,371.794,216.747,371.647z"
		/>
	<path fill="#FFFFFF" d="M215.855,372.659c-0.14,0.145-0.291,0.278-0.436,0.419C215.564,372.937,215.715,372.804,215.855,372.659z"
		/>
	<path fill="#FFFFFF" d="M191.976,369.928c-0.067-0.057-0.139-0.109-0.204-0.17C191.837,369.817,191.909,369.871,191.976,369.928z"
		/>
	<path fill="#FFFFFF" d="M180.79,335.527c0.222-0.053,0.439-0.108,0.664-0.156C181.23,335.418,181.011,335.474,180.79,335.527z"/>
	<path fill="#FFFFFF" d="M179.281,335.933c0.22-0.065,0.437-0.131,0.656-0.191C179.716,335.801,179.5,335.868,179.281,335.933z"/>
	<path fill="#FFFFFF" d="M175.018,337.601c0.201-0.099,0.403-0.196,0.608-0.291C175.421,337.406,175.219,337.501,175.018,337.601z"
		/>
	<path fill="#FFFFFF" d="M177.814,336.414c0.214-0.077,0.429-0.153,0.646-0.226C178.243,336.261,178.028,336.337,177.814,336.414z"
		/>
	<path fill="#FFFFFF" d="M176.392,336.972c0.208-0.088,0.417-0.175,0.628-0.259C176.809,336.795,176.6,336.882,176.392,336.972z"/>
	<path fill="#FFFFFF" d="M182.342,335.199c0.22-0.04,0.438-0.084,0.659-0.119C182.78,335.115,182.562,335.159,182.342,335.199z"/>
	<path fill="#FFFFFF" d="M197.373,371.668c0.079,0.072,0.154,0.152,0.229,0.232C197.528,371.821,197.452,371.741,197.373,371.668z"
		/>
	<path fill="#4BBA94" d="M167.877,344.521c-1.877,2.387-2.437,5.455-1.496,8.207c0.895,2.621,2.967,4.461,5.834,5.183
		c1.642,0.411,3.359,0.505,5.182,0.605c0.749,0.041,1.524,0.083,2.288,0.15c5.151,0.45,10.086,1.747,11.303,8.134
		c0.032,0.168,0.181,0.416,0.322,0.654c0.061,0.1,0.119,0.2,0.175,0.299c0.534,0.955,1.475,2.093,2.917,2.093
		c0.063,0,0.123-0.002,0.188-0.006c0.141-0.009,0.277-0.013,0.409-0.013c2.479,0,3.619,1.527,4.26,2.674
		c0.147,0.265,0.346,0.528,0.555,0.807c0.177,0.234,0.353,0.469,0.511,0.715c1.063,1.651,2.587,2.424,4.799,2.434h0.057
		c6.635,0,12.939-5.59,13.77-12.207c0.679-5.407-0.982-11.253-4.109-16.153c-0.871-0.003-1.738-0.001-2.61-0.004
		c-0.711,0-1.166,0.188-1.679,0.688c-2.854,2.799-5.787,5.613-8.62,8.336l-2.459,2.363c-0.207,0.199-0.422,0.389-0.701,0.639
		c-0.152,0.137-0.327,0.291-0.534,0.479l-1.671,1.506v-2.248v-11.74h-8.172h-1v-1v-11.408
		C179.429,335.812,172.155,339.085,167.877,344.521z"/>
	<path fill="#FFFFFF" d="M183.95,334.951c0.209-0.027,0.416-0.059,0.627-0.081C184.365,334.892,184.159,334.923,183.95,334.951z"/>
	<path fill="#FFFFFF" d="M185.661,334.782c0.172-0.012,0.342-0.031,0.516-0.04C186.001,334.75,185.832,334.77,185.661,334.782z"/>
	<path fill="#FFFFFF" d="M194.652,370.839c0.181-0.011,0.347-0.006,0.511-0.001c-0.056-0.001-0.104-0.01-0.162-0.01
		C194.887,370.83,194.771,370.833,194.652,370.839z"/>
	<path fill="#FFFFFF" d="M170.087,340.813c0.155-0.131,0.316-0.256,0.477-0.384C170.405,340.558,170.243,340.683,170.087,340.813z"
		/>
	<path fill="#FFFFFF" d="M192.468,370.284c-0.075-0.047-0.153-0.091-0.228-0.143C192.315,370.192,192.393,370.237,192.468,370.284z"
		/>
	<path fill="#FFFFFF" d="M168.015,342.813c0.104-0.117,0.221-0.228,0.33-0.343C168.236,342.584,168.12,342.696,168.015,342.813z"/>
	<path fill="#FFFFFF" d="M191.094,368.98c-0.046-0.061-0.094-0.118-0.138-0.182C191,368.863,191.048,368.919,191.094,368.98z"/>
	<path fill="#FFFFFF" d="M193.001,370.558c-0.083-0.035-0.168-0.067-0.248-0.108C192.833,370.491,192.918,370.522,193.001,370.558z"
		/>
	<path fill="#FFFFFF" d="M173.697,338.302c0.192-0.109,0.389-0.215,0.584-0.32C174.084,338.086,173.889,338.192,173.697,338.302z"/>
	<path fill="#FFFFFF" d="M191.52,369.496c-0.059-0.063-0.12-0.122-0.177-0.188C191.4,369.373,191.461,369.433,191.52,369.496z"/>
	<path fill="#FFFFFF" d="M169.015,341.782c0.136-0.131,0.28-0.255,0.42-0.383C169.295,341.527,169.151,341.65,169.015,341.782z"/>
	<path fill="#FFFFFF" d="M171.228,339.911c0.17-0.126,0.344-0.246,0.519-0.368C171.572,339.664,171.398,339.785,171.228,339.911z"/>
	<path fill="#FFFFFF" d="M193.575,370.743c-0.091-0.021-0.183-0.041-0.27-0.068C193.392,370.702,193.484,370.722,193.575,370.743z"
		/>
	<path fill="#FFFFFF" d="M172.434,339.072c0.182-0.118,0.366-0.231,0.551-0.345C172.8,338.84,172.615,338.954,172.434,339.072z"/>
	<path d="M180.917,330.668c-10.99,2.534-19.059,8.539-22.49,19.622c-1.255,4.061-1.742,8.399,0.107,12.474
		c1.224,2.701,1.146,5.086-0.304,7.627c-1.323,2.319-2.499,4.735-3.584,7.176c-0.845,1.891-0.043,3.49,1.987,3.716
		c1.928,0.215,2.225,1.186,2.142,2.813c-0.091,1.742-0.64,3.748,1.464,4.311c0.102,1.258-0.154,2.427,0.312,3.087
		c1.417,2.023,1.522,4.137,1.299,6.47c-0.249,2.583,0.729,3.796,3.306,4.248c0.5,0.088,1.007,0.143,1.516,0.184
		c0.136,0.011,0.271,0.02,0.408,0.028c0.438,0.026,0.877,0.042,1.315,0.044c0.07,0,0.142,0.004,0.211,0.003
		c0.414,0,0.827-0.009,1.238-0.023c2.091-0.073,4.174-0.438,6.263-0.469c0.047-0.001,0.094-0.001,0.141-0.001
		c0.144,0,0.277,0.017,0.418,0.024c0.146,0.008,0.297,0.009,0.438,0.025c0.159,0.018,0.311,0.051,0.463,0.078
		c0.138,0.025,0.277,0.043,0.409,0.076c0.148,0.037,0.289,0.09,0.433,0.137c0.126,0.042,0.257,0.077,0.379,0.127
		c0.139,0.057,0.269,0.131,0.4,0.2c0.115,0.059,0.234,0.11,0.347,0.177c0.129,0.079,0.246,0.174,0.369,0.264
		c0.104,0.076,0.213,0.143,0.312,0.228c0.121,0.103,0.229,0.224,0.344,0.339c0.089,0.09,0.186,0.171,0.27,0.269
		c0.119,0.139,0.227,0.297,0.338,0.451c0.065,0.094,0.141,0.176,0.203,0.275c0.169,0.262,0.325,0.544,0.469,0.847
		c2.135,4.502,4.327,8.98,6.491,13.454c6.277-9.272,12.75-18.464,24.202-22.309c-1.521-5.497-0.344-10.517,2.559-15.21
		c1.562-2.524,3.274-4.951,4.854-7.464c2.886-4.589,5.275-9.366,4.856-15.012c-0.291-3.891-1.473-7.489-3.284-10.843
		c-1.829-0.002-3.659-0.004-5.49-0.009c3.027,4.976,4.6,10.83,3.916,16.275c-0.057,0.445-0.136,0.885-0.235,1.32
		c-0.023,0.103-0.061,0.202-0.086,0.304c-0.084,0.33-0.17,0.66-0.278,0.982c-0.037,0.11-0.087,0.216-0.127,0.326
		c-0.113,0.309-0.226,0.618-0.359,0.919c-0.056,0.125-0.125,0.245-0.185,0.369c-0.134,0.278-0.265,0.558-0.415,0.828
		c-0.081,0.145-0.176,0.281-0.261,0.423c-0.146,0.241-0.286,0.485-0.444,0.719c-0.099,0.145-0.21,0.28-0.313,0.421
		c-0.161,0.221-0.316,0.446-0.489,0.658c-0.119,0.147-0.251,0.283-0.375,0.426c-0.171,0.196-0.336,0.396-0.517,0.585
		c-0.141,0.145-0.291,0.279-0.437,0.419c-0.178,0.172-0.353,0.351-0.537,0.515c-0.158,0.14-0.327,0.267-0.49,0.4
		c-0.185,0.151-0.363,0.308-0.555,0.45c-0.175,0.13-0.359,0.246-0.538,0.369c-0.189,0.131-0.377,0.269-0.573,0.391
		c-0.188,0.118-0.387,0.22-0.579,0.33c-0.195,0.111-0.388,0.229-0.588,0.332c-0.201,0.104-0.41,0.189-0.616,0.284
		c-0.2,0.091-0.396,0.191-0.6,0.273c-0.212,0.085-0.429,0.153-0.644,0.229c-0.204,0.072-0.406,0.153-0.614,0.216
		c-0.218,0.066-0.44,0.113-0.661,0.169c-0.21,0.053-0.417,0.114-0.628,0.157c-0.224,0.045-0.451,0.07-0.676,0.104
		c-0.213,0.032-0.425,0.074-0.64,0.096c-0.226,0.022-0.453,0.024-0.68,0.035c-0.207,0.01-0.414,0.032-0.623,0.032
		c-0.021,0-0.041,0-0.063,0c-2.364-0.01-4.313-0.838-5.635-2.893c-0.346-0.535-0.784-1.019-1.096-1.575
		c-0.1-0.179-0.203-0.347-0.311-0.505c-0.032-0.048-0.068-0.089-0.103-0.136c-0.076-0.105-0.153-0.211-0.234-0.306
		c-0.044-0.052-0.092-0.096-0.138-0.145c-0.075-0.081-0.15-0.161-0.229-0.232c-0.054-0.047-0.109-0.088-0.165-0.131
		c-0.079-0.062-0.158-0.124-0.241-0.178c-0.063-0.04-0.129-0.074-0.193-0.11c-0.085-0.046-0.17-0.092-0.26-0.13
		c-0.071-0.031-0.146-0.056-0.222-0.082c-0.093-0.032-0.186-0.062-0.282-0.086c-0.082-0.02-0.167-0.036-0.252-0.051
		c-0.103-0.018-0.205-0.033-0.313-0.043c-0.092-0.009-0.186-0.014-0.281-0.018c-0.165-0.005-0.331-0.01-0.512,0.001
		c-0.084,0.005-0.168,0.008-0.25,0.008c-0.072,0-0.143-0.014-0.214-0.018c-0.099-0.006-0.196-0.011-0.291-0.024
		c-0.109-0.015-0.216-0.039-0.321-0.064c-0.092-0.021-0.184-0.041-0.271-0.068c-0.104-0.033-0.204-0.075-0.304-0.117
		c-0.083-0.035-0.168-0.067-0.248-0.108c-0.099-0.05-0.191-0.108-0.285-0.166c-0.075-0.047-0.153-0.091-0.228-0.143
		c-0.092-0.065-0.179-0.14-0.266-0.213c-0.068-0.057-0.139-0.109-0.204-0.17c-0.088-0.082-0.169-0.172-0.252-0.262
		c-0.059-0.063-0.12-0.122-0.177-0.188c-0.087-0.103-0.168-0.215-0.249-0.326c-0.046-0.061-0.094-0.118-0.138-0.182
		c-0.121-0.178-0.236-0.363-0.346-0.556c-0.228-0.407-0.521-0.813-0.605-1.255c-1.107-5.813-5.517-6.897-10.407-7.325
		c-2.545-0.223-5.171-0.167-7.626-0.782c-7.12-1.791-8.997-9.742-4.881-14.977c0.294-0.374,0.604-0.737,0.924-1.091
		c0.105-0.117,0.221-0.228,0.33-0.343c0.22-0.232,0.438-0.465,0.67-0.688c0.136-0.131,0.28-0.255,0.42-0.383
		c0.215-0.197,0.429-0.396,0.652-0.584c0.155-0.131,0.317-0.256,0.477-0.384c0.22-0.176,0.438-0.352,0.664-0.52
		c0.17-0.126,0.345-0.246,0.519-0.368c0.227-0.159,0.453-0.318,0.688-0.471c0.182-0.118,0.366-0.231,0.551-0.345
		c0.235-0.145,0.473-0.287,0.713-0.425c0.191-0.109,0.388-0.215,0.584-0.32c0.242-0.13,0.487-0.258,0.736-0.381
		c0.201-0.1,0.403-0.196,0.608-0.291c0.252-0.117,0.508-0.23,0.766-0.339c0.208-0.088,0.417-0.175,0.628-0.259
		c0.263-0.104,0.527-0.202,0.794-0.298c0.214-0.077,0.429-0.153,0.646-0.226c0.271-0.09,0.547-0.174,0.822-0.256
		c0.219-0.065,0.436-0.131,0.655-0.191c0.282-0.077,0.567-0.146,0.854-0.214c0.222-0.053,0.439-0.108,0.664-0.156
		c0.294-0.063,0.591-0.117,0.889-0.172c0.22-0.04,0.438-0.084,0.659-0.119c0.313-0.05,0.631-0.089,0.947-0.129
		c0.209-0.027,0.416-0.059,0.627-0.081c0.358-0.038,0.722-0.063,1.084-0.088c0.172-0.012,0.342-0.031,0.516-0.04
		c0.403-0.021,0.811-0.028,1.217-0.033v-4.759c-0.915,0-1.83,0-2.744-0.001C183.402,330.185,182.149,330.384,180.917,330.668z"/>
	<path fill="#FFFFFF" d="M224.799,358.954c0.419,5.646-1.973,10.423-4.857,15.012c-1.58,2.514-3.294,4.94-4.854,7.464
		c-2.901,4.693-4.078,9.713-2.56,15.21c-11.452,3.845-17.924,13.037-24.202,22.309c-2.163-4.474-4.355-8.952-6.49-13.454
		c-0.145-0.303-0.301-0.585-0.469-0.847c-0.063-0.099-0.138-0.182-0.203-0.275c-0.111-0.154-0.22-0.313-0.338-0.451
		c-0.084-0.098-0.181-0.178-0.27-0.269c-0.113-0.115-0.223-0.236-0.344-0.339c-0.1-0.084-0.208-0.151-0.313-0.228
		c-0.122-0.09-0.24-0.186-0.369-0.264c-0.11-0.067-0.229-0.118-0.346-0.177c-0.133-0.068-0.263-0.143-0.4-0.2
		c-0.122-0.05-0.254-0.085-0.38-0.127c-0.143-0.047-0.282-0.1-0.432-0.137c-0.132-0.033-0.272-0.051-0.409-0.076
		c-0.152-0.027-0.304-0.061-0.463-0.078c-0.143-0.016-0.293-0.017-0.439-0.025c-0.14-0.007-0.273-0.024-0.418-0.024
		c-0.047,0-0.093,0-0.14,0.001c-2.089,0.031-4.172,0.396-6.263,0.469c-0.411,0.015-0.824,0.023-1.238,0.023
		c-0.021,0-0.043,0.001-0.064,0.001c-0.049,0-0.098-0.005-0.146-0.005c-0.438-0.002-0.879-0.018-1.316-0.044
		c-0.137-0.008-0.271-0.018-0.407-0.028c-0.509-0.042-1.017-0.096-1.516-0.184c-2.577-0.452-3.555-1.665-3.306-4.248
		c0.224-2.333,0.118-4.447-1.299-6.47c-0.466-0.66-0.21-1.829-0.313-3.087c-2.103-0.563-1.554-2.569-1.463-4.311
		c0.083-1.627-0.214-2.597-2.142-2.813c-2.03-0.226-2.832-1.825-1.987-3.716c1.085-2.441,2.26-4.857,3.584-7.176
		c1.45-2.542,1.526-4.926,0.303-7.627c-1.85-4.075-1.361-8.414-0.106-12.474c3.433-11.083,11.5-17.087,22.489-19.622
		c1.232-0.285,2.485-0.483,3.731-0.72c0.914,0.001,1.829,0.001,2.744,0.001v-1c-0.914,0-1.829,0-2.743-0.001h-0.095l-0.093,0.018
		c-0.375,0.071-0.75,0.138-1.123,0.206c-0.867,0.156-1.765,0.317-2.647,0.522c-12.1,2.79-19.912,9.62-23.22,20.3
		c-1.59,5.144-1.54,9.456,0.151,13.184c1.094,2.414,1.014,4.486-0.261,6.718c-1.215,2.126-2.4,4.502-3.63,7.265
		c-0.559,1.251-0.56,2.477-0.003,3.451c0.534,0.933,1.525,1.525,2.794,1.666c1.147,0.128,1.324,0.376,1.253,1.768
		c-0.013,0.243-0.035,0.492-0.057,0.742c-0.124,1.39-0.305,3.417,1.545,4.323c0.001,0.167-0.002,0.334-0.004,0.499
		c-0.014,0.864-0.025,1.756,0.472,2.462c1.224,1.747,1.333,3.582,1.121,5.798c-0.298,3.089,1.014,4.783,4.128,5.328
		c1.05,0.186,2.214,0.276,3.558,0.276c0.447,0,0.896-0.01,1.339-0.025c1.01-0.035,2.018-0.136,2.991-0.234
		c1.121-0.113,2.182-0.219,3.251-0.235l0.125-0.001c2.215,0,3.748,0.963,4.687,2.944c1.548,3.262,3.147,6.562,4.696,9.752
		c0.602,1.237,1.2,2.473,1.799,3.709l0.756,1.563l0.973-1.438c5.737-8.473,12.24-18.076,23.692-21.921l0.896-0.302l-0.252-0.913
		c-1.345-4.864-0.545-9.581,2.445-14.417c0.822-1.329,1.706-2.66,2.561-3.947c0.76-1.143,1.544-2.324,2.29-3.511
		c2.865-4.556,5.454-9.601,5.009-15.618c-0.273-3.655-1.334-7.263-3.146-10.768c-0.378,0-0.757-0.001-1.135-0.002
		C223.327,351.464,224.508,355.063,224.799,358.954z"/>
	<path fill="#4BBA94" d="M185.661,334.782c-0.362,0.025-0.726,0.05-1.084,0.088c-0.211,0.022-0.418,0.054-0.627,0.081
		c-0.316,0.04-0.635,0.079-0.947,0.129c-0.223,0.035-0.439,0.079-0.659,0.119c-0.298,0.055-0.595,0.108-0.89,0.172
		c-0.224,0.048-0.441,0.103-0.663,0.156c-0.285,0.069-0.57,0.138-0.854,0.214c-0.221,0.06-0.438,0.126-0.656,0.191
		c-0.274,0.083-0.551,0.166-0.821,0.256c-0.218,0.072-0.432,0.149-0.646,0.226c-0.267,0.096-0.532,0.195-0.794,0.298
		c-0.211,0.083-0.42,0.17-0.628,0.259c-0.258,0.109-0.514,0.223-0.766,0.339c-0.205,0.095-0.407,0.191-0.608,0.291
		c-0.249,0.123-0.494,0.25-0.737,0.381c-0.196,0.105-0.392,0.21-0.584,0.32c-0.239,0.138-0.477,0.28-0.712,0.425
		c-0.185,0.114-0.37,0.227-0.551,0.345c-0.234,0.152-0.462,0.312-0.688,0.471c-0.174,0.122-0.348,0.242-0.518,0.368
		c-0.228,0.168-0.445,0.344-0.664,0.52c-0.159,0.127-0.321,0.252-0.477,0.384c-0.225,0.189-0.438,0.387-0.652,0.584
		c-0.14,0.128-0.284,0.252-0.42,0.383c-0.23,0.223-0.45,0.456-0.67,0.688c-0.109,0.115-0.226,0.226-0.33,0.343
		c-0.32,0.354-0.63,0.717-0.924,1.091c-4.116,5.235-2.239,13.187,4.881,14.977c2.455,0.615,5.081,0.56,7.626,0.782
		c4.892,0.427,9.3,1.512,10.407,7.325c0.084,0.442,0.379,0.849,0.605,1.255c0.108,0.193,0.224,0.378,0.345,0.556
		c0.044,0.063,0.093,0.121,0.139,0.182c0.081,0.111,0.162,0.223,0.249,0.326c0.057,0.066,0.118,0.125,0.177,0.188
		c0.083,0.089,0.164,0.18,0.252,0.262c0.064,0.061,0.136,0.114,0.204,0.17c0.087,0.073,0.174,0.148,0.266,0.213
		c0.073,0.052,0.151,0.096,0.228,0.143c0.094,0.058,0.188,0.116,0.285,0.166c0.079,0.041,0.164,0.073,0.248,0.108
		c0.1,0.042,0.198,0.084,0.304,0.117c0.087,0.028,0.179,0.047,0.27,0.068c0.106,0.025,0.212,0.049,0.322,0.064
		c0.095,0.013,0.193,0.018,0.291,0.024c0.071,0.004,0.141,0.018,0.214,0.018c0.082,0,0.166-0.002,0.25-0.008
		c0.119-0.007,0.235-0.011,0.348-0.011c0.059,0,0.107,0.008,0.163,0.01c0.098,0.003,0.19,0.009,0.282,0.018
		c0.107,0.01,0.211,0.025,0.313,0.043c0.085,0.015,0.17,0.031,0.252,0.051c0.098,0.024,0.189,0.055,0.281,0.086
		c0.075,0.026,0.15,0.051,0.223,0.082c0.09,0.039,0.175,0.084,0.26,0.13c0.063,0.036,0.131,0.07,0.193,0.11
		c0.083,0.054,0.161,0.116,0.24,0.178c0.057,0.043,0.112,0.084,0.165,0.131c0.08,0.072,0.155,0.152,0.23,0.232
		c0.046,0.048,0.094,0.093,0.138,0.145c0.081,0.095,0.158,0.201,0.234,0.306c0.032,0.046,0.068,0.088,0.102,0.136
		c0.107,0.158,0.211,0.326,0.312,0.505c0.312,0.556,0.75,1.04,1.096,1.575c1.322,2.055,3.27,2.882,5.635,2.893
		c0.021,0,0.041,0,0.063,0c0.209,0,0.416-0.022,0.623-0.032c0.227-0.011,0.454-0.013,0.68-0.035
		c0.214-0.022,0.426-0.063,0.639-0.096c0.226-0.034,0.452-0.059,0.677-0.104c0.211-0.043,0.418-0.104,0.628-0.157
		c0.221-0.056,0.443-0.103,0.661-0.169c0.208-0.063,0.41-0.144,0.614-0.216c0.215-0.076,0.432-0.144,0.644-0.229
		c0.203-0.083,0.397-0.182,0.599-0.273c0.206-0.094,0.415-0.18,0.617-0.284c0.2-0.103,0.393-0.221,0.587-0.332
		c0.193-0.11,0.393-0.212,0.58-0.33c0.196-0.122,0.383-0.26,0.573-0.391c0.179-0.123,0.363-0.239,0.538-0.369
		c0.189-0.143,0.37-0.299,0.555-0.45c0.163-0.134,0.332-0.26,0.49-0.4c0.186-0.164,0.358-0.342,0.537-0.515
		c0.145-0.141,0.296-0.274,0.436-0.419c0.182-0.188,0.347-0.389,0.518-0.585c0.124-0.143,0.256-0.279,0.375-0.426
		c0.173-0.212,0.327-0.437,0.488-0.658c0.104-0.141,0.216-0.277,0.313-0.421c0.158-0.234,0.299-0.479,0.443-0.719
		c0.086-0.142,0.181-0.279,0.262-0.423c0.149-0.27,0.281-0.549,0.415-0.828c0.06-0.124,0.129-0.243,0.185-0.369
		c0.135-0.301,0.246-0.61,0.359-0.919c0.04-0.11,0.09-0.216,0.127-0.326c0.107-0.323,0.193-0.652,0.277-0.982
		c0.026-0.102,0.063-0.201,0.087-0.304c0.101-0.435,0.18-0.875,0.234-1.32c0.685-5.445-0.888-11.299-3.916-16.275
		c-0.396-0.001-0.79-0.001-1.186-0.002c3.127,4.9,4.788,10.746,4.108,16.153c-0.828,6.617-7.134,12.207-13.769,12.207h-0.058
		c-2.212-0.01-3.735-0.783-4.799-2.434c-0.157-0.246-0.334-0.481-0.51-0.715c-0.209-0.279-0.406-0.542-0.555-0.807
		c-0.642-1.147-1.78-2.674-4.26-2.674c-0.133,0-0.27,0.004-0.409,0.013c-0.065,0.004-0.127,0.006-0.188,0.006
		c-1.443,0-2.383-1.138-2.917-2.093c-0.056-0.1-0.115-0.199-0.175-0.299c-0.143-0.239-0.29-0.486-0.322-0.654
		c-1.217-6.388-6.15-7.685-11.303-8.134c-0.764-0.067-1.539-0.109-2.288-0.15c-1.821-0.1-3.54-0.194-5.182-0.605
		c-2.867-0.721-4.939-2.562-5.834-5.183c-0.939-2.752-0.382-5.82,1.495-8.207c4.277-5.437,11.553-8.71,19.516-8.813v-1
		c-0.407,0.005-0.813,0.012-1.217,0.033C186.001,334.75,185.832,334.77,185.661,334.782z"/>
	<path d="M148.174,341.559l0.338,0.352c0.061,0.063,0.104,0.127,0.145,0.193c0.291-0.068,0.625-0.328,1.192-0.798
		c8.087-6.699,15.508-14.102,22.628-21.797c3.088-3.338,5.898-6.934,8.792-10.449c0.487-0.59,0.751-1.361,1.019-1.859
		c0.021-0.842-0.459-1.373-1.075-1.373c-0.188,0-0.383,0.047-0.584,0.15c-1.132,0.58-2.247,1.256-3.231,2.059
		c-11.045,9.004-21.063,19.053-30.312,29.879c-0.652,0.763-0.99,1.186-1.042,1.564c0.016,0.012,0.037,0.017,0.052,0.03
		C146.832,340.162,147.514,340.871,148.174,341.559z"/>
	<path fill="#FFFFFF" d="M173.214,320.187c2.385-2.578,4.632-5.342,6.806-8.014c0.674-0.828,1.348-1.656,2.024-2.479
		c0.425-0.518,0.693-1.105,0.913-1.578c0.073-0.164,0.144-0.314,0.213-0.445l0.11-0.209l0.007-0.234
		c0.02-0.713-0.209-1.354-0.646-1.797c-0.38-0.393-0.889-0.605-1.432-0.605c-0.354,0-0.701,0.088-1.039,0.26
		c-1.343,0.689-2.457,1.4-3.407,2.176c-10.656,8.686-20.612,18.5-30.439,30.002c-0.698,0.817-1.11,1.407-1.248,1.939
		c0.054-0.004,0.099-0.005,0.114-0.005c0.345,0,0.625,0.101,0.852,0.281c0.052-0.378,0.39-0.801,1.042-1.564
		c9.248-10.826,19.267-20.875,30.312-29.879c0.984-0.803,2.101-1.479,3.231-2.059c0.201-0.104,0.396-0.15,0.584-0.15
		c0.615,0,1.098,0.531,1.074,1.373c-0.267,0.498-0.529,1.27-1.018,1.859c-2.895,3.516-5.704,7.111-8.792,10.449
		c-7.12,7.695-14.541,15.098-22.628,21.797c-0.567,0.471-0.901,0.73-1.192,0.798c0.15,0.244,0.185,0.493,0.196,0.641l0.02,0.08
		l-0.005,0.125c-0.001,0.045-0.012,0.086-0.016,0.13c0.544-0.118,1.022-0.494,1.639-1.005
		C157.72,336.082,164.941,329.126,173.214,320.187z"/>
	<path fill="#4BBA94" d="M138.885,342.934c-4.388,2.725-5.979,7.176-7.143,11.859c-0.058,0.23,0.125,0.521,0.265,1.033
		c0.609-0.482,1.109-0.814,1.534-1.225c0.653-0.631,1.231-1.34,1.886-1.971c1.086-1.047,1.835-1.521,2.7-1.521
		c0.675,0,1.421,0.289,2.453,0.82c0.359,0.184,0.909,0.314,1.381,0.314c0.311,0,0.586-0.057,0.752-0.191
		c2.258-1.842,3.757-4.178,3.592-7.248c-0.007-0.118-0.028-0.229-0.046-0.342c-0.102-0.058-0.198-0.125-0.291-0.203
		c-0.751-0.629-1.477-1.361-2.214-2.238c-0.045-0.052-0.075-0.11-0.109-0.167c-0.365-0.074-0.727-0.112-1.076-0.112
		C141.247,341.742,140.02,342.228,138.885,342.934z"/>
	<path d="M147.866,342.916c-0.017-0.078-0.004-0.236-0.074-0.313c-0.771-0.799-1.532-1.611-2.361-2.348
		c-0.045-0.039-0.133-0.059-0.237-0.059c-0.229,0-0.538,0.088-0.618,0.209c-0.16,0.242-0.215,0.781-0.054,0.973
		c0.638,0.758,1.331,1.48,2.089,2.115c0.176,0.146,0.363,0.213,0.539,0.213C147.527,343.707,147.85,343.396,147.866,342.916z"/>
	<path fill="#FFFFFF" d="M148.873,342.824l-0.021-0.08c-0.013-0.148-0.046-0.397-0.196-0.641c-0.04-0.065-0.085-0.13-0.145-0.193
		l-0.338-0.352c-0.66-0.688-1.343-1.396-2.08-2.051c-0.015-0.013-0.036-0.018-0.052-0.03c-0.227-0.18-0.508-0.281-0.852-0.281
		c-0.017,0-0.062,0.001-0.115,0.005c-0.28,0.019-0.983,0.118-1.338,0.653c-0.153,0.233-0.271,0.583-0.306,0.953
		c-0.031,0.359,0.024,0.733,0.212,1.046c0.034,0.057,0.065,0.115,0.109,0.167c0.738,0.877,1.463,1.609,2.214,2.238
		c0.093,0.078,0.189,0.146,0.291,0.203c0.276,0.16,0.579,0.244,0.891,0.244c0.05,0,0.098-0.01,0.146-0.015
		c0.833-0.071,1.472-0.729,1.557-1.613c0.004-0.044,0.015-0.085,0.017-0.13L148.873,342.824z M146.609,343.494
		c-0.758-0.635-1.452-1.357-2.089-2.115c-0.161-0.191-0.107-0.73,0.053-0.973c0.08-0.121,0.391-0.209,0.619-0.209
		c0.104,0,0.192,0.02,0.237,0.059c0.829,0.736,1.59,1.549,2.361,2.348c0.07,0.076,0.059,0.234,0.074,0.313
		c-0.016,0.48-0.339,0.791-0.718,0.791C146.972,343.707,146.784,343.641,146.609,343.494z"/>
	<path d="M188.392,347.117c3.043,0,6.021,0,9.172,0c0,4.256,0,8.352,0,12.74c0.568-0.514,0.9-0.795,1.215-1.098
		c3.697-3.557,7.406-7.102,11.072-10.691c0.698-0.684,1.397-0.973,2.377-0.973c0.006,0,0.012,0,0.019,0
		c5.205,0.021,10.411,0.025,15.616,0.025c4.193,0,8.39-0.004,12.582-0.004c0.529,0,1.06,0,1.582,0c0-12.557,0-24.92,0-37.26
		c-17.943,0-35.767,0-53.635,0C188.392,322.291,188.392,334.623,188.392,347.117z M195.004,329.949c13.467,0,26.875,0,40.394,0
		c0,0.799,0,1.584,0,2.479c-13.413,0-26.854,0-40.394,0C195.004,331.551,195.004,330.792,195.004,329.949z M235.415,338.678
		c-13.488,0-26.91,0-40.399,0h-0.001c0-0.871,0-1.666,0-2.547h0.001c13.457,0,26.879,0,40.399,0
		C235.415,336.93,235.415,337.725,235.415,338.678z M235.465,323.801c0,0.841,0,1.555,0,2.391c0,0,0,0.001,0,0.002
		c-13.478,0-26.918,0-40.438,0c0,0,0-0.001,0-0.002c0-0.763,0-1.513,0-2.391c0,0,0-0.001,0-0.002c13.434,0,26.873,0,40.438,0
		C235.465,323.798,235.465,323.799,235.465,323.801z M194.993,317.656c4.731,0,9.416,0,14.22,0c0,0.773,0,1.561,0,2.471
		c-4.664,0-9.384,0-14.22,0C194.993,319.274,194.993,318.514,194.993,317.656z"/>
	<path fill="#FFFFFF" d="M242.027,308.856h-53.635h-1v1v19.093v1v4.759v1v11.408v1h1h8.172v11.74v2.248l1.67-1.506
		c0.207-0.188,0.382-0.342,0.535-0.479c0.279-0.25,0.494-0.439,0.701-0.639l2.459-2.363c2.833-2.723,5.765-5.537,8.62-8.336
		c0.513-0.5,0.968-0.688,1.679-0.688c0.872,0.003,1.739,0.001,2.61,0.004c0.396,0.001,0.79,0.001,1.186,0.002
		c1.832,0.005,3.662,0.007,5.491,0.009c0.378,0,0.757,0.001,1.135,0.002c1.736,0.001,3.478,0.008,5.213,0.008l6.292-0.002h6.29
		h1.582h1v-1v-37.26v-1.002h-1V308.856z M242.027,347.117c-0.522,0-1.053,0-1.582,0c-4.192,0-8.389,0.004-12.582,0.004
		c-5.205,0-10.411-0.004-15.616-0.025c-0.007,0-0.013,0-0.019,0c-0.979,0-1.679,0.289-2.377,0.973
		c-3.666,3.59-7.375,7.135-11.072,10.691c-0.313,0.303-0.646,0.584-1.215,1.098c0-4.389,0-8.484,0-12.74c-3.151,0-6.129,0-9.172,0
		c0-12.494,0-24.826,0-37.26c17.868,0,35.69,0,53.635,0C242.027,322.197,242.027,334.56,242.027,347.117z"/>
	<path fill="#FFFFFF" d="M195.027,323.801c13.434,0,26.873,0,40.438,0c0,0,0-0.001,0-0.002c-13.565,0-27.006,0-40.438,0
		C195.027,323.798,195.027,323.799,195.027,323.801z"/>
	<path fill="#4BBA94" d="M235.398,332.428c0-0.895,0-1.68,0-2.479c-13.519,0-26.927,0-40.394,0c0,0.844,0,1.602,0,2.479
		C208.543,332.428,221.985,332.428,235.398,332.428z"/>
	<path fill="#4BBA94" d="M195.015,336.13L195.015,336.13c-0.001,0.881-0.001,1.676-0.001,2.547h0.001c13.489,0,26.911,0,40.399,0
		c0-0.953,0-1.748,0-2.547C221.894,336.13,208.472,336.13,195.015,336.13z"/>
	<path fill="#4BBA94" d="M195.027,326.19c0,0,0,0.001,0,0.002c13.521,0,26.962,0,40.438,0c0,0,0-0.001,0-0.002
		c0-0.835,0-1.55,0-2.391c-13.565,0-27.006,0-40.438,0C195.027,324.679,195.027,325.428,195.027,326.19z"/>
	<path fill="#4BBA94" d="M209.211,317.656c-4.803,0-9.487,0-14.219,0c0,0.857,0,1.619,0,2.471c4.836,0,9.555,0,14.219,0
		C209.211,319.216,209.211,318.43,209.211,317.656z"/>
</g>
</svg>
