<?xml version="1.0" encoding="utf-8"?>
<!-- Generator: Adobe Illustrator 16.0.3, SVG Export Plug-In . SVG Version: 6.00 Build 0)  -->
<!DOCTYPE svg PUBLIC "-//W3C//DTD SVG 1.1//EN" "http://www.w3.org/Graphics/SVG/1.1/DTD/svg11.dtd">
<svg version="1.1"
	 id="svg2" xmlns:rdf="http://www.w3.org/1999/02/22-rdf-syntax-ns#" xmlns:cc="http://creativecommons.org/ns#" xmlns:svg="http://www.w3.org/2000/svg" xmlns:dc="http://purl.org/dc/elements/1.1/" xmlns:inkscape="http://www.inkscape.org/namespaces/inkscape" xmlns:sodipodi="http://sodipodi.sourceforge.net/DTD/sodipodi-0.dtd" sodipodi:docname="dibujo.svg" inkscape:version="0.48.4 r"
	 xmlns="http://www.w3.org/2000/svg" xmlns:xlink="http://www.w3.org/1999/xlink" x="0px" y="0px" width="63.514px"
	 height="79.937px" viewBox="111.176 332.966 63.514 79.937" enable-background="new 111.176 332.966 63.514 79.937"
	 xml:space="preserve">
<sodipodi:namedview  id="base" showgrid="false" borderopacity="1.0" bordercolor="#666666" inkscape:cy="100.36547" inkscape:cx="471.00049" inkscape:zoom="1.8757812" pagecolor="#ffffff" inkscape:pageopacity="0.0" inkscape:document-units="px" inkscape:pageshadow="2" inkscape:window-y="-8" inkscape:current-layer="layer1" inkscape:window-width="1440" inkscape:window-height="878" inkscape:window-x="-8" inkscape:window-maximized="1">
	</sodipodi:namedview>
<g>
	<path fill="#6093A5" d="M148.235,385.645c-0.054-0.455-0.105-0.898-0.158-1.34c-4.166,0.49-8.293,0.977-12.44,1.465
		c0.056,0.459,0.104,0.885,0.157,1.34C139.952,386.622,144.079,386.134,148.235,385.645z"/>
	<path fill="#6093A5" d="M173.741,353.201c-4.022-12.103-15.29-20.235-28.035-20.235c-3.164,0-6.303,0.511-9.329,1.517l-2.848,0.947
		l0.947,2.847l1.258,3.779l0.311,0.932h-0.001l0.946,2.847l1.256,3.779l0.869,2.616c-2.125,1.6-4.402,2.391-4.433,2.401
		l-2.848,0.947l0.946,2.846c0.252,0.756,0.432,1.512,0.582,2.265c-0.681,0.133-1.332,0.506-1.946,1.143
		c-2.906,3.012-5.809,6.027-8.729,9.027c-0.201,0.207-0.528,0.365-0.817,0.402c-2.065,0.27-4.138,0.5-6.209,0.744
		c-0.18,0.021-0.359,0.043-0.594,0.07c0.027,0.236,0.049,0.416,0.07,0.598c0.182,1.549,0.349,3.1,0.556,4.645
		c0.054,0.395-0.049,0.664-0.315,0.943c-0.955,1.01-1.881,2.047-2.83,3.063c-1.086,1.164-1.518,2.525-1.33,4.105
		c0.976,8.23,1.939,16.463,2.909,24.693c0.234,1.979,1.492,2.98,3.457,2.748c14.712-1.73,29.424-3.463,44.135-5.195
		c1.939-0.229,2.952-1.5,2.728-3.43l-2.91-24.744c-0.185-1.582-0.929-2.801-2.257-3.678c-1.329-0.877-2.646-1.777-3.979-2.646
		c-0.284-0.188-0.403-0.402-0.438-0.734c-0.043-0.405-0.095-0.81-0.142-1.214c0.644-0.301,1.304-0.581,1.999-0.813l2.848-0.946
		l-0.947-2.847c-0.008-0.025-0.742-2.323-0.732-4.989l2.617-0.87l3.779-1.257l2.848-0.946v-0.001l0.932-0.31l3.779-1.256
		l2.847-0.946L173.741,353.201z M127.125,370.324c2.122-2.191,4.242-4.383,6.353-6.588c0.09-0.094,0.176-0.154,0.261-0.198
		c0.137,2.306-0.097,4.486-0.468,6.378c-2.107,0.248-4.212,0.495-6.313,0.742c-0.056-0.049-0.115-0.098-0.172-0.146
		C126.899,370.449,127.039,370.413,127.125,370.324z M118.226,374.574c4.771-0.562,9.538-1.123,14.307-1.684
		c-0.63,2.067-1.265,3.359-1.281,3.393l-0.244,0.487c-3.439,0.405-6.888,0.811-10.327,1.216c0.107,0.924,0.214,1.807,0.318,2.709
		c3.343-0.394,6.675-0.786,10.011-1.178l1.582,0.792l1.946,0.976l0.138,0.068l-0.002,0.001l1.504,0.753
		c-0.326,0.039-0.654,0.077-0.981,0.116c0.088,0.746,0.171,1.457,0.254,2.158c1.427-0.167,2.845-0.334,4.267-0.502l2.271,1.14
		l0.749-1.495c2.55-0.3,5.096-0.6,7.646-0.9c-0.087-0.734-0.169-1.434-0.254-2.158c-2.049,0.241-4.084,0.48-6.126,0.721
		c0.533-0.859,1.388-2.114,2.557-3.5c1.093-0.128,2.186-0.257,3.277-0.386c-0.104-0.905-0.208-1.77-0.311-2.644
		c0.776-0.679,1.622-1.337,2.54-1.945c0.382,3.24,0.761,6.48,1.151,9.719c0.041,0.34-0.042,0.563-0.281,0.801
		c-2.868,2.836-5.73,5.68-8.579,8.535c-0.258,0.26-0.429,0.264-0.725,0.076c-1.109-0.705-2.239-1.381-3.361-2.066
		c0.01-0.043,0.02-0.084,0.029-0.125c1.493-0.176,2.986-0.352,4.513-0.533c-0.056-0.467-0.105-0.895-0.164-1.391
		c-0.188,0.021-0.367,0.043-0.544,0.063c-1.718,0.203-3.438,0.385-5.149,0.621c-0.558,0.076-1.024,0.016-1.471-0.33
		c-0.225-0.176-0.487-0.303-0.766-0.471c-0.899,0.924-1.789,1.84-2.764,2.84c-0.321-2.736-0.629-5.35-0.938-7.99
		c-3.971,0.469-7.882,0.928-11.846,1.395c0.15,1.285,0.302,2.555,0.468,3.979c-0.731-0.461-1.354-0.844-1.964-1.248
		c-0.074-0.049-0.096-0.209-0.108-0.322c-0.45-3.805-0.898-7.609-1.344-11.414C118.212,374.77,118.225,374.686,118.226,374.574z
		 M116.152,381.568c0.124,1.057,0.236,2.016,0.361,3.08c-0.707-0.438-1.354-0.834-2.038-1.258
		C115.069,382.744,115.58,382.189,116.152,381.568z M116.769,408.086c-0.85-7.207-1.688-14.32-2.536-21.545
		c4.903,3.057,9.751,6.076,14.657,9.133C124.828,399.834,120.831,403.927,116.769,408.086z M119.005,409.837
		c6.086-6.246,12.106-12.428,18.17-18.654c7.523,4.594,15.048,9.189,22.673,13.846C146.191,406.639,132.653,408.232,119.005,409.837
		z M157.895,378.29c-0.688,0.684-1.35,1.338-2.068,2.055c-0.148-1.275-0.288-2.451-0.438-3.734
		C156.263,377.193,157.044,377.718,157.895,378.29z M158.879,381.279c0.847,7.176,1.678,14.234,2.521,21.398
		c-4.993-3.049-9.912-6.051-14.896-9.094C150.628,389.484,154.714,385.421,158.879,381.279z M140.649,380.991l-0.736-0.369
		l-1.213-0.607l7.451-14.876c0.13-0.024,0.259-0.055,0.387-0.097c1.392-0.463,2.146-1.965,1.683-3.357
		c-0.054-0.16-0.123-0.309-0.202-0.451c-0.024-0.043-0.053-0.083-0.078-0.125c-0.062-0.096-0.126-0.188-0.197-0.274
		c-0.034-0.042-0.069-0.082-0.106-0.122c-0.075-0.082-0.156-0.156-0.241-0.227c-0.037-0.03-0.071-0.063-0.109-0.091
		c-0.251-0.186-0.531-0.327-0.83-0.416c-0.045-0.013-0.092-0.021-0.137-0.033c-0.108-0.026-0.217-0.046-0.328-0.059
		c-0.054-0.006-0.107-0.01-0.161-0.013c-0.043-0.002-0.085-0.01-0.128-0.01c-0.069,0-0.14,0.011-0.209,0.017
		c-0.05,0.004-0.098,0.005-0.147,0.012c-0.16,0.022-0.32,0.055-0.48,0.108c-1.393,0.463-2.146,1.966-1.682,3.357
		c0.042,0.127,0.093,0.249,0.151,0.367l-7.451,14.875l-1.946-0.976c0,0,5.045-10.071,1.693-20.149c0,0,5.038-1.675,7.979-5.451
		c0.261-0.086,0.525-0.159,0.795-0.222c0.087-0.021,0.175-0.036,0.262-0.054c0.185-0.038,0.368-0.072,0.555-0.099
		c0.103-0.015,0.205-0.026,0.309-0.038c0.177-0.02,0.354-0.034,0.532-0.043c0.104-0.005,0.207-0.01,0.312-0.012
		c0.138-0.003,0.275,0.003,0.413,0.006c0.205,0.005,0.411,0.016,0.616,0.035c0.13,0.012,0.259,0.026,0.388,0.044
		c0.206,0.028,0.411,0.065,0.616,0.107c0.124,0.026,0.249,0.05,0.373,0.081c0.221,0.055,0.438,0.124,0.658,0.195
		c0.104,0.035,0.211,0.063,0.314,0.102c0.32,0.119,0.64,0.252,0.952,0.409v-0.002c2.296,1.151,3.904,3.122,4.655,5.38
		c-1.262,4.616,0.414,9.654,0.414,9.654C145.694,370.92,140.649,380.991,140.649,380.991z M159.556,357.917
		c-1.23-3.702-3.829-6.703-7.316-8.45c-0.479-0.24-0.97-0.447-1.466-0.631c-0.16-0.06-0.322-0.105-0.482-0.159
		c-0.342-0.114-0.685-0.221-1.03-0.309c-0.189-0.048-0.382-0.087-0.572-0.128c-0.326-0.069-0.652-0.127-0.981-0.173
		c-0.198-0.027-0.396-0.053-0.595-0.072c-0.334-0.032-0.669-0.049-1.005-0.059c-0.131-0.003-0.262-0.023-0.394-0.023
		c-0.074,0-0.149,0.008-0.226,0.009c-0.148,0.002-0.297,0.011-0.445,0.018c-0.295,0.014-0.59,0.036-0.885,0.068
		c-0.154,0.017-0.309,0.034-0.463,0.056c-0.305,0.043-0.607,0.098-0.91,0.161c-0.135,0.027-0.27,0.05-0.403,0.082
		c-0.433,0.102-0.862,0.218-1.289,0.36l-1.257-3.779c0.558-0.185,1.116-0.334,1.677-0.465c0.178-0.041,0.354-0.072,0.531-0.108
		c0.392-0.079,0.78-0.147,1.172-0.2c0.196-0.027,0.395-0.051,0.591-0.071c0.393-0.041,0.784-0.066,1.175-0.082
		c0.172-0.007,0.346-0.019,0.518-0.021c0.558-0.006,1.111,0.006,1.661,0.049c0.005,0,0.01,0.001,0.016,0.002
		c0.547,0.043,1.088,0.118,1.624,0.209c0.166,0.028,0.33,0.065,0.494,0.098c0.381,0.075,0.758,0.16,1.13,0.258
		c0.182,0.048,0.36,0.098,0.541,0.151c0.37,0.11,0.737,0.234,1.102,0.367c0.154,0.056,0.31,0.108,0.462,0.168
		c1.015,0.401,1.991,0.891,2.92,1.462c0.143,0.087,0.278,0.182,0.418,0.272c0.321,0.21,0.639,0.429,0.947,0.659
		c0.151,0.112,0.3,0.228,0.448,0.345c0.301,0.239,0.594,0.489,0.88,0.747c0.126,0.113,0.255,0.223,0.377,0.339
		c0.397,0.379,0.785,0.771,1.148,1.186c0.004,0.002,0.006,0.005,0.008,0.008c0.36,0.412,0.7,0.846,1.026,1.292
		c0.104,0.14,0.197,0.287,0.296,0.43c0.223,0.322,0.437,0.65,0.639,0.988c0.102,0.17,0.199,0.341,0.297,0.515
		c0.19,0.345,0.37,0.7,0.541,1.06c0.078,0.163,0.159,0.324,0.231,0.49c0.231,0.527,0.446,1.065,0.633,1.622L159.556,357.917z
		 M167.115,355.403c-0.962-2.894-2.46-5.508-4.453-7.777c-1.927-2.19-4.23-3.968-6.854-5.28c-2.622-1.314-5.427-2.098-8.335-2.328
		c-0.593-0.047-1.186-0.07-1.774-0.07c-0.092,0-0.183,0.01-0.273,0.011c-0.219,0.002-0.436,0.017-0.651,0.026
		c-0.478,0.02-0.951,0.052-1.424,0.102c-0.24,0.025-0.479,0.054-0.719,0.087c-0.474,0.066-0.943,0.15-1.413,0.246
		c-0.213,0.043-0.426,0.081-0.637,0.13c-0.671,0.158-1.339,0.338-2,0.558l-1.258-3.779c0.62-0.207,1.244-0.38,1.868-0.539
		c0.134-0.034,0.269-0.069,0.403-0.101c0.606-0.145,1.216-0.27,1.824-0.37c0.104-0.017,0.207-0.029,0.312-0.045
		c0.557-0.085,1.112-0.152,1.669-0.201c0.104-0.009,0.211-0.022,0.315-0.03c0.606-0.046,1.212-0.068,1.814-0.072
		c0.135-0.001,0.271,0.001,0.405,0.002c0.607,0.005,1.216,0.024,1.817,0.072c0.012,0,0.021,0,0.033,0.001
		c0.61,0.048,1.217,0.125,1.819,0.216c0.133,0.02,0.266,0.039,0.397,0.061c0.586,0.097,1.169,0.21,1.746,0.346
		c0.101,0.023,0.197,0.051,0.296,0.076c0.524,0.129,1.044,0.275,1.56,0.437c0.101,0.031,0.202,0.06,0.302,0.092
		c0.561,0.183,1.114,0.386,1.66,0.605c0.124,0.049,0.247,0.102,0.37,0.153c0.55,0.23,1.095,0.473,1.629,0.739
		c0.009,0.005,0.018,0.008,0.026,0.013c0.538,0.27,1.063,0.565,1.585,0.871c0.113,0.068,0.229,0.135,0.345,0.205
		c0.503,0.307,0.998,0.628,1.479,0.968c0.084,0.059,0.164,0.121,0.247,0.18c0.438,0.317,0.868,0.647,1.288,0.991
		c0.079,0.065,0.159,0.126,0.237,0.192c0.455,0.381,0.896,0.78,1.326,1.193c0.096,0.092,0.188,0.185,0.283,0.278
		c0.434,0.429,0.857,0.868,1.263,1.329l1.172,1.442c0.08,0.106,0.162,0.211,0.241,0.319c0.358,0.488,0.706,0.987,1.034,1.503
		c0.054,0.085,0.104,0.174,0.157,0.26c0.297,0.479,0.578,0.968,0.847,1.469c0.049,0.091,0.101,0.18,0.147,0.272
		c0.285,0.549,0.55,1.113,0.8,1.688c0.055,0.125,0.106,0.253,0.158,0.379c0.248,0.596,0.482,1.201,0.689,1.823L167.115,355.403z"/>
</g>
</svg>
